<svg width="378" height="348" viewBox="0 0 378 348" fill="none" xmlns="http://www.w3.org/2000/svg">
<rect width="378" height="348" rx="20" fill="#1C140F"/>
<path d="M42.502 194.098C41.5967 194.098 40.7707 193.888 40.024 193.468C39.2773 193.039 38.6847 192.446 38.246 191.69C37.8167 190.925 37.602 190.066 37.602 189.114C37.602 188.162 37.8167 187.308 38.246 186.552C38.6847 185.787 39.2773 185.194 40.024 184.774C40.7707 184.345 41.5967 184.13 42.502 184.13C43.4167 184.13 44.2473 184.345 44.994 184.774C45.7407 185.194 46.3287 185.782 46.758 186.538C47.1873 187.294 47.402 188.153 47.402 189.114C47.402 190.075 47.1873 190.934 46.758 191.69C46.3287 192.446 45.7407 193.039 44.994 193.468C44.2473 193.888 43.4167 194.098 42.502 194.098ZM42.502 192.992C43.1833 192.992 43.7947 192.833 44.336 192.516C44.8867 192.199 45.316 191.746 45.624 191.158C45.9413 190.57 46.1 189.889 46.1 189.114C46.1 188.33 45.9413 187.649 45.624 187.07C45.316 186.482 44.8913 186.029 44.35 185.712C43.8087 185.395 43.1927 185.236 42.502 185.236C41.8113 185.236 41.1953 185.395 40.654 185.712C40.1127 186.029 39.6833 186.482 39.366 187.07C39.058 187.649 38.904 188.33 38.904 189.114C38.904 189.889 39.058 190.57 39.366 191.158C39.6833 191.746 40.1127 192.199 40.654 192.516C41.2047 192.833 41.8207 192.992 42.502 192.992ZM50.3299 184.242V190.416C50.3299 191.284 50.5399 191.928 50.9599 192.348C51.3892 192.768 51.9819 192.978 52.7379 192.978C53.4845 192.978 54.0679 192.768 54.4879 192.348C54.9172 191.928 55.1319 191.284 55.1319 190.416V184.242H56.4059V190.402C56.4059 191.214 56.2425 191.9 55.9159 192.46C55.5892 193.011 55.1459 193.421 54.5859 193.692C54.0352 193.963 53.4145 194.098 52.7239 194.098C52.0332 194.098 51.4079 193.963 50.8479 193.692C50.2972 193.421 49.8585 193.011 49.5319 192.46C49.2145 191.9 49.0559 191.214 49.0559 190.402V184.242H50.3299ZM63.6691 194L61.3451 190.01H59.8051V194H58.5311V184.242H61.6811C62.4185 184.242 63.0391 184.368 63.5431 184.62C64.0565 184.872 64.4391 185.213 64.6911 185.642C64.9431 186.071 65.0691 186.561 65.0691 187.112C65.0691 187.784 64.8731 188.377 64.4811 188.89C64.0985 189.403 63.5198 189.744 62.7451 189.912L65.1951 194H63.6691ZM59.8051 188.988H61.6811C62.3718 188.988 62.8898 188.82 63.2351 188.484C63.5805 188.139 63.7531 187.681 63.7531 187.112C63.7531 186.533 63.5805 186.085 63.2351 185.768C62.8991 185.451 62.3811 185.292 61.6811 185.292H59.8051V188.988ZM77.3051 187.098C77.3051 187.91 77.0251 188.587 76.4651 189.128C75.9145 189.66 75.0698 189.926 73.9311 189.926H72.0551V194H70.7811V184.242H73.9311C75.0325 184.242 75.8678 184.508 76.4371 185.04C77.0158 185.572 77.3051 186.258 77.3051 187.098ZM73.9311 188.876C74.6405 188.876 75.1631 188.722 75.4991 188.414C75.8351 188.106 76.0031 187.667 76.0031 187.098C76.0031 185.894 75.3125 185.292 73.9311 185.292H72.0551V188.876H73.9311ZM84.6565 191.83H80.4005L79.6165 194H78.2725L81.8005 184.298H83.2705L86.7845 194H85.4405L84.6565 191.83ZM84.2925 190.794L82.5285 185.866L80.7645 190.794H84.2925ZM91.4161 194.098C90.7721 194.098 90.1935 193.986 89.6801 193.762C89.1761 193.529 88.7795 193.211 88.4901 192.81C88.2008 192.399 88.0515 191.928 88.0421 191.396H89.4001C89.4468 191.853 89.6335 192.241 89.9601 192.558C90.2961 192.866 90.7815 193.02 91.4161 193.02C92.0228 193.02 92.4988 192.871 92.8441 192.572C93.1988 192.264 93.3761 191.872 93.3761 191.396C93.3761 191.023 93.2735 190.719 93.0681 190.486C92.8628 190.253 92.6061 190.075 92.2981 189.954C91.9901 189.833 91.5748 189.702 91.0521 189.562C90.4081 189.394 89.8901 189.226 89.4981 189.058C89.1155 188.89 88.7841 188.629 88.5041 188.274C88.2335 187.91 88.0981 187.425 88.0981 186.818C88.0981 186.286 88.2335 185.815 88.5041 185.404C88.7748 184.993 89.1528 184.676 89.6381 184.452C90.1328 184.228 90.6975 184.116 91.3321 184.116C92.2468 184.116 92.9935 184.345 93.5721 184.802C94.1601 185.259 94.4915 185.866 94.5661 186.622H93.1661C93.1195 186.249 92.9235 185.922 92.5781 185.642C92.2328 185.353 91.7755 185.208 91.2061 185.208C90.6741 185.208 90.2401 185.348 89.9041 185.628C89.5681 185.899 89.4001 186.281 89.4001 186.776C89.4001 187.131 89.4981 187.42 89.6941 187.644C89.8995 187.868 90.1468 188.041 90.4361 188.162C90.7348 188.274 91.1501 188.405 91.6821 188.554C92.3261 188.731 92.8441 188.909 93.2361 189.086C93.6281 189.254 93.9641 189.52 94.2441 189.884C94.5241 190.239 94.6641 190.724 94.6641 191.34C94.6641 191.816 94.5381 192.264 94.2861 192.684C94.0341 193.104 93.6608 193.445 93.1661 193.706C92.6715 193.967 92.0881 194.098 91.4161 194.098ZM99.6329 194.098C98.9889 194.098 98.4103 193.986 97.8969 193.762C97.3929 193.529 96.9963 193.211 96.7069 192.81C96.4176 192.399 96.2683 191.928 96.2589 191.396H97.6169C97.6636 191.853 97.8503 192.241 98.1769 192.558C98.5129 192.866 98.9983 193.02 99.6329 193.02C100.24 193.02 100.716 192.871 101.061 192.572C101.416 192.264 101.593 191.872 101.593 191.396C101.593 191.023 101.49 190.719 101.285 190.486C101.08 190.253 100.823 190.075 100.515 189.954C100.207 189.833 99.7916 189.702 99.2689 189.562C98.6249 189.394 98.1069 189.226 97.7149 189.058C97.3323 188.89 97.0009 188.629 96.7209 188.274C96.4503 187.91 96.3149 187.425 96.3149 186.818C96.3149 186.286 96.4503 185.815 96.7209 185.404C96.9916 184.993 97.3696 184.676 97.8549 184.452C98.3496 184.228 98.9143 184.116 99.5489 184.116C100.464 184.116 101.21 184.345 101.789 184.802C102.377 185.259 102.708 185.866 102.783 186.622H101.383C101.336 186.249 101.14 185.922 100.795 185.642C100.45 185.353 99.9923 185.208 99.4229 185.208C98.8909 185.208 98.4569 185.348 98.1209 185.628C97.7849 185.899 97.6169 186.281 97.6169 186.776C97.6169 187.131 97.7149 187.42 97.9109 187.644C98.1163 187.868 98.3636 188.041 98.6529 188.162C98.9516 188.274 99.3669 188.405 99.8989 188.554C100.543 188.731 101.061 188.909 101.453 189.086C101.845 189.254 102.181 189.52 102.461 189.884C102.741 190.239 102.881 190.724 102.881 191.34C102.881 191.816 102.755 192.264 102.503 192.684C102.251 193.104 101.878 193.445 101.383 193.706C100.888 193.967 100.305 194.098 99.6329 194.098ZM106.03 184.242V194H104.756V184.242H106.03ZM112.625 194.098C111.72 194.098 110.894 193.888 110.147 193.468C109.4 193.039 108.808 192.446 108.369 191.69C107.94 190.925 107.725 190.066 107.725 189.114C107.725 188.162 107.94 187.308 108.369 186.552C108.808 185.787 109.4 185.194 110.147 184.774C110.894 184.345 111.72 184.13 112.625 184.13C113.54 184.13 114.37 184.345 115.117 184.774C115.864 185.194 116.452 185.782 116.881 186.538C117.31 187.294 117.525 188.153 117.525 189.114C117.525 190.075 117.31 190.934 116.881 191.69C116.452 192.446 115.864 193.039 115.117 193.468C114.37 193.888 113.54 194.098 112.625 194.098ZM112.625 192.992C113.306 192.992 113.918 192.833 114.459 192.516C115.01 192.199 115.439 191.746 115.747 191.158C116.064 190.57 116.223 189.889 116.223 189.114C116.223 188.33 116.064 187.649 115.747 187.07C115.439 186.482 115.014 186.029 114.473 185.712C113.932 185.395 113.316 185.236 112.625 185.236C111.934 185.236 111.318 185.395 110.777 185.712C110.236 186.029 109.806 186.482 109.489 187.07C109.181 187.649 109.027 188.33 109.027 189.114C109.027 189.889 109.181 190.57 109.489 191.158C109.806 191.746 110.236 192.199 110.777 192.516C111.328 192.833 111.944 192.992 112.625 192.992ZM126.879 194H125.605L120.481 186.23V194H119.207V184.228H120.481L125.605 191.984V184.228H126.879V194ZM134.057 184.242V194H132.783V184.242H134.057ZM139.322 194.098C138.678 194.098 138.1 193.986 137.586 193.762C137.082 193.529 136.686 193.211 136.396 192.81C136.107 192.399 135.958 191.928 135.948 191.396H137.306C137.353 191.853 137.54 192.241 137.866 192.558C138.202 192.866 138.688 193.02 139.322 193.02C139.929 193.02 140.405 192.871 140.75 192.572C141.105 192.264 141.282 191.872 141.282 191.396C141.282 191.023 141.18 190.719 140.974 190.486C140.769 190.253 140.512 190.075 140.204 189.954C139.896 189.833 139.481 189.702 138.958 189.562C138.314 189.394 137.796 189.226 137.404 189.058C137.022 188.89 136.69 188.629 136.41 188.274C136.14 187.91 136.004 187.425 136.004 186.818C136.004 186.286 136.14 185.815 136.41 185.404C136.681 184.993 137.059 184.676 137.544 184.452C138.039 184.228 138.604 184.116 139.238 184.116C140.153 184.116 140.9 184.345 141.478 184.802C142.066 185.259 142.398 185.866 142.472 186.622H141.072C141.026 186.249 140.83 185.922 140.484 185.642C140.139 185.353 139.682 185.208 139.112 185.208C138.58 185.208 138.146 185.348 137.81 185.628C137.474 185.899 137.306 186.281 137.306 186.776C137.306 187.131 137.404 187.42 137.6 187.644C137.806 187.868 138.053 188.041 138.342 188.162C138.641 188.274 139.056 188.405 139.588 188.554C140.232 188.731 140.75 188.909 141.142 189.086C141.534 189.254 141.87 189.52 142.15 189.884C142.43 190.239 142.57 190.724 142.57 191.34C142.57 191.816 142.444 192.264 142.192 192.684C141.94 193.104 141.567 193.445 141.072 193.706C140.578 193.967 139.994 194.098 139.322 194.098ZM154.184 184.242V185.278H151.524V194H150.25V185.278H147.576V184.242H154.184ZM163.27 184.242V194H161.996V189.576H157.026V194H155.752V184.242H157.026V188.526H161.996V184.242H163.27ZM171.213 191.83H166.957L166.173 194H164.829L168.357 184.298H169.827L173.341 194H171.997L171.213 191.83ZM170.849 190.794L169.085 185.866L167.321 190.794H170.849ZM180.885 184.242V185.278H178.225V194H176.951V185.278H174.277V184.242H180.885ZM190.609 194.098C189.704 194.098 188.878 193.888 188.131 193.468C187.385 193.039 186.792 192.446 186.353 191.69C185.924 190.925 185.709 190.066 185.709 189.114C185.709 188.162 185.924 187.308 186.353 186.552C186.792 185.787 187.385 185.194 188.131 184.774C188.878 184.345 189.704 184.13 190.609 184.13C191.524 184.13 192.355 184.345 193.101 184.774C193.848 185.194 194.436 185.782 194.865 186.538C195.295 187.294 195.509 188.153 195.509 189.114C195.509 190.075 195.295 190.934 194.865 191.69C194.436 192.446 193.848 193.039 193.101 193.468C192.355 193.888 191.524 194.098 190.609 194.098ZM190.609 192.992C191.291 192.992 191.902 192.833 192.443 192.516C192.994 192.199 193.423 191.746 193.731 191.158C194.049 190.57 194.207 189.889 194.207 189.114C194.207 188.33 194.049 187.649 193.731 187.07C193.423 186.482 192.999 186.029 192.457 185.712C191.916 185.395 191.3 185.236 190.609 185.236C189.919 185.236 189.303 185.395 188.761 185.712C188.22 186.029 187.791 186.482 187.473 187.07C187.165 187.649 187.011 188.33 187.011 189.114C187.011 189.889 187.165 190.57 187.473 191.158C187.791 191.746 188.22 192.199 188.761 192.516C189.312 192.833 189.928 192.992 190.609 192.992ZM204.863 194H203.589L198.465 186.23V194H197.191V184.228H198.465L203.589 191.984V184.228H204.863V194ZM208.309 185.278V188.54H211.865V189.59H208.309V192.95H212.285V194H207.035V184.228H212.285V185.278H208.309ZM220.983 184.242C222.047 184.242 222.967 184.443 223.741 184.844C224.525 185.236 225.123 185.801 225.533 186.538C225.953 187.275 226.163 188.143 226.163 189.142C226.163 190.141 225.953 191.009 225.533 191.746C225.123 192.474 224.525 193.034 223.741 193.426C222.967 193.809 222.047 194 220.983 194H217.945V184.242H220.983ZM220.983 192.95C222.243 192.95 223.205 192.619 223.867 191.956C224.53 191.284 224.861 190.346 224.861 189.142C224.861 187.929 224.525 186.981 223.853 186.3C223.191 185.619 222.234 185.278 220.983 185.278H219.219V192.95H220.983ZM233.612 191.83H229.356L228.572 194H227.228L230.756 184.298H232.226L235.74 194H234.396L233.612 191.83ZM233.248 190.794L231.484 185.866L229.72 190.794H233.248ZM244.109 184.242L240.931 190.318V194H239.657V190.318L236.465 184.242H237.879L240.287 189.184L242.695 184.242H244.109ZM253.609 194.098C252.704 194.098 251.878 193.888 251.131 193.468C250.385 193.039 249.792 192.446 249.353 191.69C248.924 190.925 248.709 190.066 248.709 189.114C248.709 188.162 248.924 187.308 249.353 186.552C249.792 185.787 250.385 185.194 251.131 184.774C251.878 184.345 252.704 184.13 253.609 184.13C254.524 184.13 255.355 184.345 256.101 184.774C256.848 185.194 257.436 185.782 257.865 186.538C258.295 187.294 258.509 188.153 258.509 189.114C258.509 190.075 258.295 190.934 257.865 191.69C257.436 192.446 256.848 193.039 256.101 193.468C255.355 193.888 254.524 194.098 253.609 194.098ZM253.609 192.992C254.291 192.992 254.902 192.833 255.443 192.516C255.994 192.199 256.423 191.746 256.731 191.158C257.049 190.57 257.207 189.889 257.207 189.114C257.207 188.33 257.049 187.649 256.731 187.07C256.423 186.482 255.999 186.029 255.457 185.712C254.916 185.395 254.3 185.236 253.609 185.236C252.919 185.236 252.303 185.395 251.761 185.712C251.22 186.029 250.791 186.482 250.473 187.07C250.165 187.649 250.011 188.33 250.011 189.114C250.011 189.889 250.165 190.57 250.473 191.158C250.791 191.746 251.22 192.199 251.761 192.516C252.312 192.833 252.928 192.992 253.609 192.992ZM267.863 194H266.589L261.465 186.23V194H260.191V184.228H261.465L266.589 191.984V184.228H267.863V194ZM271.309 192.964H274.725V194H270.035V184.242H271.309V192.964ZM277.352 184.242V194H276.078V184.242H277.352ZM287.195 194H285.921L280.797 186.23V194H279.523V184.228H280.797L285.921 191.984V184.228H287.195V194ZM290.641 185.278V188.54H294.197V189.59H290.641V192.95H294.617V194H289.367V184.228H294.617V185.278H290.641ZM37.602 215.114C37.602 214.162 37.8167 213.308 38.246 212.552C38.6753 211.787 39.2587 211.189 39.996 210.76C40.7427 210.331 41.5687 210.116 42.474 210.116C43.538 210.116 44.4667 210.373 45.26 210.886C46.0533 211.399 46.632 212.127 46.996 213.07H45.47C45.1993 212.482 44.8073 212.029 44.294 211.712C43.79 211.395 43.1833 211.236 42.474 211.236C41.7927 211.236 41.1813 211.395 40.64 211.712C40.0987 212.029 39.674 212.482 39.366 213.07C39.058 213.649 38.904 214.33 38.904 215.114C38.904 215.889 39.058 216.57 39.366 217.158C39.674 217.737 40.0987 218.185 40.64 218.502C41.1813 218.819 41.7927 218.978 42.474 218.978C43.1833 218.978 43.79 218.824 44.294 218.516C44.8073 218.199 45.1993 217.746 45.47 217.158H46.996C46.632 218.091 46.0533 218.815 45.26 219.328C44.4667 219.832 43.538 220.084 42.474 220.084C41.5687 220.084 40.7427 219.874 39.996 219.454C39.2587 219.025 38.6753 218.432 38.246 217.676C37.8167 216.92 37.602 216.066 37.602 215.114ZM54.6605 217.83H50.4045L49.6205 220H48.2765L51.8045 210.298H53.2745L56.7885 220H55.4445L54.6605 217.83ZM54.2965 216.794L52.5325 211.866L50.7685 216.794H54.2965ZM61.42 220.098C60.776 220.098 60.1974 219.986 59.684 219.762C59.18 219.529 58.7834 219.211 58.494 218.81C58.2047 218.399 58.0554 217.928 58.046 217.396H59.404C59.4507 217.853 59.6374 218.241 59.964 218.558C60.3 218.866 60.7854 219.02 61.42 219.02C62.0267 219.02 62.5027 218.871 62.848 218.572C63.2027 218.264 63.38 217.872 63.38 217.396C63.38 217.023 63.2774 216.719 63.072 216.486C62.8667 216.253 62.61 216.075 62.302 215.954C61.994 215.833 61.5787 215.702 61.056 215.562C60.412 215.394 59.894 215.226 59.502 215.058C59.1194 214.89 58.788 214.629 58.508 214.274C58.2374 213.91 58.102 213.425 58.102 212.818C58.102 212.286 58.2374 211.815 58.508 211.404C58.7787 210.993 59.1567 210.676 59.642 210.452C60.1367 210.228 60.7014 210.116 61.336 210.116C62.2507 210.116 62.9974 210.345 63.576 210.802C64.164 211.259 64.4954 211.866 64.57 212.622H63.17C63.1234 212.249 62.9274 211.922 62.582 211.642C62.2367 211.353 61.7794 211.208 61.21 211.208C60.678 211.208 60.244 211.348 59.908 211.628C59.572 211.899 59.404 212.281 59.404 212.776C59.404 213.131 59.502 213.42 59.698 213.644C59.9034 213.868 60.1507 214.041 60.44 214.162C60.7387 214.274 61.154 214.405 61.686 214.554C62.33 214.731 62.848 214.909 63.24 215.086C63.632 215.254 63.968 215.52 64.248 215.884C64.528 216.239 64.668 216.724 64.668 217.34C64.668 217.816 64.542 218.264 64.29 218.684C64.038 219.104 63.6647 219.445 63.17 219.706C62.6754 219.967 62.092 220.098 61.42 220.098ZM67.8168 210.242V220H66.5428V210.242H67.8168ZM77.6602 220H76.3862L71.2622 212.23V220H69.9882V210.228H71.2622L76.3862 217.984V210.228H77.6602V220ZM84.2559 220.098C83.3506 220.098 82.5246 219.888 81.7779 219.468C81.0312 219.039 80.4386 218.446 79.9999 217.69C79.5706 216.925 79.3559 216.066 79.3559 215.114C79.3559 214.162 79.5706 213.308 79.9999 212.552C80.4386 211.787 81.0312 211.194 81.7779 210.774C82.5246 210.345 83.3506 210.13 84.2559 210.13C85.1706 210.13 86.0012 210.345 86.7479 210.774C87.4946 211.194 88.0826 211.782 88.5119 212.538C88.9412 213.294 89.1559 214.153 89.1559 215.114C89.1559 216.075 88.9412 216.934 88.5119 217.69C88.0826 218.446 87.4946 219.039 86.7479 219.468C86.0012 219.888 85.1706 220.098 84.2559 220.098ZM84.2559 218.992C84.9372 218.992 85.5486 218.833 86.0899 218.516C86.6406 218.199 87.0699 217.746 87.3779 217.158C87.6952 216.57 87.8539 215.889 87.8539 215.114C87.8539 214.33 87.6952 213.649 87.3779 213.07C87.0699 212.482 86.6452 212.029 86.1039 211.712C85.5626 211.395 84.9466 211.236 84.2559 211.236C83.5652 211.236 82.9492 211.395 82.4079 211.712C81.8666 212.029 81.4372 212.482 81.1199 213.07C80.8119 213.649 80.6579 214.33 80.6579 215.114C80.6579 215.889 80.8119 216.57 81.1199 217.158C81.4372 217.746 81.8666 218.199 82.4079 218.516C82.9586 218.833 83.5746 218.992 84.2559 218.992ZM93.9318 220.098C93.2878 220.098 92.7091 219.986 92.1958 219.762C91.6918 219.529 91.2951 219.211 91.0058 218.81C90.7164 218.399 90.5671 217.928 90.5578 217.396H91.9158C91.9624 217.853 92.1491 218.241 92.4758 218.558C92.8118 218.866 93.2971 219.02 93.9318 219.02C94.5384 219.02 95.0144 218.871 95.3598 218.572C95.7144 218.264 95.8918 217.872 95.8918 217.396C95.8918 217.023 95.7891 216.719 95.5838 216.486C95.3784 216.253 95.1218 216.075 94.8138 215.954C94.5058 215.833 94.0904 215.702 93.5678 215.562C92.9238 215.394 92.4058 215.226 92.0138 215.058C91.6311 214.89 91.2998 214.629 91.0198 214.274C90.7491 213.91 90.6138 213.425 90.6138 212.818C90.6138 212.286 90.7491 211.815 91.0198 211.404C91.2904 210.993 91.6684 210.676 92.1538 210.452C92.6484 210.228 93.2131 210.116 93.8478 210.116C94.7624 210.116 95.5091 210.345 96.0878 210.802C96.6758 211.259 97.0071 211.866 97.0818 212.622H95.6818C95.6351 212.249 95.4391 211.922 95.0938 211.642C94.7484 211.353 94.2911 211.208 93.7218 211.208C93.1898 211.208 92.7558 211.348 92.4198 211.628C92.0838 211.899 91.9158 212.281 91.9158 212.776C91.9158 213.131 92.0138 213.42 92.2098 213.644C92.4151 213.868 92.6624 214.041 92.9518 214.162C93.2504 214.274 93.6658 214.405 94.1978 214.554C94.8418 214.731 95.3598 214.909 95.7518 215.086C96.1438 215.254 96.4798 215.52 96.7598 215.884C97.0398 216.239 97.1798 216.724 97.1798 217.34C97.1798 217.816 97.0538 218.264 96.8018 218.684C96.5498 219.104 96.1764 219.445 95.6818 219.706C95.1871 219.967 94.6038 220.098 93.9318 220.098ZM115.051 210.242L112.223 220H110.795L108.527 212.146L106.175 220L104.761 220.014L102.031 210.242H103.389L105.517 218.516L107.869 210.242H109.297L111.537 218.488L113.679 210.242H115.051ZM117.719 210.242V220H116.445V210.242H117.719ZM121.165 218.964H124.581V220H119.891V210.242H121.165V218.964ZM127.207 218.964H130.623V220H125.933V210.242H127.207V218.964ZM140.847 220L138.523 216.01H136.983V220H135.709V210.242H138.859C139.596 210.242 140.217 210.368 140.721 210.62C141.234 210.872 141.617 211.213 141.869 211.642C142.121 212.071 142.247 212.561 142.247 213.112C142.247 213.784 142.051 214.377 141.659 214.89C141.276 215.403 140.698 215.744 139.923 215.912L142.373 220H140.847ZM136.983 214.988H138.859C139.55 214.988 140.068 214.82 140.413 214.484C140.758 214.139 140.931 213.681 140.931 213.112C140.931 212.533 140.758 212.085 140.413 211.768C140.077 211.451 139.559 211.292 138.859 211.292H136.983V214.988ZM145.472 210.242V216.416C145.472 217.284 145.682 217.928 146.102 218.348C146.532 218.768 147.124 218.978 147.88 218.978C148.627 218.978 149.21 218.768 149.63 218.348C150.06 217.928 150.274 217.284 150.274 216.416V210.242H151.548V216.402C151.548 217.214 151.385 217.9 151.058 218.46C150.732 219.011 150.288 219.421 149.728 219.692C149.178 219.963 148.557 220.098 147.866 220.098C147.176 220.098 146.55 219.963 145.99 219.692C145.44 219.421 145.001 219.011 144.674 218.46C144.357 217.9 144.198 217.214 144.198 216.402V210.242H145.472ZM154.948 218.964H158.364V220H153.674V210.242H154.948V218.964ZM160.991 211.278V214.54H164.547V215.59H160.991V218.95H164.967V220H159.717V210.228H164.967V211.278H160.991ZM176.633 210.242V211.278H173.973V220H172.699V211.278H170.025V210.242H176.633ZM185.719 210.242V220H184.445V215.576H179.475V220H178.201V210.242H179.475V214.526H184.445V210.242H185.719ZM189.168 211.278V214.54H192.724V215.59H189.168V218.95H193.144V220H187.894V210.228H193.144V211.278H189.168ZM211.069 210.242L208.241 220H206.813L204.545 212.146L202.193 220L200.779 220.014L198.049 210.242H199.407L201.535 218.516L203.887 210.242H205.315L207.555 218.488L209.697 210.242H211.069ZM216.887 220.098C215.981 220.098 215.155 219.888 214.409 219.468C213.662 219.039 213.069 218.446 212.631 217.69C212.201 216.925 211.987 216.066 211.987 215.114C211.987 214.162 212.201 213.308 212.631 212.552C213.069 211.787 213.662 211.194 214.409 210.774C215.155 210.345 215.981 210.13 216.887 210.13C217.801 210.13 218.632 210.345 219.379 210.774C220.125 211.194 220.713 211.782 221.143 212.538C221.572 213.294 221.787 214.153 221.787 215.114C221.787 216.075 221.572 216.934 221.143 217.69C220.713 218.446 220.125 219.039 219.379 219.468C218.632 219.888 217.801 220.098 216.887 220.098ZM216.887 218.992C217.568 218.992 218.179 218.833 218.721 218.516C219.271 218.199 219.701 217.746 220.009 217.158C220.326 216.57 220.485 215.889 220.485 215.114C220.485 214.33 220.326 213.649 220.009 213.07C219.701 212.482 219.276 212.029 218.735 211.712C218.193 211.395 217.577 211.236 216.887 211.236C216.196 211.236 215.58 211.395 215.039 211.712C214.497 212.029 214.068 212.482 213.751 213.07C213.443 213.649 213.289 214.33 213.289 215.114C213.289 215.889 213.443 216.57 213.751 217.158C214.068 217.746 214.497 218.199 215.039 218.516C215.589 218.833 216.205 218.992 216.887 218.992ZM228.607 220L226.283 216.01H224.743V220H223.469V210.242H226.619C227.356 210.242 227.977 210.368 228.481 210.62C228.994 210.872 229.377 211.213 229.629 211.642C229.881 212.071 230.007 212.561 230.007 213.112C230.007 213.784 229.811 214.377 229.419 214.89C229.036 215.403 228.457 215.744 227.683 215.912L230.133 220H228.607ZM224.743 214.988H226.619C227.309 214.988 227.827 214.82 228.173 214.484C228.518 214.139 228.691 213.681 228.691 213.112C228.691 212.533 228.518 212.085 228.173 211.768C227.837 211.451 227.319 211.292 226.619 211.292H224.743V214.988ZM233.26 218.964H236.676V220H231.986V210.242H233.26V218.964ZM241.067 210.242C242.131 210.242 243.051 210.443 243.825 210.844C244.609 211.236 245.207 211.801 245.617 212.538C246.037 213.275 246.247 214.143 246.247 215.142C246.247 216.141 246.037 217.009 245.617 217.746C245.207 218.474 244.609 219.034 243.825 219.426C243.051 219.809 242.131 220 241.067 220H238.029V210.242H241.067ZM241.067 218.95C242.327 218.95 243.289 218.619 243.951 217.956C244.614 217.284 244.945 216.346 244.945 215.142C244.945 213.929 244.609 212.981 243.937 212.3C243.275 211.619 242.318 211.278 241.067 211.278H239.303V218.95H241.067ZM257.428 217.83H253.172L252.388 220H251.044L254.572 210.298H256.042L259.556 220H258.212L257.428 217.83ZM257.064 216.794L255.3 211.866L253.536 216.794H257.064ZM268.766 220H267.492L262.368 212.23V220H261.094V210.228H262.368L267.492 217.984V210.228H268.766V220ZM273.975 210.242C275.039 210.242 275.959 210.443 276.733 210.844C277.517 211.236 278.115 211.801 278.525 212.538C278.945 213.275 279.155 214.143 279.155 215.142C279.155 216.141 278.945 217.009 278.525 217.746C278.115 218.474 277.517 219.034 276.733 219.426C275.959 219.809 275.039 220 273.975 220H270.937V210.242H273.975ZM273.975 218.95C275.235 218.95 276.197 218.619 276.859 217.956C277.522 217.284 277.853 216.346 277.853 215.142C277.853 213.929 277.517 212.981 276.845 212.3C276.183 211.619 275.226 211.278 273.975 211.278H272.211V218.95H273.975ZM292.086 210.242V220H290.812V215.576H285.842V220H284.568V210.242H285.842V214.526H290.812V210.242H292.086ZM295.536 210.242V220H294.262V210.242H295.536ZM305.099 213.07C304.828 212.501 304.436 212.062 303.923 211.754C303.41 211.437 302.812 211.278 302.131 211.278C301.45 211.278 300.834 211.437 300.283 211.754C299.742 212.062 299.312 212.51 298.995 213.098C298.687 213.677 298.533 214.349 298.533 215.114C298.533 215.879 298.687 216.551 298.995 217.13C299.312 217.709 299.742 218.157 300.283 218.474C300.834 218.782 301.45 218.936 302.131 218.936C303.083 218.936 303.867 218.651 304.483 218.082C305.099 217.513 305.458 216.743 305.561 215.772H301.669V214.736H306.919V215.716C306.844 216.519 306.592 217.256 306.163 217.928C305.734 218.591 305.169 219.118 304.469 219.51C303.769 219.893 302.99 220.084 302.131 220.084C301.226 220.084 300.4 219.874 299.653 219.454C298.906 219.025 298.314 218.432 297.875 217.676C297.446 216.92 297.231 216.066 297.231 215.114C297.231 214.162 297.446 213.308 297.875 212.552C298.314 211.787 298.906 211.194 299.653 210.774C300.4 210.345 301.226 210.13 302.131 210.13C303.167 210.13 304.082 210.387 304.875 210.9C305.678 211.413 306.261 212.137 306.625 213.07H305.099ZM316.121 210.242V220H314.847V215.576H309.877V220H308.603V210.242H309.877V214.526H314.847V210.242H316.121ZM46.142 236.242L42.46 246H40.99L37.308 236.242H38.666L41.732 244.656L44.798 236.242H46.142ZM51.9629 246.098C51.0576 246.098 50.2316 245.888 49.4849 245.468C48.7383 245.039 48.1456 244.446 47.7069 243.69C47.2776 242.925 47.0629 242.066 47.0629 241.114C47.0629 240.162 47.2776 239.308 47.7069 238.552C48.1456 237.787 48.7383 237.194 49.4849 236.774C50.2316 236.345 51.0576 236.13 51.9629 236.13C52.8776 236.13 53.7083 236.345 54.4549 236.774C55.2016 237.194 55.7896 237.782 56.2189 238.538C56.6483 239.294 56.8629 240.153 56.8629 241.114C56.8629 242.075 56.6483 242.934 56.2189 243.69C55.7896 244.446 55.2016 245.039 54.4549 245.468C53.7083 245.888 52.8776 246.098 51.9629 246.098ZM51.9629 244.992C52.6443 244.992 53.2556 244.833 53.7969 244.516C54.3476 244.199 54.7769 243.746 55.0849 243.158C55.4023 242.57 55.5609 241.889 55.5609 241.114C55.5609 240.33 55.4023 239.649 55.0849 239.07C54.7769 238.482 54.3523 238.029 53.8109 237.712C53.2696 237.395 52.6536 237.236 51.9629 237.236C51.2723 237.236 50.6563 237.395 50.1149 237.712C49.5736 238.029 49.1443 238.482 48.8269 239.07C48.5189 239.649 48.3649 240.33 48.3649 241.114C48.3649 241.889 48.5189 242.57 48.8269 243.158C49.1443 243.746 49.5736 244.199 50.1149 244.516C50.6656 244.833 51.2816 244.992 51.9629 244.992ZM59.8188 244.964H63.2348V246H58.5448V236.242H59.8188V244.964ZM70.5938 236.242V237.278H67.9338V246H66.6598V237.278H63.9858V236.242H70.5938ZM77.93 243.83H73.674L72.89 246H71.546L75.074 236.298H76.544L80.058 246H78.714L77.93 243.83ZM77.566 242.794L75.802 237.866L74.038 242.794H77.566ZM88.9876 239.07C88.7169 238.501 88.3249 238.062 87.8116 237.754C87.2982 237.437 86.7009 237.278 86.0196 237.278C85.3382 237.278 84.7222 237.437 84.1716 237.754C83.6302 238.062 83.2009 238.51 82.8836 239.098C82.5756 239.677 82.4216 240.349 82.4216 241.114C82.4216 241.879 82.5756 242.551 82.8836 243.13C83.2009 243.709 83.6302 244.157 84.1716 244.474C84.7222 244.782 85.3382 244.936 86.0196 244.936C86.9716 244.936 87.7556 244.651 88.3716 244.082C88.9876 243.513 89.3469 242.743 89.4496 241.772H85.5576V240.736H90.8076V241.716C90.7329 242.519 90.4809 243.256 90.0516 243.928C89.6222 244.591 89.0576 245.118 88.3576 245.51C87.6576 245.893 86.8782 246.084 86.0196 246.084C85.1142 246.084 84.2882 245.874 83.5416 245.454C82.7949 245.025 82.2022 244.432 81.7636 243.676C81.3342 242.92 81.1196 242.066 81.1196 241.114C81.1196 240.162 81.3342 239.308 81.7636 238.552C82.2022 237.787 82.7949 237.194 83.5416 236.774C84.2882 236.345 85.1142 236.13 86.0196 236.13C87.0556 236.13 87.9702 236.387 88.7636 236.9C89.5662 237.413 90.1496 238.137 90.5136 239.07H88.9876ZM93.7661 237.278V240.54H97.3221V241.59H93.7661V244.95H97.7421V246H92.4921V236.228H97.7421V237.278H93.7661ZM115.666 236.242L112.838 246H111.41L109.142 238.146L106.79 246L105.376 246.014L102.646 236.242H104.004L106.132 244.516L108.484 236.242H109.912L112.152 244.488L114.294 236.242H115.666ZM118.334 236.242V246H117.06V236.242H118.334ZM121.78 244.964H125.196V246H120.506V236.242H121.78V244.964ZM127.823 244.964H131.239V246H126.549V236.242H127.823V244.964ZM137.598 244.964H141.014V246H136.324V236.242H137.598V244.964ZM143.641 237.278V240.54H147.197V241.59H143.641V244.95H147.617V246H142.367V236.228H147.617V237.278H143.641ZM155.313 243.83H151.057L150.273 246H148.929L152.457 236.298H153.927L157.441 246H156.097L155.313 243.83ZM154.949 242.794L153.185 237.866L151.421 242.794H154.949ZM162.016 236.242C163.08 236.242 164 236.443 164.774 236.844C165.558 237.236 166.156 237.801 166.566 238.538C166.986 239.275 167.196 240.143 167.196 241.142C167.196 242.141 166.986 243.009 166.566 243.746C166.156 244.474 165.558 245.034 164.774 245.426C164 245.809 163.08 246 162.016 246H158.978V236.242H162.016ZM162.016 244.95C163.276 244.95 164.238 244.619 164.9 243.956C165.563 243.284 165.894 242.346 165.894 241.142C165.894 239.929 165.558 238.981 164.886 238.3C164.224 237.619 163.267 237.278 162.016 237.278H160.252V244.95H162.016ZM178.615 236.242V237.278H175.955V246H174.681V237.278H172.007V236.242H178.615ZM187.701 236.242V246H186.427V241.576H181.457V246H180.183V236.242H181.457V240.526H186.427V236.242H187.701ZM191.151 236.242V246H189.877V236.242H191.151ZM196.416 246.098C195.772 246.098 195.193 245.986 194.68 245.762C194.176 245.529 193.779 245.211 193.49 244.81C193.201 244.399 193.051 243.928 193.042 243.396H194.4C194.447 243.853 194.633 244.241 194.96 244.558C195.296 244.866 195.781 245.02 196.416 245.02C197.023 245.02 197.499 244.871 197.844 244.572C198.199 244.264 198.376 243.872 198.376 243.396C198.376 243.023 198.273 242.719 198.068 242.486C197.863 242.253 197.606 242.075 197.298 241.954C196.99 241.833 196.575 241.702 196.052 241.562C195.408 241.394 194.89 241.226 194.498 241.058C194.115 240.89 193.784 240.629 193.504 240.274C193.233 239.91 193.098 239.425 193.098 238.818C193.098 238.286 193.233 237.815 193.504 237.404C193.775 236.993 194.153 236.676 194.638 236.452C195.133 236.228 195.697 236.116 196.332 236.116C197.247 236.116 197.993 236.345 198.572 236.802C199.16 237.259 199.491 237.866 199.566 238.622H198.166C198.119 238.249 197.923 237.922 197.578 237.642C197.233 237.353 196.775 237.208 196.206 237.208C195.674 237.208 195.24 237.348 194.904 237.628C194.568 237.899 194.4 238.281 194.4 238.776C194.4 239.131 194.498 239.42 194.694 239.644C194.899 239.868 195.147 240.041 195.436 240.162C195.735 240.274 196.15 240.405 196.682 240.554C197.326 240.731 197.844 240.909 198.236 241.086C198.628 241.254 198.964 241.52 199.244 241.884C199.524 242.239 199.664 242.724 199.664 243.34C199.664 243.816 199.538 244.264 199.286 244.684C199.034 245.104 198.661 245.445 198.166 245.706C197.671 245.967 197.088 246.098 196.416 246.098ZM211.795 239.098C211.795 239.91 211.515 240.587 210.955 241.128C210.405 241.66 209.56 241.926 208.421 241.926H206.545V246H205.271V236.242H208.421C209.523 236.242 210.358 236.508 210.927 237.04C211.506 237.572 211.795 238.258 211.795 239.098ZM208.421 240.876C209.131 240.876 209.653 240.722 209.989 240.414C210.325 240.106 210.493 239.667 210.493 239.098C210.493 237.894 209.803 237.292 208.421 237.292H206.545V240.876H208.421ZM214.625 236.242V242.416C214.625 243.284 214.835 243.928 215.255 244.348C215.684 244.768 216.277 244.978 217.033 244.978C217.779 244.978 218.363 244.768 218.783 244.348C219.212 243.928 219.427 243.284 219.427 242.416V236.242H220.701V242.402C220.701 243.214 220.537 243.9 220.211 244.46C219.884 245.011 219.441 245.421 218.881 245.692C218.33 245.963 217.709 246.098 217.019 246.098C216.328 246.098 215.703 245.963 215.143 245.692C214.592 245.421 214.153 245.011 213.827 244.46C213.509 243.9 213.351 243.214 213.351 242.402V236.242H214.625ZM227.964 246L225.64 242.01H224.1V246H222.826V236.242H225.976C226.713 236.242 227.334 236.368 227.838 236.62C228.351 236.872 228.734 237.213 228.986 237.642C229.238 238.071 229.364 238.561 229.364 239.112C229.364 239.784 229.168 240.377 228.776 240.89C228.393 241.403 227.815 241.744 227.04 241.912L229.49 246H227.964ZM224.1 240.988H225.976C226.667 240.988 227.185 240.82 227.53 240.484C227.875 240.139 228.048 239.681 228.048 239.112C228.048 238.533 227.875 238.085 227.53 237.768C227.194 237.451 226.676 237.292 225.976 237.292H224.1V240.988ZM238.736 239.07C238.465 238.501 238.073 238.062 237.56 237.754C237.046 237.437 236.449 237.278 235.768 237.278C235.086 237.278 234.47 237.437 233.92 237.754C233.378 238.062 232.949 238.51 232.632 239.098C232.324 239.677 232.17 240.349 232.17 241.114C232.17 241.879 232.324 242.551 232.632 243.13C232.949 243.709 233.378 244.157 233.92 244.474C234.47 244.782 235.086 244.936 235.768 244.936C236.72 244.936 237.504 244.651 238.12 244.082C238.736 243.513 239.095 242.743 239.198 241.772H235.306V240.736H240.556V241.716C240.481 242.519 240.229 243.256 239.8 243.928C239.37 244.591 238.806 245.118 238.106 245.51C237.406 245.893 236.626 246.084 235.768 246.084C234.862 246.084 234.036 245.874 233.29 245.454C232.543 245.025 231.95 244.432 231.512 243.676C231.082 242.92 230.868 242.066 230.868 241.114C230.868 240.162 231.082 239.308 231.512 238.552C231.95 237.787 232.543 237.194 233.29 236.774C234.036 236.345 234.862 236.13 235.768 236.13C236.804 236.13 237.718 236.387 238.512 236.9C239.314 237.413 239.898 238.137 240.262 239.07H238.736ZM243.514 237.278V240.54H247.07V241.59H243.514V244.95H247.49V246H242.24V236.228H247.49V237.278H243.514ZM257.574 246.098C256.669 246.098 255.843 245.888 255.096 245.468C254.35 245.039 253.757 244.446 253.318 243.69C252.889 242.925 252.674 242.066 252.674 241.114C252.674 240.162 252.889 239.308 253.318 238.552C253.757 237.787 254.35 237.194 255.096 236.774C255.843 236.345 256.669 236.13 257.574 236.13C258.489 236.13 259.32 236.345 260.066 236.774C260.813 237.194 261.401 237.782 261.83 238.538C262.26 239.294 262.474 240.153 262.474 241.114C262.474 242.075 262.26 242.934 261.83 243.69C261.401 244.446 260.813 245.039 260.066 245.468C259.32 245.888 258.489 246.098 257.574 246.098ZM257.574 244.992C258.256 244.992 258.867 244.833 259.408 244.516C259.959 244.199 260.388 243.746 260.696 243.158C261.014 242.57 261.172 241.889 261.172 241.114C261.172 240.33 261.014 239.649 260.696 239.07C260.388 238.482 259.964 238.029 259.422 237.712C258.881 237.395 258.265 237.236 257.574 237.236C256.884 237.236 256.268 237.395 255.726 237.712C255.185 238.029 254.756 238.482 254.438 239.07C254.13 239.649 253.976 240.33 253.976 241.114C253.976 241.889 254.13 242.57 254.438 243.158C254.756 243.746 255.185 244.199 255.726 244.516C256.277 244.833 256.893 244.992 257.574 244.992ZM269.672 236.242V237.278H265.43V240.568H268.874V241.604H265.43V246H264.156V236.242H269.672ZM43.846 269.83H39.59L38.806 272H37.462L40.99 262.298H42.46L45.974 272H44.63L43.846 269.83ZM43.482 268.794L41.718 263.866L39.954 268.794H43.482ZM55.1836 272H53.9096L48.7856 264.23V272H47.5116V262.228H48.7856L53.9096 269.984V262.228H55.1836V272ZM64.1873 262.242L61.0093 268.318V272H59.7353V268.318L56.5433 262.242H57.9573L60.3653 267.184L62.7733 262.242H64.1873ZM71.5371 262.242V263.278H68.8771V272H67.6031V263.278H64.9291V262.242H71.5371ZM80.6233 262.242V272H79.3493V267.576H74.3793V272H73.1053V262.242H74.3793V266.526H79.3493V262.242H80.6233ZM84.0727 262.242V272H82.7987V262.242H84.0727ZM93.916 272H92.642L87.518 264.23V272H86.244V262.228H87.518L92.642 269.984V262.228H93.916V272ZM103.48 265.07C103.209 264.501 102.817 264.062 102.304 263.754C101.79 263.437 101.193 263.278 100.512 263.278C99.8304 263.278 99.2144 263.437 98.6638 263.754C98.1224 264.062 97.6931 264.51 97.3758 265.098C97.0678 265.677 96.9138 266.349 96.9138 267.114C96.9138 267.879 97.0678 268.551 97.3758 269.13C97.6931 269.709 98.1224 270.157 98.6638 270.474C99.2144 270.782 99.8304 270.936 100.512 270.936C101.464 270.936 102.248 270.651 102.864 270.082C103.48 269.513 103.839 268.743 103.942 267.772H100.05V266.736H105.3V267.716C105.225 268.519 104.973 269.256 104.544 269.928C104.114 270.591 103.55 271.118 102.85 271.51C102.15 271.893 101.37 272.084 100.512 272.084C99.6064 272.084 98.7804 271.874 98.0338 271.454C97.2871 271.025 96.6944 270.432 96.2558 269.676C95.8264 268.92 95.6118 268.066 95.6118 267.114C95.6118 266.162 95.8264 265.308 96.2558 264.552C96.6944 263.787 97.2871 263.194 98.0338 262.774C98.7804 262.345 99.6064 262.13 100.512 262.13C101.548 262.13 102.462 262.387 103.256 262.9C104.058 263.413 104.642 264.137 105.006 265.07H103.48ZM116.723 262.242V263.278H114.063V272H112.789V263.278H110.115V262.242H116.723ZM125.809 262.242V272H124.535V267.576H119.565V272H118.291V262.242H119.565V266.526H124.535V262.242H125.809ZM133.752 269.83H129.496L128.712 272H127.368L130.896 262.298H132.366L135.88 272H134.536L133.752 269.83ZM133.388 268.794L131.624 263.866L129.86 268.794H133.388ZM143.424 262.242V263.278H140.764V272H139.49V263.278H136.816V262.242H143.424ZM149.998 262.242V272H148.724V262.242H149.998ZM155.264 272.098C154.62 272.098 154.041 271.986 153.528 271.762C153.024 271.529 152.627 271.211 152.338 270.81C152.048 270.399 151.899 269.928 151.89 269.396H153.248C153.294 269.853 153.481 270.241 153.808 270.558C154.144 270.866 154.629 271.02 155.264 271.02C155.87 271.02 156.346 270.871 156.692 270.572C157.046 270.264 157.224 269.872 157.224 269.396C157.224 269.023 157.121 268.719 156.916 268.486C156.71 268.253 156.454 268.075 156.146 267.954C155.838 267.833 155.422 267.702 154.9 267.562C154.256 267.394 153.738 267.226 153.346 267.058C152.963 266.89 152.632 266.629 152.352 266.274C152.081 265.91 151.946 265.425 151.946 264.818C151.946 264.286 152.081 263.815 152.352 263.404C152.622 262.993 153 262.676 153.486 262.452C153.98 262.228 154.545 262.116 155.18 262.116C156.094 262.116 156.841 262.345 157.42 262.802C158.008 263.259 158.339 263.866 158.414 264.622H157.014C156.967 264.249 156.771 263.922 156.426 263.642C156.08 263.353 155.623 263.208 155.054 263.208C154.522 263.208 154.088 263.348 153.752 263.628C153.416 263.899 153.248 264.281 153.248 264.776C153.248 265.131 153.346 265.42 153.542 265.644C153.747 265.868 153.994 266.041 154.284 266.162C154.582 266.274 154.998 266.405 155.53 266.554C156.174 266.731 156.692 266.909 157.084 267.086C157.476 267.254 157.812 267.52 158.092 267.884C158.372 268.239 158.512 268.724 158.512 269.34C158.512 269.816 158.386 270.264 158.134 270.684C157.882 271.104 157.508 271.445 157.014 271.706C156.519 271.967 155.936 272.098 155.264 272.098ZM168.059 272H166.785L161.661 264.23V272H160.387V262.228H161.661L166.785 269.984V262.228H168.059V272ZM176.236 262.242V263.278H173.576V272H172.302V263.278H169.628V262.242H176.236ZM187.305 269.83H183.049L182.265 272H180.921L184.449 262.298H185.919L189.433 272H188.089L187.305 269.83ZM186.941 268.794L185.177 263.866L183.413 268.794H186.941ZM204.601 262.312V272H203.327V264.776L200.107 272H199.211L195.977 264.762V272H194.703V262.312H196.075L199.659 270.32L203.243 262.312H204.601ZM211.186 272.098C210.28 272.098 209.454 271.888 208.708 271.468C207.961 271.039 207.368 270.446 206.93 269.69C206.5 268.925 206.286 268.066 206.286 267.114C206.286 266.162 206.5 265.308 206.93 264.552C207.368 263.787 207.961 263.194 208.708 262.774C209.454 262.345 210.28 262.13 211.186 262.13C212.1 262.13 212.931 262.345 213.678 262.774C214.424 263.194 215.012 263.782 215.442 264.538C215.871 265.294 216.086 266.153 216.086 267.114C216.086 268.075 215.871 268.934 215.442 269.69C215.012 270.446 214.424 271.039 213.678 271.468C212.931 271.888 212.1 272.098 211.186 272.098ZM211.186 270.992C211.867 270.992 212.478 270.833 213.02 270.516C213.57 270.199 214 269.746 214.308 269.158C214.625 268.57 214.784 267.889 214.784 267.114C214.784 266.33 214.625 265.649 214.308 265.07C214 264.482 213.575 264.029 213.034 263.712C212.492 263.395 211.876 263.236 211.186 263.236C210.495 263.236 209.879 263.395 209.338 263.712C208.796 264.029 208.367 264.482 208.05 265.07C207.742 265.649 207.588 266.33 207.588 267.114C207.588 267.889 207.742 268.57 208.05 269.158C208.367 269.746 208.796 270.199 209.338 270.516C209.888 270.833 210.504 270.992 211.186 270.992ZM222.653 266.974C223.008 267.03 223.33 267.175 223.619 267.408C223.918 267.641 224.151 267.931 224.319 268.276C224.497 268.621 224.585 268.99 224.585 269.382C224.585 269.877 224.459 270.325 224.207 270.726C223.955 271.118 223.587 271.431 223.101 271.664C222.625 271.888 222.061 272 221.407 272H217.767V262.242H221.267C221.93 262.242 222.495 262.354 222.961 262.578C223.428 262.793 223.778 263.087 224.011 263.46C224.245 263.833 224.361 264.253 224.361 264.72C224.361 265.299 224.203 265.779 223.885 266.162C223.577 266.535 223.167 266.806 222.653 266.974ZM219.041 266.456H221.183C221.781 266.456 222.243 266.316 222.569 266.036C222.896 265.756 223.059 265.369 223.059 264.874C223.059 264.379 222.896 263.992 222.569 263.712C222.243 263.432 221.771 263.292 221.155 263.292H219.041V266.456ZM221.295 270.95C221.93 270.95 222.425 270.801 222.779 270.502C223.134 270.203 223.311 269.788 223.311 269.256C223.311 268.715 223.125 268.29 222.751 267.982C222.378 267.665 221.879 267.506 221.253 267.506H219.041V270.95H221.295ZM227.627 262.242V272H226.353V262.242H227.627ZM231.073 270.964H234.489V272H229.799V262.242H231.073V270.964ZM237.116 263.278V266.54H240.672V267.59H237.116V270.95H241.092V272H235.842V262.228H241.092V263.278H237.116ZM249.846 272.098C249.202 272.098 248.623 271.986 248.11 271.762C247.606 271.529 247.209 271.211 246.92 270.81C246.63 270.399 246.481 269.928 246.472 269.396H247.83C247.876 269.853 248.063 270.241 248.39 270.558C248.726 270.866 249.211 271.02 249.846 271.02C250.452 271.02 250.928 270.871 251.274 270.572C251.628 270.264 251.806 269.872 251.806 269.396C251.806 269.023 251.703 268.719 251.498 268.486C251.292 268.253 251.036 268.075 250.728 267.954C250.42 267.833 250.004 267.702 249.482 267.562C248.838 267.394 248.32 267.226 247.928 267.058C247.545 266.89 247.214 266.629 246.934 266.274C246.663 265.91 246.528 265.425 246.528 264.818C246.528 264.286 246.663 263.815 246.934 263.404C247.204 262.993 247.582 262.676 248.068 262.452C248.562 262.228 249.127 262.116 249.762 262.116C250.676 262.116 251.423 262.345 252.002 262.802C252.59 263.259 252.921 263.866 252.996 264.622H251.596C251.549 264.249 251.353 263.922 251.008 263.642C250.662 263.353 250.205 263.208 249.636 263.208C249.104 263.208 248.67 263.348 248.334 263.628C247.998 263.899 247.83 264.281 247.83 264.776C247.83 265.131 247.928 265.42 248.124 265.644C248.329 265.868 248.576 266.041 248.866 266.162C249.164 266.274 249.58 266.405 250.112 266.554C250.756 266.731 251.274 266.909 251.666 267.086C252.058 267.254 252.394 267.52 252.674 267.884C252.954 268.239 253.094 268.724 253.094 269.34C253.094 269.816 252.968 270.264 252.716 270.684C252.464 271.104 252.09 271.445 251.596 271.706C251.101 271.967 250.518 272.098 249.846 272.098ZM256.243 270.964H259.659V272H254.969V262.242H256.243V270.964ZM265.436 272.098C264.53 272.098 263.704 271.888 262.958 271.468C262.211 271.039 261.618 270.446 261.18 269.69C260.75 268.925 260.536 268.066 260.536 267.114C260.536 266.162 260.75 265.308 261.18 264.552C261.618 263.787 262.211 263.194 262.958 262.774C263.704 262.345 264.53 262.13 265.436 262.13C266.35 262.13 267.181 262.345 267.928 262.774C268.674 263.194 269.262 263.782 269.692 264.538C270.121 265.294 270.336 266.153 270.336 267.114C270.336 268.075 270.121 268.934 269.692 269.69C269.262 270.446 268.674 271.039 267.928 271.468C267.181 271.888 266.35 272.098 265.436 272.098ZM265.436 270.992C266.117 270.992 266.728 270.833 267.27 270.516C267.82 270.199 268.25 269.746 268.558 269.158C268.875 268.57 269.034 267.889 269.034 267.114C269.034 266.33 268.875 265.649 268.558 265.07C268.25 264.482 267.825 264.029 267.284 263.712C266.742 263.395 266.126 263.236 265.436 263.236C264.745 263.236 264.129 263.395 263.588 263.712C263.046 264.029 262.617 264.482 262.3 265.07C261.992 265.649 261.838 266.33 261.838 267.114C261.838 267.889 261.992 268.57 262.3 269.158C262.617 269.746 263.046 270.199 263.588 270.516C264.138 270.833 264.754 270.992 265.436 270.992ZM278.023 262.242V263.278H275.363V272H274.089V263.278H271.415V262.242H278.023ZM282.686 272.098C282.042 272.098 281.463 271.986 280.95 271.762C280.446 271.529 280.049 271.211 279.76 270.81C279.47 270.399 279.321 269.928 279.312 269.396H280.67C280.716 269.853 280.903 270.241 281.23 270.558C281.566 270.866 282.051 271.02 282.686 271.02C283.292 271.02 283.768 270.871 284.114 270.572C284.468 270.264 284.646 269.872 284.646 269.396C284.646 269.023 284.543 268.719 284.338 268.486C284.132 268.253 283.876 268.075 283.568 267.954C283.26 267.833 282.844 267.702 282.322 267.562C281.678 267.394 281.16 267.226 280.768 267.058C280.385 266.89 280.054 266.629 279.774 266.274C279.503 265.91 279.368 265.425 279.368 264.818C279.368 264.286 279.503 263.815 279.774 263.404C280.044 262.993 280.422 262.676 280.908 262.452C281.402 262.228 281.967 262.116 282.602 262.116C283.516 262.116 284.263 262.345 284.842 262.802C285.43 263.259 285.761 263.866 285.836 264.622H284.436C284.389 264.249 284.193 263.922 283.848 263.642C283.502 263.353 283.045 263.208 282.476 263.208C281.944 263.208 281.51 263.348 281.174 263.628C280.838 263.899 280.67 264.281 280.67 264.776C280.67 265.131 280.768 265.42 280.964 265.644C281.169 265.868 281.416 266.041 281.706 266.162C282.004 266.274 282.42 266.405 282.952 266.554C283.596 266.731 284.114 266.909 284.506 267.086C284.898 267.254 285.234 267.52 285.514 267.884C285.794 268.239 285.934 268.724 285.934 269.34C285.934 269.816 285.808 270.264 285.556 270.684C285.304 271.104 284.93 271.445 284.436 271.706C283.941 271.967 283.358 272.098 282.686 272.098ZM298.933 265.07C298.662 264.501 298.27 264.062 297.757 263.754C297.244 263.437 296.646 263.278 295.965 263.278C295.284 263.278 294.668 263.437 294.117 263.754C293.576 264.062 293.146 264.51 292.829 265.098C292.521 265.677 292.367 266.349 292.367 267.114C292.367 267.879 292.521 268.551 292.829 269.13C293.146 269.709 293.576 270.157 294.117 270.474C294.668 270.782 295.284 270.936 295.965 270.936C296.917 270.936 297.701 270.651 298.317 270.082C298.933 269.513 299.292 268.743 299.395 267.772H295.503V266.736H300.753V267.716C300.678 268.519 300.426 269.256 299.997 269.928C299.568 270.591 299.003 271.118 298.303 271.51C297.603 271.893 296.824 272.084 295.965 272.084C295.06 272.084 294.234 271.874 293.487 271.454C292.74 271.025 292.148 270.432 291.709 269.676C291.28 268.92 291.065 268.066 291.065 267.114C291.065 266.162 291.28 265.308 291.709 264.552C292.148 263.787 292.74 263.194 293.487 262.774C294.234 262.345 295.06 262.13 295.965 262.13C297.001 262.13 297.916 262.387 298.709 262.9C299.512 263.413 300.095 264.137 300.459 265.07H298.933ZM308.205 269.83H303.949L303.165 272H301.821L305.349 262.298H306.819L310.333 272H308.989L308.205 269.83ZM307.841 268.794L306.077 263.866L304.313 268.794H307.841ZM321.769 262.312V272H320.495V264.776L317.275 272H316.379L313.145 264.762V272H311.871V262.312H313.243L316.827 270.32L320.411 262.312H321.769ZM325.204 263.278V266.54H328.76V267.59H325.204V270.95H329.18V272H323.93V262.228H329.18V263.278H325.204ZM331.513 272.084C331.271 272.084 331.065 272 330.897 271.832C330.729 271.664 330.645 271.459 330.645 271.216C330.645 270.973 330.729 270.768 330.897 270.6C331.065 270.432 331.271 270.348 331.513 270.348C331.747 270.348 331.943 270.432 332.101 270.6C332.269 270.768 332.353 270.973 332.353 271.216C332.353 271.459 332.269 271.664 332.101 271.832C331.943 272 331.747 272.084 331.513 272.084Z" fill="white"/>
<path d="M44.86 148.14C43.5533 148.14 42.3533 147.833 41.26 147.22C40.1667 146.607 39.3 145.76 38.66 144.68C38.02 143.587 37.7 142.353 37.7 140.98C37.7 139.62 38.02 138.4 38.66 137.32C39.3 136.227 40.1667 135.373 41.26 134.76C42.3533 134.147 43.5533 133.84 44.86 133.84C46.18 133.84 47.38 134.147 48.46 134.76C49.5533 135.373 50.4133 136.227 51.04 137.32C51.68 138.4 52 139.62 52 140.98C52 142.353 51.68 143.587 51.04 144.68C50.4133 145.76 49.5533 146.607 48.46 147.22C47.3667 147.833 46.1667 148.14 44.86 148.14ZM44.86 145.64C45.7 145.64 46.44 145.453 47.08 145.08C47.72 144.693 48.22 144.147 48.58 143.44C48.94 142.733 49.12 141.913 49.12 140.98C49.12 140.047 48.94 139.233 48.58 138.54C48.22 137.833 47.72 137.293 47.08 136.92C46.44 136.547 45.7 136.36 44.86 136.36C44.02 136.36 43.2733 136.547 42.62 136.92C41.98 137.293 41.48 137.833 41.12 138.54C40.76 139.233 40.58 140.047 40.58 140.98C40.58 141.913 40.76 142.733 41.12 143.44C41.48 144.147 41.98 144.693 42.62 145.08C43.2733 145.453 44.02 145.64 44.86 145.64ZM56.8431 134.04V142.68C56.8431 143.627 57.0898 144.353 57.5831 144.86C58.0765 145.353 58.7698 145.6 59.6631 145.6C60.5698 145.6 61.2698 145.353 61.7631 144.86C62.2565 144.353 62.5031 143.627 62.5031 142.68V134.04H65.3231V142.66C65.3231 143.847 65.0631 144.853 64.5431 145.68C64.0365 146.493 63.3498 147.107 62.4831 147.52C61.6298 147.933 60.6765 148.14 59.6231 148.14C58.5831 148.14 57.6365 147.933 56.7831 147.52C55.9431 147.107 55.2765 146.493 54.7831 145.68C54.2898 144.853 54.0431 143.847 54.0431 142.66V134.04H56.8431ZM75.2284 148L72.1484 142.56H70.8284V148H68.0284V134.04H73.2684C74.3484 134.04 75.2684 134.233 76.0284 134.62C76.7884 134.993 77.3551 135.507 77.7284 136.16C78.1151 136.8 78.3084 137.52 78.3084 138.32C78.3084 139.24 78.0418 140.073 77.5084 140.82C76.9751 141.553 76.1818 142.06 75.1284 142.34L78.4684 148H75.2284ZM70.8284 140.46H73.1684C73.9284 140.46 74.4951 140.28 74.8684 139.92C75.2418 139.547 75.4284 139.033 75.4284 138.38C75.4284 137.74 75.2418 137.247 74.8684 136.9C74.4951 136.54 73.9284 136.36 73.1684 136.36H70.8284V140.46ZM95.7866 138.36C95.7866 139.107 95.6066 139.807 95.2466 140.46C94.8999 141.113 94.3466 141.64 93.5866 142.04C92.8399 142.44 91.8932 142.64 90.7466 142.64H88.4066V148H85.6066V134.04H90.7466C91.8266 134.04 92.7466 134.227 93.5066 134.6C94.2666 134.973 94.8332 135.487 95.2066 136.14C95.5932 136.793 95.7866 137.533 95.7866 138.36ZM90.6266 140.38C91.3999 140.38 91.9732 140.207 92.3466 139.86C92.7199 139.5 92.9066 139 92.9066 138.36C92.9066 137 92.1466 136.32 90.6266 136.32H88.4066V140.38H90.6266ZM106.335 145.34H100.775L99.8545 148H96.9145L101.935 134.02H105.195L110.215 148H107.255L106.335 145.34ZM105.575 143.1L103.555 137.26L101.535 143.1H105.575ZM116.911 148.14C115.938 148.14 115.058 147.973 114.271 147.64C113.498 147.307 112.884 146.827 112.431 146.2C111.978 145.573 111.744 144.833 111.731 143.98H114.731C114.771 144.553 114.971 145.007 115.331 145.34C115.704 145.673 116.211 145.84 116.851 145.84C117.504 145.84 118.018 145.687 118.391 145.38C118.764 145.06 118.951 144.647 118.951 144.14C118.951 143.727 118.824 143.387 118.571 143.12C118.318 142.853 117.998 142.647 117.611 142.5C117.238 142.34 116.718 142.167 116.051 141.98C115.144 141.713 114.404 141.453 113.831 141.2C113.271 140.933 112.784 140.54 112.371 140.02C111.971 139.487 111.771 138.78 111.771 137.9C111.771 137.073 111.978 136.353 112.391 135.74C112.804 135.127 113.384 134.66 114.131 134.34C114.878 134.007 115.731 133.84 116.691 133.84C118.131 133.84 119.298 134.193 120.191 134.9C121.098 135.593 121.598 136.567 121.691 137.82H118.611C118.584 137.34 118.378 136.947 117.991 136.64C117.618 136.32 117.118 136.16 116.491 136.16C115.944 136.16 115.504 136.3 115.171 136.58C114.851 136.86 114.691 137.267 114.691 137.8C114.691 138.173 114.811 138.487 115.051 138.74C115.304 138.98 115.611 139.18 115.971 139.34C116.344 139.487 116.864 139.66 117.531 139.86C118.438 140.127 119.178 140.393 119.751 140.66C120.324 140.927 120.818 141.327 121.231 141.86C121.644 142.393 121.851 143.093 121.851 143.96C121.851 144.707 121.658 145.4 121.271 146.04C120.884 146.68 120.318 147.193 119.571 147.58C118.824 147.953 117.938 148.14 116.911 148.14ZM129.098 148.14C128.125 148.14 127.245 147.973 126.458 147.64C125.685 147.307 125.072 146.827 124.618 146.2C124.165 145.573 123.932 144.833 123.918 143.98H126.918C126.958 144.553 127.158 145.007 127.518 145.34C127.892 145.673 128.398 145.84 129.038 145.84C129.692 145.84 130.205 145.687 130.578 145.38C130.952 145.06 131.138 144.647 131.138 144.14C131.138 143.727 131.012 143.387 130.758 143.12C130.505 142.853 130.185 142.647 129.798 142.5C129.425 142.34 128.905 142.167 128.238 141.98C127.332 141.713 126.592 141.453 126.018 141.2C125.458 140.933 124.972 140.54 124.558 140.02C124.158 139.487 123.958 138.78 123.958 137.9C123.958 137.073 124.165 136.353 124.578 135.74C124.992 135.127 125.572 134.66 126.318 134.34C127.065 134.007 127.918 133.84 128.878 133.84C130.318 133.84 131.485 134.193 132.378 134.9C133.285 135.593 133.785 136.567 133.878 137.82H130.798C130.772 137.34 130.565 136.947 130.178 136.64C129.805 136.32 129.305 136.16 128.678 136.16C128.132 136.16 127.692 136.3 127.358 136.58C127.038 136.86 126.878 137.267 126.878 137.8C126.878 138.173 126.998 138.487 127.238 138.74C127.492 138.98 127.798 139.18 128.158 139.34C128.532 139.487 129.052 139.66 129.718 139.86C130.625 140.127 131.365 140.393 131.938 140.66C132.512 140.927 133.005 141.327 133.418 141.86C133.832 142.393 134.038 143.093 134.038 143.96C134.038 144.707 133.845 145.4 133.458 146.04C133.072 146.68 132.505 147.193 131.758 147.58C131.012 147.953 130.125 148.14 129.098 148.14ZM139.266 134.04V148H136.466V134.04H139.266ZM148.512 148.14C147.206 148.14 146.006 147.833 144.912 147.22C143.819 146.607 142.952 145.76 142.312 144.68C141.672 143.587 141.352 142.353 141.352 140.98C141.352 139.62 141.672 138.4 142.312 137.32C142.952 136.227 143.819 135.373 144.912 134.76C146.006 134.147 147.206 133.84 148.512 133.84C149.832 133.84 151.032 134.147 152.112 134.76C153.206 135.373 154.066 136.227 154.692 137.32C155.332 138.4 155.652 139.62 155.652 140.98C155.652 142.353 155.332 143.587 154.692 144.68C154.066 145.76 153.206 146.607 152.112 147.22C151.019 147.833 149.819 148.14 148.512 148.14ZM148.512 145.64C149.352 145.64 150.092 145.453 150.732 145.08C151.372 144.693 151.872 144.147 152.232 143.44C152.592 142.733 152.772 141.913 152.772 140.98C152.772 140.047 152.592 139.233 152.232 138.54C151.872 137.833 151.372 137.293 150.732 136.92C150.092 136.547 149.352 136.36 148.512 136.36C147.672 136.36 146.926 136.547 146.272 136.92C145.632 137.293 145.132 137.833 144.772 138.54C144.412 139.233 144.232 140.047 144.232 140.98C144.232 141.913 144.412 142.733 144.772 143.44C145.132 144.147 145.632 144.693 146.272 145.08C146.926 145.453 147.672 145.64 148.512 145.64ZM169.675 148H166.875L160.535 138.42V148H157.735V134.02H160.535L166.875 143.62V134.02H169.675V148Z" fill="white"/>
<rect x="37" y="64" width="140" height="39" rx="8" fill="#00DC8D" fill-opacity="0.11"/>
<path d="M68.602 82.098C68.602 82.91 68.322 83.5867 67.762 84.128C67.2113 84.66 66.3667 84.926 65.228 84.926H63.352V89H62.078V79.242H65.228C66.3293 79.242 67.1647 79.508 67.734 80.04C68.3127 80.572 68.602 81.258 68.602 82.098ZM65.228 83.876C65.9373 83.876 66.46 83.722 66.796 83.414C67.132 83.106 67.3 82.6673 67.3 82.098C67.3 80.894 66.6093 80.292 65.228 80.292H63.352V83.876H65.228ZM75.9534 86.83H71.6974L70.9134 89H69.5694L73.0974 79.298H74.5674L78.0814 89H76.7374L75.9534 86.83ZM75.5894 85.794L73.8254 80.866L72.0614 85.794H75.5894ZM82.713 89.098C82.069 89.098 81.4903 88.986 80.977 88.762C80.473 88.5287 80.0763 88.2113 79.787 87.81C79.4977 87.3993 79.3483 86.928 79.339 86.396H80.697C80.7437 86.8533 80.9303 87.2407 81.257 87.558C81.593 87.866 82.0783 88.02 82.713 88.02C83.3197 88.02 83.7957 87.8707 84.141 87.572C84.4957 87.264 84.673 86.872 84.673 86.396C84.673 86.0227 84.5703 85.7193 84.365 85.486C84.1597 85.2527 83.903 85.0753 83.595 84.954C83.287 84.8327 82.8717 84.702 82.349 84.562C81.705 84.394 81.187 84.226 80.795 84.058C80.4123 83.89 80.081 83.6287 79.801 83.274C79.5303 82.91 79.395 82.4247 79.395 81.818C79.395 81.286 79.5303 80.8147 79.801 80.404C80.0717 79.9933 80.4497 79.676 80.935 79.452C81.4297 79.228 81.9943 79.116 82.629 79.116C83.5437 79.116 84.2903 79.3447 84.869 79.802C85.457 80.2593 85.7883 80.866 85.863 81.622H84.463C84.4163 81.2487 84.2203 80.922 83.875 80.642C83.5297 80.3527 83.0723 80.208 82.503 80.208C81.971 80.208 81.537 80.348 81.201 80.628C80.865 80.8987 80.697 81.2813 80.697 81.776C80.697 82.1307 80.795 82.42 80.991 82.644C81.1963 82.868 81.4437 83.0407 81.733 83.162C82.0317 83.274 82.447 83.4047 82.979 83.554C83.623 83.7313 84.141 83.9087 84.533 84.086C84.925 84.254 85.261 84.52 85.541 84.884C85.821 85.2387 85.961 85.724 85.961 86.34C85.961 86.816 85.835 87.264 85.583 87.684C85.331 88.104 84.9577 88.4447 84.463 88.706C83.9683 88.9673 83.385 89.098 82.713 89.098ZM90.9298 89.098C90.2858 89.098 89.7071 88.986 89.1938 88.762C88.6898 88.5287 88.2931 88.2113 88.0038 87.81C87.7145 87.3993 87.5651 86.928 87.5558 86.396H88.9138C88.9605 86.8533 89.1471 87.2407 89.4738 87.558C89.8098 87.866 90.2951 88.02 90.9298 88.02C91.5365 88.02 92.0125 87.8707 92.3578 87.572C92.7125 87.264 92.8898 86.872 92.8898 86.396C92.8898 86.0227 92.7871 85.7193 92.5818 85.486C92.3765 85.2527 92.1198 85.0753 91.8118 84.954C91.5038 84.8327 91.0885 84.702 90.5658 84.562C89.9218 84.394 89.4038 84.226 89.0118 84.058C88.6291 83.89 88.2978 83.6287 88.0178 83.274C87.7471 82.91 87.6118 82.4247 87.6118 81.818C87.6118 81.286 87.7471 80.8147 88.0178 80.404C88.2885 79.9933 88.6665 79.676 89.1518 79.452C89.6465 79.228 90.2111 79.116 90.8458 79.116C91.7605 79.116 92.5071 79.3447 93.0858 79.802C93.6738 80.2593 94.0051 80.866 94.0798 81.622H92.6798C92.6331 81.2487 92.4371 80.922 92.0918 80.642C91.7465 80.3527 91.2891 80.208 90.7198 80.208C90.1878 80.208 89.7538 80.348 89.4178 80.628C89.0818 80.8987 88.9138 81.2813 88.9138 81.776C88.9138 82.1307 89.0118 82.42 89.2078 82.644C89.4131 82.868 89.6605 83.0407 89.9498 83.162C90.2485 83.274 90.6638 83.4047 91.1958 83.554C91.8398 83.7313 92.3578 83.9087 92.7498 84.086C93.1418 84.254 93.4778 84.52 93.7578 84.884C94.0378 85.2387 94.1778 85.724 94.1778 86.34C94.1778 86.816 94.0518 87.264 93.7998 87.684C93.5478 88.104 93.1745 88.4447 92.6798 88.706C92.1851 88.9673 91.6018 89.098 90.9298 89.098ZM97.3266 79.242V89H96.0526V79.242H97.3266ZM103.922 89.098C103.017 89.098 102.191 88.888 101.444 88.468C100.697 88.0387 100.105 87.446 99.6659 86.69C99.2366 85.9247 99.0219 85.066 99.0219 84.114C99.0219 83.162 99.2366 82.308 99.6659 81.552C100.105 80.7867 100.697 80.194 101.444 79.774C102.191 79.3447 103.017 79.13 103.922 79.13C104.837 79.13 105.667 79.3447 106.414 79.774C107.161 80.194 107.749 80.782 108.178 81.538C108.607 82.294 108.822 83.1527 108.822 84.114C108.822 85.0753 108.607 85.934 108.178 86.69C107.749 87.446 107.161 88.0387 106.414 88.468C105.667 88.888 104.837 89.098 103.922 89.098ZM103.922 87.992C104.603 87.992 105.215 87.8333 105.756 87.516C106.307 87.1987 106.736 86.746 107.044 86.158C107.361 85.57 107.52 84.8887 107.52 84.114C107.52 83.33 107.361 82.6487 107.044 82.07C106.736 81.482 106.311 81.0293 105.77 80.712C105.229 80.3947 104.613 80.236 103.922 80.236C103.231 80.236 102.615 80.3947 102.074 80.712C101.533 81.0293 101.103 81.482 100.786 82.07C100.478 82.6487 100.324 83.33 100.324 84.114C100.324 84.8887 100.478 85.57 100.786 86.158C101.103 86.746 101.533 87.1987 102.074 87.516C102.625 87.8333 103.241 87.992 103.922 87.992ZM118.176 89H116.902L111.778 81.23V89H110.504V79.228H111.778L116.902 86.984V79.228H118.176V89Z" fill="white"/>
</svg>
