<svg width="566" height="536" viewBox="0 0 566 536" fill="none" xmlns="http://www.w3.org/2000/svg">
<g filter="url(#filter0_d_1_512)">
<rect x="94" y="90" width="378" height="348" rx="20" fill="#1C140F"/>
</g>
<path d="M139.596 274.242V284H138.322V279.576H133.352V284H132.078V274.242H133.352V278.526H138.322V274.242H139.596ZM143.045 275.278V278.54H146.601V279.59H143.045V282.95H147.021V284H141.771V274.228H147.021V275.278H143.045ZM154.087 284L151.763 280.01H150.223V284H148.949V274.242H152.099C152.836 274.242 153.457 274.368 153.961 274.62C154.474 274.872 154.857 275.213 155.109 275.642C155.361 276.071 155.487 276.561 155.487 277.112C155.487 277.784 155.291 278.377 154.899 278.89C154.516 279.403 153.938 279.744 153.163 279.912L155.613 284H154.087ZM150.223 278.988H152.099C152.79 278.988 153.308 278.82 153.653 278.484C153.998 278.139 154.171 277.681 154.171 277.112C154.171 276.533 153.998 276.085 153.653 275.768C153.317 275.451 152.799 275.292 152.099 275.292H150.223V278.988ZM158.741 275.278V278.54H162.297V279.59H158.741V282.95H162.717V284H157.467V274.228H162.717V275.278H158.741ZM174.145 281.83H169.889L169.105 284H167.761L171.289 274.298H172.759L176.273 284H174.929L174.145 281.83ZM173.781 280.794L172.017 275.866L170.253 280.794H173.781ZM183.816 274.242V275.278H181.156V284H179.882V275.278H177.208V274.242H183.816ZM196.635 274.242V284H195.361V279.576H190.391V284H189.117V274.242H190.391V278.526H195.361V274.242H196.635ZM200.084 274.242V284H198.81V274.242H200.084ZM209.648 277.07C209.377 276.501 208.985 276.062 208.472 275.754C207.958 275.437 207.361 275.278 206.68 275.278C205.998 275.278 205.382 275.437 204.832 275.754C204.29 276.062 203.861 276.51 203.544 277.098C203.236 277.677 203.082 278.349 203.082 279.114C203.082 279.879 203.236 280.551 203.544 281.13C203.861 281.709 204.29 282.157 204.832 282.474C205.382 282.782 205.998 282.936 206.68 282.936C207.632 282.936 208.416 282.651 209.032 282.082C209.648 281.513 210.007 280.743 210.11 279.772H206.218V278.736H211.468V279.716C211.393 280.519 211.141 281.256 210.712 281.928C210.282 282.591 209.718 283.118 209.018 283.51C208.318 283.893 207.538 284.084 206.68 284.084C205.774 284.084 204.948 283.874 204.202 283.454C203.455 283.025 202.862 282.432 202.424 281.676C201.994 280.92 201.78 280.066 201.78 279.114C201.78 278.162 201.994 277.308 202.424 276.552C202.862 275.787 203.455 275.194 204.202 274.774C204.948 274.345 205.774 274.13 206.68 274.13C207.716 274.13 208.63 274.387 209.424 274.9C210.226 275.413 210.81 276.137 211.174 277.07H209.648ZM220.67 274.242V284H219.396V279.576H214.426V284H213.152V274.242H214.426V278.526H219.396V274.242H220.67ZM234.642 274.242L230.96 284H229.49L225.808 274.242H227.166L230.232 282.656L233.298 274.242H234.642ZM240.463 284.098C239.558 284.098 238.732 283.888 237.985 283.468C237.238 283.039 236.646 282.446 236.207 281.69C235.778 280.925 235.563 280.066 235.563 279.114C235.563 278.162 235.778 277.308 236.207 276.552C236.646 275.787 237.238 275.194 237.985 274.774C238.732 274.345 239.558 274.13 240.463 274.13C241.378 274.13 242.208 274.345 242.955 274.774C243.702 275.194 244.29 275.782 244.719 276.538C245.148 277.294 245.363 278.153 245.363 279.114C245.363 280.075 245.148 280.934 244.719 281.69C244.29 282.446 243.702 283.039 242.955 283.468C242.208 283.888 241.378 284.098 240.463 284.098ZM240.463 282.992C241.144 282.992 241.756 282.833 242.297 282.516C242.848 282.199 243.277 281.746 243.585 281.158C243.902 280.57 244.061 279.889 244.061 279.114C244.061 278.33 243.902 277.649 243.585 277.07C243.277 276.482 242.852 276.029 242.311 275.712C241.77 275.395 241.154 275.236 240.463 275.236C239.772 275.236 239.156 275.395 238.615 275.712C238.074 276.029 237.644 276.482 237.327 277.07C237.019 277.649 236.865 278.33 236.865 279.114C236.865 279.889 237.019 280.57 237.327 281.158C237.644 281.746 238.074 282.199 238.615 282.516C239.166 282.833 239.782 282.992 240.463 282.992ZM248.319 282.964H251.735V284H247.045V274.242H248.319V282.964ZM259.094 274.242V275.278H256.434V284H255.16V275.278H252.486V274.242H259.094ZM266.43 281.83H262.174L261.39 284H260.046L263.574 274.298H265.044L268.558 284H267.214L266.43 281.83ZM266.066 280.794L264.302 275.866L262.538 280.794H266.066ZM277.488 277.07C277.217 276.501 276.825 276.062 276.312 275.754C275.798 275.437 275.201 275.278 274.52 275.278C273.838 275.278 273.222 275.437 272.672 275.754C272.13 276.062 271.701 276.51 271.384 277.098C271.076 277.677 270.922 278.349 270.922 279.114C270.922 279.879 271.076 280.551 271.384 281.13C271.701 281.709 272.13 282.157 272.672 282.474C273.222 282.782 273.838 282.936 274.52 282.936C275.472 282.936 276.256 282.651 276.872 282.082C277.488 281.513 277.847 280.743 277.95 279.772H274.058V278.736H279.308V279.716C279.233 280.519 278.981 281.256 278.552 281.928C278.122 282.591 277.558 283.118 276.858 283.51C276.158 283.893 275.378 284.084 274.52 284.084C273.614 284.084 272.788 283.874 272.042 283.454C271.295 283.025 270.702 282.432 270.264 281.676C269.834 280.92 269.62 280.066 269.62 279.114C269.62 278.162 269.834 277.308 270.264 276.552C270.702 275.787 271.295 275.194 272.042 274.774C272.788 274.345 273.614 274.13 274.52 274.13C275.556 274.13 276.47 274.387 277.264 274.9C278.066 275.413 278.65 276.137 279.014 277.07H277.488ZM282.266 275.278V278.54H285.822V279.59H282.266V282.95H286.242V284H280.992V274.228H286.242V275.278H282.266ZM301.8 274.312V284H300.526V276.776L297.306 284H296.41L293.176 276.762V284H291.902V274.312H293.274L296.858 282.32L300.442 274.312H301.8ZM305.235 282.964H308.651V284H303.961V274.242H305.235V282.964ZM316.01 274.242V275.278H313.35V284H312.076V275.278H309.402V274.242H316.01ZM333.574 274.242L330.746 284H329.318L327.05 276.146L324.698 284L323.284 284.014L320.554 274.242H321.912L324.04 282.516L326.392 274.242H327.82L330.06 282.488L332.202 274.242H333.574ZM336.243 275.278V278.54H339.799V279.59H336.243V282.95H340.219V284H334.969V274.228H340.219V275.278H336.243ZM350.303 284.098C349.397 284.098 348.571 283.888 347.825 283.468C347.078 283.039 346.485 282.446 346.047 281.69C345.617 280.925 345.403 280.066 345.403 279.114C345.403 278.162 345.617 277.308 346.047 276.552C346.485 275.787 347.078 275.194 347.825 274.774C348.571 274.345 349.397 274.13 350.303 274.13C351.217 274.13 352.048 274.345 352.795 274.774C353.541 275.194 354.129 275.782 354.559 276.538C354.988 277.294 355.203 278.153 355.203 279.114C355.203 280.075 354.988 280.934 354.559 281.69C354.129 282.446 353.541 283.039 352.795 283.468C352.048 283.888 351.217 284.098 350.303 284.098ZM350.303 282.992C350.984 282.992 351.595 282.833 352.137 282.516C352.687 282.199 353.117 281.746 353.425 281.158C353.742 280.57 353.901 279.889 353.901 279.114C353.901 278.33 353.742 277.649 353.425 277.07C353.117 276.482 352.692 276.029 352.151 275.712C351.609 275.395 350.993 275.236 350.303 275.236C349.612 275.236 348.996 275.395 348.455 275.712C347.913 276.029 347.484 276.482 347.167 277.07C346.859 277.649 346.705 278.33 346.705 279.114C346.705 279.889 346.859 280.57 347.167 281.158C347.484 281.746 347.913 282.199 348.455 282.516C349.005 282.833 349.621 282.992 350.303 282.992ZM362.401 274.242V275.278H358.159V278.568H361.603V279.604H358.159V284H356.885V274.242H362.401ZM369.455 274.242V275.278H365.213V278.568H368.657V279.604H365.213V284H363.939V274.242H369.455ZM372.268 275.278V278.54H375.824V279.59H372.268V282.95H376.244V284H370.994V274.228H376.244V275.278H372.268ZM383.31 284L380.986 280.01H379.446V284H378.172V274.242H381.322C382.059 274.242 382.68 274.368 383.184 274.62C383.697 274.872 384.08 275.213 384.332 275.642C384.584 276.071 384.71 276.561 384.71 277.112C384.71 277.784 384.514 278.377 384.122 278.89C383.739 279.403 383.16 279.744 382.386 279.912L384.836 284H383.31ZM379.446 278.988H381.322C382.012 278.988 382.53 278.82 382.876 278.484C383.221 278.139 383.394 277.681 383.394 277.112C383.394 276.533 383.221 276.085 382.876 275.768C382.54 275.451 382.022 275.292 381.322 275.292H379.446V278.988ZM396.428 274.242V275.278H393.768V284H392.494V275.278H389.82V274.242H396.428ZM405.514 274.242V284H404.24V279.576H399.27V284H397.996V274.242H399.27V278.526H404.24V274.242H405.514ZM408.963 275.278V278.54H412.519V279.59H408.963V282.95H412.939V284H407.689V274.228H412.939V275.278H408.963ZM139.596 300.242V310H138.322V305.576H133.352V310H132.078V300.242H133.352V304.526H138.322V300.242H139.596ZM143.045 300.242V310H141.771V300.242H143.045ZM152.609 303.07C152.338 302.501 151.946 302.062 151.433 301.754C150.919 301.437 150.322 301.278 149.641 301.278C148.959 301.278 148.343 301.437 147.793 301.754C147.251 302.062 146.822 302.51 146.505 303.098C146.197 303.677 146.043 304.349 146.043 305.114C146.043 305.879 146.197 306.551 146.505 307.13C146.822 307.709 147.251 308.157 147.793 308.474C148.343 308.782 148.959 308.936 149.641 308.936C150.593 308.936 151.377 308.651 151.993 308.082C152.609 307.513 152.968 306.743 153.071 305.772H149.179V304.736H154.429V305.716C154.354 306.519 154.102 307.256 153.673 307.928C153.243 308.591 152.679 309.118 151.979 309.51C151.279 309.893 150.499 310.084 149.641 310.084C148.735 310.084 147.909 309.874 147.163 309.454C146.416 309.025 145.823 308.432 145.385 307.676C144.955 306.92 144.741 306.066 144.741 305.114C144.741 304.162 144.955 303.308 145.385 302.552C145.823 301.787 146.416 301.194 147.163 300.774C147.909 300.345 148.735 300.13 149.641 300.13C150.677 300.13 151.591 300.387 152.385 300.9C153.187 301.413 153.771 302.137 154.135 303.07H152.609ZM163.631 300.242V310H162.357V305.576H157.387V310H156.113V300.242H157.387V304.526H162.357V300.242H163.631ZM167.081 301.278V304.54H170.637V305.59H167.081V308.95H171.057V310H165.807V300.228H171.057V301.278H167.081ZM176.078 310.098C175.434 310.098 174.856 309.986 174.342 309.762C173.838 309.529 173.442 309.211 173.152 308.81C172.863 308.399 172.714 307.928 172.704 307.396H174.062C174.109 307.853 174.296 308.241 174.622 308.558C174.958 308.866 175.444 309.02 176.078 309.02C176.685 309.02 177.161 308.871 177.506 308.572C177.861 308.264 178.038 307.872 178.038 307.396C178.038 307.023 177.936 306.719 177.73 306.486C177.525 306.253 177.268 306.075 176.96 305.954C176.652 305.833 176.237 305.702 175.714 305.562C175.07 305.394 174.552 305.226 174.16 305.058C173.778 304.89 173.446 304.629 173.166 304.274C172.896 303.91 172.76 303.425 172.76 302.818C172.76 302.286 172.896 301.815 173.166 301.404C173.437 300.993 173.815 300.676 174.3 300.452C174.795 300.228 175.36 300.116 175.994 300.116C176.909 300.116 177.656 300.345 178.234 300.802C178.822 301.259 179.154 301.866 179.228 302.622H177.828C177.782 302.249 177.586 301.922 177.24 301.642C176.895 301.353 176.438 301.208 175.868 301.208C175.336 301.208 174.902 301.348 174.566 301.628C174.23 301.899 174.062 302.281 174.062 302.776C174.062 303.131 174.16 303.42 174.356 303.644C174.562 303.868 174.809 304.041 175.098 304.162C175.397 304.274 175.812 304.405 176.344 304.554C176.988 304.731 177.506 304.909 177.898 305.086C178.29 305.254 178.626 305.52 178.906 305.884C179.186 306.239 179.326 306.724 179.326 307.34C179.326 307.816 179.2 308.264 178.948 308.684C178.696 309.104 178.323 309.445 177.828 309.706C177.334 309.967 176.75 310.098 176.078 310.098ZM187.207 300.242V301.278H184.547V310H183.273V301.278H180.599V300.242H187.207ZM204.772 300.242L201.944 310H200.516L198.248 302.146L195.896 310L194.482 310.014L191.752 300.242H193.11L195.238 308.516L197.59 300.242H199.018L201.258 308.488L203.4 300.242H204.772ZM211.934 307.83H207.678L206.894 310H205.55L209.078 300.298H210.548L214.062 310H212.718L211.934 307.83ZM211.57 306.794L209.806 301.866L208.042 306.794H211.57ZM222.991 303.07C222.721 302.501 222.329 302.062 221.815 301.754C221.302 301.437 220.705 301.278 220.023 301.278C219.342 301.278 218.726 301.437 218.175 301.754C217.634 302.062 217.205 302.51 216.887 303.098C216.579 303.677 216.425 304.349 216.425 305.114C216.425 305.879 216.579 306.551 216.887 307.13C217.205 307.709 217.634 308.157 218.175 308.474C218.726 308.782 219.342 308.936 220.023 308.936C220.975 308.936 221.759 308.651 222.375 308.082C222.991 307.513 223.351 306.743 223.453 305.772H219.561V304.736H224.811V305.716C224.737 306.519 224.485 307.256 224.055 307.928C223.626 308.591 223.061 309.118 222.361 309.51C221.661 309.893 220.882 310.084 220.023 310.084C219.118 310.084 218.292 309.874 217.545 309.454C216.799 309.025 216.206 308.432 215.767 307.676C215.338 306.92 215.123 306.066 215.123 305.114C215.123 304.162 215.338 303.308 215.767 302.552C216.206 301.787 216.799 301.194 217.545 300.774C218.292 300.345 219.118 300.13 220.023 300.13C221.059 300.13 221.974 300.387 222.767 300.9C223.57 301.413 224.153 302.137 224.517 303.07H222.991ZM227.77 301.278V304.54H231.326V305.59H227.77V308.95H231.746V310H226.496V300.228H231.746V301.278H227.77ZM243.93 303.098C243.93 303.91 243.65 304.587 243.09 305.128C242.539 305.66 241.695 305.926 240.556 305.926H238.68V310H237.406V300.242H240.556C241.657 300.242 242.493 300.508 243.062 301.04C243.641 301.572 243.93 302.258 243.93 303.098ZM240.556 304.876C241.265 304.876 241.788 304.722 242.124 304.414C242.46 304.106 242.628 303.667 242.628 303.098C242.628 301.894 241.937 301.292 240.556 301.292H238.68V304.876H240.556ZM246.788 301.278V304.54H250.344V305.59H246.788V308.95H250.764V310H245.514V300.228H250.764V301.278H246.788ZM257.829 310L255.505 306.01H253.965V310H252.691V300.242H255.841C256.579 300.242 257.199 300.368 257.703 300.62C258.217 300.872 258.599 301.213 258.851 301.642C259.103 302.071 259.229 302.561 259.229 303.112C259.229 303.784 259.033 304.377 258.641 304.89C258.259 305.403 257.68 305.744 256.905 305.912L259.355 310H257.829ZM253.965 304.988H255.841C256.532 304.988 257.05 304.82 257.395 304.484C257.741 304.139 257.913 303.681 257.913 303.112C257.913 302.533 257.741 302.085 257.395 301.768C257.059 301.451 256.541 301.292 255.841 301.292H253.965V304.988ZM272.459 300.242V310H271.185V305.576H266.215V310H264.941V300.242H266.215V304.526H271.185V300.242H272.459ZM279.059 310.098C278.153 310.098 277.327 309.888 276.581 309.468C275.834 309.039 275.241 308.446 274.803 307.69C274.373 306.925 274.159 306.066 274.159 305.114C274.159 304.162 274.373 303.308 274.803 302.552C275.241 301.787 275.834 301.194 276.581 300.774C277.327 300.345 278.153 300.13 279.059 300.13C279.973 300.13 280.804 300.345 281.551 300.774C282.297 301.194 282.885 301.782 283.315 302.538C283.744 303.294 283.959 304.153 283.959 305.114C283.959 306.075 283.744 306.934 283.315 307.69C282.885 308.446 282.297 309.039 281.551 309.468C280.804 309.888 279.973 310.098 279.059 310.098ZM279.059 308.992C279.74 308.992 280.351 308.833 280.893 308.516C281.443 308.199 281.873 307.746 282.181 307.158C282.498 306.57 282.657 305.889 282.657 305.114C282.657 304.33 282.498 303.649 282.181 303.07C281.873 302.482 281.448 302.029 280.907 301.712C280.365 301.395 279.749 301.236 279.059 301.236C278.368 301.236 277.752 301.395 277.211 301.712C276.669 302.029 276.24 302.482 275.923 303.07C275.615 303.649 275.461 304.33 275.461 305.114C275.461 305.889 275.615 306.57 275.923 307.158C276.24 307.746 276.669 308.199 277.211 308.516C277.761 308.833 278.377 308.992 279.059 308.992ZM286.887 300.242V306.416C286.887 307.284 287.097 307.928 287.517 308.348C287.946 308.768 288.539 308.978 289.295 308.978C290.041 308.978 290.625 308.768 291.045 308.348C291.474 307.928 291.689 307.284 291.689 306.416V300.242H292.963V306.402C292.963 307.214 292.799 307.9 292.472 308.46C292.146 309.011 291.703 309.421 291.143 309.692C290.592 309.963 289.971 310.098 289.281 310.098C288.59 310.098 287.965 309.963 287.405 309.692C286.854 309.421 286.415 309.011 286.089 308.46C285.771 307.9 285.613 307.214 285.613 306.402V300.242H286.887ZM300.226 310L297.902 306.01H296.362V310H295.088V300.242H298.238C298.975 300.242 299.596 300.368 300.1 300.62C300.613 300.872 300.996 301.213 301.248 301.642C301.5 302.071 301.626 302.561 301.626 303.112C301.626 303.784 301.43 304.377 301.038 304.89C300.655 305.403 300.076 305.744 299.302 305.912L301.752 310H300.226ZM296.362 304.988H298.238C298.928 304.988 299.446 304.82 299.792 304.484C300.137 304.139 300.31 303.681 300.31 303.112C300.31 302.533 300.137 302.085 299.792 301.768C299.456 301.451 298.938 301.292 298.238 301.292H296.362V304.988ZM308.612 300.242V310H307.338V300.242H308.612ZM318.455 310H317.181L312.057 302.23V310H310.783V300.228H312.057L317.181 307.984V300.228H318.455V310ZM330.127 307.83H325.871L325.087 310H323.743L327.271 300.298H328.741L332.255 310H330.911L330.127 307.83ZM329.763 306.794L327.999 301.866L326.235 306.794H329.763ZM335.067 308.964H338.483V310H333.793V300.242H335.067V308.964ZM341.11 308.964H344.526V310H339.836V300.242H341.11V308.964ZM355.617 300.242V301.278H352.957V310H351.683V301.278H349.009V300.242H355.617ZM364.703 300.242V310H363.429V305.576H358.459V310H357.185V300.242H358.459V304.526H363.429V300.242H364.703ZM368.153 301.278V304.54H371.709V305.59H368.153V308.95H372.129V310H366.879V300.228H372.129V301.278H368.153ZM379.063 308.964H382.479V310H377.789V300.242H379.063V308.964ZM389.6 307.83H385.344L384.56 310H383.216L386.744 300.298H388.214L391.728 310H390.384L389.6 307.83ZM389.236 306.794L387.472 301.866L385.708 306.794H389.236ZM400.938 310H399.664L394.54 302.23V310H393.266V300.228H394.54L399.664 307.984V300.228H400.938V310ZM406.147 300.242C407.211 300.242 408.131 300.443 408.905 300.844C409.689 301.236 410.287 301.801 410.697 302.538C411.117 303.275 411.327 304.143 411.327 305.142C411.327 306.141 411.117 307.009 410.697 307.746C410.287 308.474 409.689 309.034 408.905 309.426C408.131 309.809 407.211 310 406.147 310H403.109V300.242H406.147ZM406.147 308.95C407.407 308.95 408.369 308.619 409.031 307.956C409.694 307.284 410.025 306.346 410.025 305.142C410.025 303.929 409.689 302.981 409.017 302.3C408.355 301.619 407.398 301.278 406.147 301.278H404.383V308.95H406.147ZM133.352 327.278V330.54H136.908V331.59H133.352V334.95H137.328V336H132.078V326.228H137.328V327.278H133.352ZM147.32 326.242L143.638 336H142.168L138.486 326.242H139.844L142.91 334.656L145.976 326.242H147.32ZM149.991 327.278V330.54H153.547V331.59H149.991V334.95H153.967V336H148.717V326.228H153.967V327.278H149.991ZM161.032 336L158.708 332.01H157.168V336H155.894V326.242H159.044C159.782 326.242 160.402 326.368 160.906 326.62C161.42 326.872 161.802 327.213 162.054 327.642C162.306 328.071 162.432 328.561 162.432 329.112C162.432 329.784 162.236 330.377 161.844 330.89C161.462 331.403 160.883 331.744 160.108 331.912L162.558 336H161.032ZM157.168 330.988H159.044C159.735 330.988 160.253 330.82 160.598 330.484C160.944 330.139 161.116 329.681 161.116 329.112C161.116 328.533 160.944 328.085 160.598 327.768C160.262 327.451 159.744 327.292 159.044 327.292H157.168V330.988ZM171.244 326.242L168.066 332.318V336H166.792V332.318L163.6 326.242H165.014L167.422 331.184L169.83 326.242H171.244ZM177.012 336.098C176.106 336.098 175.28 335.888 174.534 335.468C173.787 335.039 173.194 334.446 172.756 333.69C172.326 332.925 172.112 332.066 172.112 331.114C172.112 330.162 172.326 329.308 172.756 328.552C173.194 327.787 173.787 327.194 174.534 326.774C175.28 326.345 176.106 326.13 177.012 326.13C177.926 326.13 178.757 326.345 179.504 326.774C180.25 327.194 180.838 327.782 181.268 328.538C181.697 329.294 181.912 330.153 181.912 331.114C181.912 332.075 181.697 332.934 181.268 333.69C180.838 334.446 180.25 335.039 179.504 335.468C178.757 335.888 177.926 336.098 177.012 336.098ZM177.012 334.992C177.693 334.992 178.304 334.833 178.846 334.516C179.396 334.199 179.826 333.746 180.134 333.158C180.451 332.57 180.61 331.889 180.61 331.114C180.61 330.33 180.451 329.649 180.134 329.07C179.826 328.482 179.401 328.029 178.86 327.712C178.318 327.395 177.702 327.236 177.012 327.236C176.321 327.236 175.705 327.395 175.164 327.712C174.622 328.029 174.193 328.482 173.876 329.07C173.568 329.649 173.414 330.33 173.414 331.114C173.414 331.889 173.568 332.57 173.876 333.158C174.193 333.746 174.622 334.199 175.164 334.516C175.714 334.833 176.33 334.992 177.012 334.992ZM191.266 336H189.992L184.868 328.23V336H183.594V326.228H184.868L189.992 333.984V326.228H191.266V336ZM194.711 327.278V330.54H198.267V331.59H194.711V334.95H198.687V336H193.437V326.228H198.687V327.278H194.711ZM211.74 329.07C211.469 328.501 211.077 328.062 210.564 327.754C210.05 327.437 209.453 327.278 208.772 327.278C208.09 327.278 207.474 327.437 206.924 327.754C206.382 328.062 205.953 328.51 205.636 329.098C205.328 329.677 205.174 330.349 205.174 331.114C205.174 331.879 205.328 332.551 205.636 333.13C205.953 333.709 206.382 334.157 206.924 334.474C207.474 334.782 208.09 334.936 208.772 334.936C209.724 334.936 210.508 334.651 211.124 334.082C211.74 333.513 212.099 332.743 212.202 331.772H208.31V330.736H213.56V331.716C213.485 332.519 213.233 333.256 212.804 333.928C212.374 334.591 211.81 335.118 211.11 335.51C210.41 335.893 209.63 336.084 208.772 336.084C207.866 336.084 207.04 335.874 206.294 335.454C205.547 335.025 204.954 334.432 204.516 333.676C204.086 332.92 203.872 332.066 203.872 331.114C203.872 330.162 204.086 329.308 204.516 328.552C204.954 327.787 205.547 327.194 206.294 326.774C207.04 326.345 207.866 326.13 208.772 326.13C209.808 326.13 210.722 326.387 211.516 326.9C212.318 327.413 212.902 328.137 213.266 329.07H211.74ZM216.518 327.278V330.54H220.074V331.59H216.518V334.95H220.494V336H215.244V326.228H220.494V327.278H216.518ZM228.428 326.242V327.278H225.768V336H224.494V327.278H221.82V326.242H228.428ZM233.09 336.098C232.446 336.098 231.867 335.986 231.354 335.762C230.85 335.529 230.453 335.211 230.164 334.81C229.875 334.399 229.725 333.928 229.716 333.396H231.074C231.121 333.853 231.307 334.241 231.634 334.558C231.97 334.866 232.455 335.02 233.09 335.02C233.697 335.02 234.173 334.871 234.518 334.572C234.873 334.264 235.05 333.872 235.05 333.396C235.05 333.023 234.947 332.719 234.742 332.486C234.537 332.253 234.28 332.075 233.972 331.954C233.664 331.833 233.249 331.702 232.726 331.562C232.082 331.394 231.564 331.226 231.172 331.058C230.789 330.89 230.458 330.629 230.178 330.274C229.907 329.91 229.772 329.425 229.772 328.818C229.772 328.286 229.907 327.815 230.178 327.404C230.449 326.993 230.827 326.676 231.312 326.452C231.807 326.228 232.371 326.116 233.006 326.116C233.921 326.116 234.667 326.345 235.246 326.802C235.834 327.259 236.165 327.866 236.24 328.622H234.84C234.793 328.249 234.597 327.922 234.252 327.642C233.907 327.353 233.449 327.208 232.88 327.208C232.348 327.208 231.914 327.348 231.578 327.628C231.242 327.899 231.074 328.281 231.074 328.776C231.074 329.131 231.172 329.42 231.368 329.644C231.573 329.868 231.821 330.041 232.11 330.162C232.409 330.274 232.824 330.405 233.356 330.554C234 330.731 234.518 330.909 234.91 331.086C235.302 331.254 235.638 331.52 235.918 331.884C236.198 332.239 236.338 332.724 236.338 333.34C236.338 333.816 236.212 334.264 235.96 334.684C235.708 335.104 235.335 335.445 234.84 335.706C234.345 335.967 233.762 336.098 233.09 336.098ZM248.189 326.984H243.275V330.176C243.49 329.877 243.807 329.635 244.227 329.448C244.647 329.252 245.1 329.154 245.585 329.154C246.36 329.154 246.99 329.317 247.475 329.644C247.961 329.961 248.306 330.377 248.511 330.89C248.726 331.394 248.833 331.931 248.833 332.5C248.833 333.172 248.707 333.774 248.455 334.306C248.203 334.838 247.816 335.258 247.293 335.566C246.78 335.874 246.141 336.028 245.375 336.028C244.395 336.028 243.602 335.776 242.995 335.272C242.389 334.768 242.02 334.096 241.889 333.256H243.135C243.257 333.788 243.513 334.203 243.905 334.502C244.297 334.801 244.792 334.95 245.389 334.95C246.127 334.95 246.682 334.731 247.055 334.292C247.429 333.844 247.615 333.256 247.615 332.528C247.615 331.8 247.429 331.24 247.055 330.848C246.682 330.447 246.131 330.246 245.403 330.246C244.909 330.246 244.475 330.367 244.101 330.61C243.737 330.843 243.471 331.165 243.303 331.576H242.099V325.864H248.189V326.984ZM250.526 330.834C250.526 329.229 250.788 327.978 251.31 327.082C251.833 326.177 252.748 325.724 254.054 325.724C255.352 325.724 256.262 326.177 256.784 327.082C257.307 327.978 257.568 329.229 257.568 330.834C257.568 332.467 257.307 333.737 256.784 334.642C256.262 335.547 255.352 336 254.054 336C252.748 336 251.833 335.547 251.31 334.642C250.788 333.737 250.526 332.467 250.526 330.834ZM256.308 330.834C256.308 330.022 256.252 329.336 256.14 328.776C256.038 328.207 255.818 327.749 255.482 327.404C255.156 327.059 254.68 326.886 254.054 326.886C253.42 326.886 252.934 327.059 252.598 327.404C252.272 327.749 252.052 328.207 251.94 328.776C251.838 329.336 251.786 330.022 251.786 330.834C251.786 331.674 251.838 332.379 251.94 332.948C252.052 333.517 252.272 333.975 252.598 334.32C252.934 334.665 253.42 334.838 254.054 334.838C254.68 334.838 255.156 334.665 255.482 334.32C255.818 333.975 256.038 333.517 256.14 332.948C256.252 332.379 256.308 331.674 256.308 330.834ZM264.534 327.278V330.54H268.09V331.59H264.534V334.95H268.51V336H263.26V326.228H268.51V327.278H264.534ZM271.683 326.242V332.416C271.683 333.284 271.893 333.928 272.313 334.348C272.743 334.768 273.335 334.978 274.091 334.978C274.838 334.978 275.421 334.768 275.841 334.348C276.271 333.928 276.485 333.284 276.485 332.416V326.242H277.759V332.402C277.759 333.214 277.596 333.9 277.269 334.46C276.943 335.011 276.499 335.421 275.939 335.692C275.389 335.963 274.768 336.098 274.077 336.098C273.387 336.098 272.761 335.963 272.201 335.692C271.651 335.421 271.212 335.011 270.885 334.46C270.568 333.9 270.409 333.214 270.409 332.402V326.242H271.683ZM285.023 336L282.699 332.01H281.159V336H279.885V326.242H283.035C283.772 326.242 284.393 326.368 284.897 326.62C285.41 326.872 285.793 327.213 286.045 327.642C286.297 328.071 286.423 328.561 286.423 329.112C286.423 329.784 286.227 330.377 285.835 330.89C285.452 331.403 284.873 331.744 284.099 331.912L286.549 336H285.023ZM281.159 330.988H283.035C283.725 330.988 284.243 330.82 284.589 330.484C284.934 330.139 285.107 329.681 285.107 329.112C285.107 328.533 284.934 328.085 284.589 327.768C284.253 327.451 283.735 327.292 283.035 327.292H281.159V330.988ZM292.826 336.098C291.921 336.098 291.095 335.888 290.348 335.468C289.602 335.039 289.009 334.446 288.57 333.69C288.141 332.925 287.926 332.066 287.926 331.114C287.926 330.162 288.141 329.308 288.57 328.552C289.009 327.787 289.602 327.194 290.348 326.774C291.095 326.345 291.921 326.13 292.826 326.13C293.741 326.13 294.572 326.345 295.318 326.774C296.065 327.194 296.653 327.782 297.082 328.538C297.512 329.294 297.726 330.153 297.726 331.114C297.726 332.075 297.512 332.934 297.082 333.69C296.653 334.446 296.065 335.039 295.318 335.468C294.572 335.888 293.741 336.098 292.826 336.098ZM292.826 334.992C293.508 334.992 294.119 334.833 294.66 334.516C295.211 334.199 295.64 333.746 295.948 333.158C296.266 332.57 296.424 331.889 296.424 331.114C296.424 330.33 296.266 329.649 295.948 329.07C295.64 328.482 295.216 328.029 294.674 327.712C294.133 327.395 293.517 327.236 292.826 327.236C292.136 327.236 291.52 327.395 290.978 327.712C290.437 328.029 290.008 328.482 289.69 329.07C289.382 329.649 289.228 330.33 289.228 331.114C289.228 331.889 289.382 332.57 289.69 333.158C290.008 333.746 290.437 334.199 290.978 334.516C291.529 334.833 292.145 334.992 292.826 334.992ZM313.039 326.312V336H311.765V328.776L308.545 336H307.649L304.415 328.762V336H303.141V326.312H304.513L308.097 334.32L311.681 326.312H313.039ZM316.473 326.242V336H315.199V326.242H316.473ZM326.316 336H325.042L319.918 328.23V336H318.644V326.228H319.918L325.042 333.984V326.228H326.316V336ZM337.989 333.83H333.733L332.949 336H331.605L335.133 326.298H336.603L340.117 336H338.773L337.989 333.83ZM337.625 332.794L335.861 327.866L334.097 332.794H337.625ZM349.326 336H348.052L342.928 328.23V336H341.654V326.228H342.928L348.052 333.984V326.228H349.326V336ZM362.748 326.242V336H361.474V331.576H356.504V336H355.23V326.242H356.504V330.526H361.474V326.242H362.748ZM369.348 336.098C368.442 336.098 367.616 335.888 366.87 335.468C366.123 335.039 365.53 334.446 365.092 333.69C364.662 332.925 364.448 332.066 364.448 331.114C364.448 330.162 364.662 329.308 365.092 328.552C365.53 327.787 366.123 327.194 366.87 326.774C367.616 326.345 368.442 326.13 369.348 326.13C370.262 326.13 371.093 326.345 371.84 326.774C372.586 327.194 373.174 327.782 373.604 328.538C374.033 329.294 374.248 330.153 374.248 331.114C374.248 332.075 374.033 332.934 373.604 333.69C373.174 334.446 372.586 335.039 371.84 335.468C371.093 335.888 370.262 336.098 369.348 336.098ZM369.348 334.992C370.029 334.992 370.64 334.833 371.182 334.516C371.732 334.199 372.162 333.746 372.47 333.158C372.787 332.57 372.946 331.889 372.946 331.114C372.946 330.33 372.787 329.649 372.47 329.07C372.162 328.482 371.737 328.029 371.196 327.712C370.654 327.395 370.038 327.236 369.348 327.236C368.657 327.236 368.041 327.395 367.5 327.712C366.958 328.029 366.529 328.482 366.212 329.07C365.904 329.649 365.75 330.33 365.75 331.114C365.75 331.889 365.904 332.57 366.212 333.158C366.529 333.746 366.958 334.199 367.5 334.516C368.05 334.833 368.666 334.992 369.348 334.992ZM377.176 326.242V332.416C377.176 333.284 377.386 333.928 377.806 334.348C378.235 334.768 378.828 334.978 379.584 334.978C380.33 334.978 380.914 334.768 381.334 334.348C381.763 333.928 381.978 333.284 381.978 332.416V326.242H383.252V332.402C383.252 333.214 383.088 333.9 382.762 334.46C382.435 335.011 381.992 335.421 381.432 335.692C380.881 335.963 380.26 336.098 379.57 336.098C378.879 336.098 378.254 335.963 377.694 335.692C377.143 335.421 376.704 335.011 376.378 334.46C376.06 333.9 375.902 333.214 375.902 332.402V326.242H377.176ZM390.515 336L388.191 332.01H386.651V336H385.377V326.242H388.527C389.264 326.242 389.885 326.368 390.389 326.62C390.902 326.872 391.285 327.213 391.537 327.642C391.789 328.071 391.915 328.561 391.915 329.112C391.915 329.784 391.719 330.377 391.327 330.89C390.944 331.403 390.365 331.744 389.591 331.912L392.041 336H390.515ZM386.651 330.988H388.527C389.217 330.988 389.735 330.82 390.081 330.484C390.426 330.139 390.599 329.681 390.599 329.112C390.599 328.533 390.426 328.085 390.081 327.768C389.745 327.451 389.227 327.292 388.527 327.292H386.651V330.988ZM395.21 334.236L393.642 338.002H392.788L393.81 334.236H395.21ZM401.676 327.278V330.54H405.232V331.59H401.676V334.95H405.652V336H400.402V326.228H405.652V327.278H401.676ZM415.644 326.242L411.962 336H410.492L406.81 326.242H408.168L411.234 334.656L414.3 326.242H415.644ZM418.315 327.278V330.54H421.871V331.59H418.315V334.95H422.291V336H417.041V326.228H422.291V327.278H418.315ZM431.891 336H430.617L425.493 328.23V336H424.219V326.228H425.493L430.617 333.984V326.228H431.891V336ZM136.502 362.098C135.597 362.098 134.771 361.888 134.024 361.468C133.277 361.039 132.685 360.446 132.246 359.69C131.817 358.925 131.602 358.066 131.602 357.114C131.602 356.162 131.817 355.308 132.246 354.552C132.685 353.787 133.277 353.194 134.024 352.774C134.771 352.345 135.597 352.13 136.502 352.13C137.417 352.13 138.247 352.345 138.994 352.774C139.741 353.194 140.329 353.782 140.758 354.538C141.187 355.294 141.402 356.153 141.402 357.114C141.402 358.075 141.187 358.934 140.758 359.69C140.329 360.446 139.741 361.039 138.994 361.468C138.247 361.888 137.417 362.098 136.502 362.098ZM136.502 360.992C137.183 360.992 137.795 360.833 138.336 360.516C138.887 360.199 139.316 359.746 139.624 359.158C139.941 358.57 140.1 357.889 140.1 357.114C140.1 356.33 139.941 355.649 139.624 355.07C139.316 354.482 138.891 354.029 138.35 353.712C137.809 353.395 137.193 353.236 136.502 353.236C135.811 353.236 135.195 353.395 134.654 353.712C134.113 354.029 133.683 354.482 133.366 355.07C133.058 355.649 132.904 356.33 132.904 357.114C132.904 357.889 133.058 358.57 133.366 359.158C133.683 359.746 134.113 360.199 134.654 360.516C135.205 360.833 135.821 360.992 136.502 360.992ZM144.33 352.242V358.416C144.33 359.284 144.54 359.928 144.96 360.348C145.389 360.768 145.982 360.978 146.738 360.978C147.485 360.978 148.068 360.768 148.488 360.348C148.917 359.928 149.132 359.284 149.132 358.416V352.242H150.406V358.402C150.406 359.214 150.243 359.9 149.916 360.46C149.589 361.011 149.146 361.421 148.586 361.692C148.035 361.963 147.415 362.098 146.724 362.098C146.033 362.098 145.408 361.963 144.848 361.692C144.297 361.421 143.859 361.011 143.532 360.46C143.215 359.9 143.056 359.214 143.056 358.402V352.242H144.33ZM157.669 362L155.345 358.01H153.805V362H152.531V352.242H155.681C156.418 352.242 157.039 352.368 157.543 352.62C158.056 352.872 158.439 353.213 158.691 353.642C158.943 354.071 159.069 354.561 159.069 355.112C159.069 355.784 158.873 356.377 158.481 356.89C158.098 357.403 157.52 357.744 156.745 357.912L159.195 362H157.669ZM153.805 356.988H155.681C156.372 356.988 156.89 356.82 157.235 356.484C157.58 356.139 157.753 355.681 157.753 355.112C157.753 354.533 157.58 354.085 157.235 353.768C156.899 353.451 156.381 353.292 155.681 353.292H153.805V356.988ZM169.695 352.242V359.452C169.695 360.255 169.448 360.899 168.953 361.384C168.458 361.86 167.805 362.098 166.993 362.098C166.172 362.098 165.514 361.855 165.019 361.37C164.524 360.875 164.277 360.203 164.277 359.354H165.551C165.56 359.83 165.682 360.217 165.915 360.516C166.158 360.815 166.517 360.964 166.993 360.964C167.469 360.964 167.824 360.824 168.057 360.544C168.29 360.255 168.407 359.891 168.407 359.452V352.242H169.695ZM177.973 359.83H173.717L172.933 362H171.589L175.117 352.298H176.587L180.101 362H178.757L177.973 359.83ZM177.609 358.794L175.845 353.866L174.081 358.794H177.609ZM189.311 362H188.037L182.913 354.23V362H181.639V352.228H182.913L188.037 359.984V352.228H189.311V362ZM192.756 352.242V362H191.482V352.242H192.756ZM200.934 352.242V353.278H198.274V362H197V353.278H194.326V352.242H200.934ZM206.926 362.098C206.02 362.098 205.194 361.888 204.448 361.468C203.701 361.039 203.108 360.446 202.67 359.69C202.24 358.925 202.026 358.066 202.026 357.114C202.026 356.162 202.24 355.308 202.67 354.552C203.108 353.787 203.701 353.194 204.448 352.774C205.194 352.345 206.02 352.13 206.926 352.13C207.84 352.13 208.671 352.345 209.418 352.774C210.164 353.194 210.752 353.782 211.182 354.538C211.611 355.294 211.826 356.153 211.826 357.114C211.826 358.075 211.611 358.934 211.182 359.69C210.752 360.446 210.164 361.039 209.418 361.468C208.671 361.888 207.84 362.098 206.926 362.098ZM206.926 360.992C207.607 360.992 208.218 360.833 208.76 360.516C209.31 360.199 209.74 359.746 210.048 359.158C210.365 358.57 210.524 357.889 210.524 357.114C210.524 356.33 210.365 355.649 210.048 355.07C209.74 354.482 209.315 354.029 208.774 353.712C208.232 353.395 207.616 353.236 206.926 353.236C206.235 353.236 205.619 353.395 205.078 353.712C204.536 354.029 204.107 354.482 203.79 355.07C203.482 355.649 203.328 356.33 203.328 357.114C203.328 357.889 203.482 358.57 203.79 359.158C204.107 359.746 204.536 360.199 205.078 360.516C205.628 360.833 206.244 360.992 206.926 360.992ZM218.646 362L216.322 358.01H214.782V362H213.508V352.242H216.658C217.395 352.242 218.016 352.368 218.52 352.62C219.033 352.872 219.416 353.213 219.668 353.642C219.92 354.071 220.046 354.561 220.046 355.112C220.046 355.784 219.85 356.377 219.458 356.89C219.075 357.403 218.496 357.744 217.722 357.912L220.172 362H218.646ZM214.782 356.988H216.658C217.348 356.988 217.866 356.82 218.212 356.484C218.557 356.139 218.73 355.681 218.73 355.112C218.73 354.533 218.557 354.085 218.212 353.768C217.876 353.451 217.358 353.292 216.658 353.292H214.782V356.988ZM225.119 362.098C224.475 362.098 223.897 361.986 223.383 361.762C222.879 361.529 222.483 361.211 222.193 360.81C221.904 360.399 221.755 359.928 221.745 359.396H223.103C223.15 359.853 223.337 360.241 223.663 360.558C223.999 360.866 224.485 361.02 225.119 361.02C225.726 361.02 226.202 360.871 226.547 360.572C226.902 360.264 227.079 359.872 227.079 359.396C227.079 359.023 226.977 358.719 226.771 358.486C226.566 358.253 226.309 358.075 226.001 357.954C225.693 357.833 225.278 357.702 224.755 357.562C224.111 357.394 223.593 357.226 223.201 357.058C222.819 356.89 222.487 356.629 222.207 356.274C221.937 355.91 221.801 355.425 221.801 354.818C221.801 354.286 221.937 353.815 222.207 353.404C222.478 352.993 222.856 352.676 223.341 352.452C223.836 352.228 224.401 352.116 225.035 352.116C225.95 352.116 226.697 352.345 227.275 352.802C227.863 353.259 228.195 353.866 228.269 354.622H226.869C226.823 354.249 226.627 353.922 226.281 353.642C225.936 353.353 225.479 353.208 224.909 353.208C224.377 353.208 223.943 353.348 223.607 353.628C223.271 353.899 223.103 354.281 223.103 354.776C223.103 355.131 223.201 355.42 223.397 355.644C223.603 355.868 223.85 356.041 224.139 356.162C224.438 356.274 224.853 356.405 225.385 356.554C226.029 356.731 226.547 356.909 226.939 357.086C227.331 357.254 227.667 357.52 227.947 357.884C228.227 358.239 228.367 358.724 228.367 359.34C228.367 359.816 228.241 360.264 227.989 360.684C227.737 361.104 227.364 361.445 226.869 361.706C226.375 361.967 225.791 362.098 225.119 362.098ZM235.248 360.964H238.664V362H233.974V352.242H235.248V360.964ZM244.441 362.098C243.536 362.098 242.71 361.888 241.963 361.468C241.217 361.039 240.624 360.446 240.185 359.69C239.756 358.925 239.541 358.066 239.541 357.114C239.541 356.162 239.756 355.308 240.185 354.552C240.624 353.787 241.217 353.194 241.963 352.774C242.71 352.345 243.536 352.13 244.441 352.13C245.356 352.13 246.187 352.345 246.933 352.774C247.68 353.194 248.268 353.782 248.697 354.538C249.127 355.294 249.341 356.153 249.341 357.114C249.341 358.075 249.127 358.934 248.697 359.69C248.268 360.446 247.68 361.039 246.933 361.468C246.187 361.888 245.356 362.098 244.441 362.098ZM244.441 360.992C245.123 360.992 245.734 360.833 246.275 360.516C246.826 360.199 247.255 359.746 247.563 359.158C247.881 358.57 248.039 357.889 248.039 357.114C248.039 356.33 247.881 355.649 247.563 355.07C247.255 354.482 246.831 354.029 246.289 353.712C245.748 353.395 245.132 353.236 244.441 353.236C243.751 353.236 243.135 353.395 242.593 353.712C242.052 354.029 241.623 354.482 241.305 355.07C240.997 355.649 240.843 356.33 240.843 357.114C240.843 357.889 240.997 358.57 241.305 359.158C241.623 359.746 242.052 360.199 242.593 360.516C243.144 360.833 243.76 360.992 244.441 360.992ZM259.087 352.242L255.405 362H253.935L250.253 352.242H251.611L254.677 360.656L257.743 352.242H259.087ZM261.758 353.278V356.54H265.314V357.59H261.758V360.95H265.734V362H260.484V352.228H265.734V353.278H261.758ZM283.658 352.242L280.83 362H279.402L277.134 354.146L274.782 362L273.368 362.014L270.638 352.242H271.996L274.124 360.516L276.476 352.242H277.904L280.144 360.488L282.286 352.242H283.658ZM289.477 362.098C288.571 362.098 287.745 361.888 286.999 361.468C286.252 361.039 285.659 360.446 285.221 359.69C284.791 358.925 284.577 358.066 284.577 357.114C284.577 356.162 284.791 355.308 285.221 354.552C285.659 353.787 286.252 353.194 286.999 352.774C287.745 352.345 288.571 352.13 289.477 352.13C290.391 352.13 291.222 352.345 291.969 352.774C292.715 353.194 293.303 353.782 293.733 354.538C294.162 355.294 294.377 356.153 294.377 357.114C294.377 358.075 294.162 358.934 293.733 359.69C293.303 360.446 292.715 361.039 291.969 361.468C291.222 361.888 290.391 362.098 289.477 362.098ZM289.477 360.992C290.158 360.992 290.769 360.833 291.311 360.516C291.861 360.199 292.291 359.746 292.599 359.158C292.916 358.57 293.075 357.889 293.075 357.114C293.075 356.33 292.916 355.649 292.599 355.07C292.291 354.482 291.866 354.029 291.325 353.712C290.783 353.395 290.167 353.236 289.477 353.236C288.786 353.236 288.17 353.395 287.629 353.712C287.087 354.029 286.658 354.482 286.341 355.07C286.033 355.649 285.879 356.33 285.879 357.114C285.879 357.889 286.033 358.57 286.341 359.158C286.658 359.746 287.087 360.199 287.629 360.516C288.179 360.833 288.795 360.992 289.477 360.992ZM301.196 362L298.872 358.01H297.332V362H296.058V352.242H299.208C299.946 352.242 300.566 352.368 301.07 352.62C301.584 352.872 301.966 353.213 302.218 353.642C302.47 354.071 302.596 354.561 302.596 355.112C302.596 355.784 302.4 356.377 302.008 356.89C301.626 357.403 301.047 357.744 300.272 357.912L302.722 362H301.196ZM297.332 356.988H299.208C299.899 356.988 300.417 356.82 300.762 356.484C301.108 356.139 301.28 355.681 301.28 355.112C301.28 354.533 301.108 354.085 300.762 353.768C300.426 353.451 299.908 353.292 299.208 353.292H297.332V356.988ZM309.868 362L305.85 357.548V362H304.576V352.242H305.85V356.764L309.882 352.242H311.492L307.068 357.128L311.534 362H309.868ZM314.231 352.242V362H312.957V352.242H314.231ZM324.074 362H322.8L317.676 354.23V362H316.402V352.228H317.676L322.8 359.984V352.228H324.074V362ZM333.638 355.07C333.367 354.501 332.975 354.062 332.462 353.754C331.949 353.437 331.351 353.278 330.67 353.278C329.989 353.278 329.373 353.437 328.822 353.754C328.281 354.062 327.851 354.51 327.534 355.098C327.226 355.677 327.072 356.349 327.072 357.114C327.072 357.879 327.226 358.551 327.534 359.13C327.851 359.709 328.281 360.157 328.822 360.474C329.373 360.782 329.989 360.936 330.67 360.936C331.622 360.936 332.406 360.651 333.022 360.082C333.638 359.513 333.997 358.743 334.1 357.772H330.208V356.736H335.458V357.716C335.383 358.519 335.131 359.256 334.702 359.928C334.273 360.591 333.708 361.118 333.008 361.51C332.308 361.893 331.529 362.084 330.67 362.084C329.765 362.084 328.939 361.874 328.192 361.454C327.445 361.025 326.853 360.432 326.414 359.676C325.985 358.92 325.77 358.066 325.77 357.114C325.77 356.162 325.985 355.308 326.414 354.552C326.853 353.787 327.445 353.194 328.192 352.774C328.939 352.345 329.765 352.13 330.67 352.13C331.706 352.13 332.621 352.387 333.414 352.9C334.217 353.413 334.8 354.137 335.164 355.07H333.638ZM348.393 352.242V362H347.119V357.576H342.149V362H340.875V352.242H342.149V356.526H347.119V352.242H348.393ZM351.842 353.278V356.54H355.398V357.59H351.842V360.95H355.818V362H350.568V352.228H355.818V353.278H351.842ZM362.884 362L360.56 358.01H359.02V362H357.746V352.242H360.896C361.633 352.242 362.254 352.368 362.758 352.62C363.271 352.872 363.654 353.213 363.906 353.642C364.158 354.071 364.284 354.561 364.284 355.112C364.284 355.784 364.088 356.377 363.696 356.89C363.313 357.403 362.735 357.744 361.96 357.912L364.41 362H362.884ZM359.02 356.988H360.896C361.587 356.988 362.105 356.82 362.45 356.484C362.795 356.139 362.968 355.681 362.968 355.112C362.968 354.533 362.795 354.085 362.45 353.768C362.114 353.451 361.596 353.292 360.896 353.292H359.02V356.988ZM367.538 353.278V356.54H371.094V357.59H367.538V360.95H371.514V362H366.264V352.228H371.514V353.278H367.538ZM373.847 362.084C373.605 362.084 373.399 362 373.231 361.832C373.063 361.664 372.979 361.459 372.979 361.216C372.979 360.973 373.063 360.768 373.231 360.6C373.399 360.432 373.605 360.348 373.847 360.348C374.081 360.348 374.277 360.432 374.435 360.6C374.603 360.768 374.687 360.973 374.687 361.216C374.687 361.459 374.603 361.664 374.435 361.832C374.277 362 374.081 362.084 373.847 362.084Z" fill="white"/>
<path d="M147.6 224.04V238H144.8V228.92L141.06 238H138.94L135.18 228.92V238H132.38V224.04H135.56L140 234.42L144.44 224.04H147.6ZM158.928 235.34H153.368L152.448 238H149.508L154.528 224.02H157.788L162.808 238H159.848L158.928 235.34ZM158.168 233.1L156.148 227.26L154.128 233.1H158.168ZM172.565 238L167.485 231.78V238H164.685V224.04H167.485V230.3L172.565 224.04H175.945L170.185 230.96L176.105 238H172.565ZM180.746 226.3V229.8H185.446V232.02H180.746V235.72H186.046V238H177.946V224.02H186.046V226.3H180.746ZM208.577 224.04V238H205.777V228.92L202.037 238H199.917L196.157 228.92V238H193.357V224.04H196.537L200.977 234.42L205.417 224.04H208.577ZM214.145 224.04V238H211.345V224.04H214.145ZM219.711 235.78H224.311V238H216.911V224.04H219.711V235.78ZM228.891 235.78H233.491V238H226.091V224.04H228.891V235.78ZM238.071 224.04V238H235.271V224.04H238.071ZM247.317 238.14C246.01 238.14 244.81 237.833 243.717 237.22C242.624 236.607 241.757 235.76 241.117 234.68C240.477 233.587 240.157 232.353 240.157 230.98C240.157 229.62 240.477 228.4 241.117 227.32C241.757 226.227 242.624 225.373 243.717 224.76C244.81 224.147 246.01 223.84 247.317 223.84C248.637 223.84 249.837 224.147 250.917 224.76C252.01 225.373 252.87 226.227 253.497 227.32C254.137 228.4 254.457 229.62 254.457 230.98C254.457 232.353 254.137 233.587 253.497 234.68C252.87 235.76 252.01 236.607 250.917 237.22C249.824 237.833 248.624 238.14 247.317 238.14ZM247.317 235.64C248.157 235.64 248.897 235.453 249.537 235.08C250.177 234.693 250.677 234.147 251.037 233.44C251.397 232.733 251.577 231.913 251.577 230.98C251.577 230.047 251.397 229.233 251.037 228.54C250.677 227.833 250.177 227.293 249.537 226.92C248.897 226.547 248.157 226.36 247.317 226.36C246.477 226.36 245.73 226.547 245.077 226.92C244.437 227.293 243.937 227.833 243.577 228.54C243.217 229.233 243.037 230.047 243.037 230.98C243.037 231.913 243.217 232.733 243.577 233.44C243.937 234.147 244.437 234.693 245.077 235.08C245.73 235.453 246.477 235.64 247.317 235.64ZM268.48 238H265.68L259.34 228.42V238H256.54V224.02H259.34L265.68 233.62V224.02H268.48V238ZM276.067 238.14C275.094 238.14 274.214 237.973 273.427 237.64C272.654 237.307 272.041 236.827 271.587 236.2C271.134 235.573 270.901 234.833 270.887 233.98H273.887C273.927 234.553 274.127 235.007 274.487 235.34C274.861 235.673 275.367 235.84 276.007 235.84C276.661 235.84 277.174 235.687 277.547 235.38C277.921 235.06 278.107 234.647 278.107 234.14C278.107 233.727 277.981 233.387 277.727 233.12C277.474 232.853 277.154 232.647 276.767 232.5C276.394 232.34 275.874 232.167 275.207 231.98C274.301 231.713 273.561 231.453 272.987 231.2C272.427 230.933 271.941 230.54 271.527 230.02C271.127 229.487 270.927 228.78 270.927 227.9C270.927 227.073 271.134 226.353 271.547 225.74C271.961 225.127 272.541 224.66 273.287 224.34C274.034 224.007 274.887 223.84 275.847 223.84C277.287 223.84 278.454 224.193 279.347 224.9C280.254 225.593 280.754 226.567 280.847 227.82H277.767C277.741 227.34 277.534 226.947 277.147 226.64C276.774 226.32 276.274 226.16 275.647 226.16C275.101 226.16 274.661 226.3 274.327 226.58C274.007 226.86 273.847 227.267 273.847 227.8C273.847 228.173 273.967 228.487 274.207 228.74C274.461 228.98 274.767 229.18 275.127 229.34C275.501 229.487 276.021 229.66 276.687 229.86C277.594 230.127 278.334 230.393 278.907 230.66C279.481 230.927 279.974 231.327 280.387 231.86C280.801 232.393 281.007 233.093 281.007 233.96C281.007 234.707 280.814 235.4 280.427 236.04C280.041 236.68 279.474 237.193 278.727 237.58C277.981 237.953 277.094 238.14 276.067 238.14ZM306.86 224.04L302.96 238H299.66L297.04 228.06L294.3 238L291.02 238.02L287.26 224.04H290.26L292.72 234.88L295.56 224.04H298.68L301.36 234.82L303.84 224.04H306.86ZM311.489 224.04V238H308.689V224.04H311.489ZM323.755 224.04V226.3H320.035V238H317.235V226.3H313.515V224.04H323.755ZM337.378 224.04V238H334.578V232.06H328.598V238H325.798V224.04H328.598V229.78H334.578V224.04H337.378ZM347.66 224.04V232.68C347.66 233.627 347.906 234.353 348.4 234.86C348.893 235.353 349.586 235.6 350.48 235.6C351.386 235.6 352.086 235.353 352.58 234.86C353.073 234.353 353.32 233.627 353.32 232.68V224.04H356.14V232.66C356.14 233.847 355.88 234.853 355.36 235.68C354.853 236.493 354.166 237.107 353.3 237.52C352.446 237.933 351.493 238.14 350.44 238.14C349.4 238.14 348.453 237.933 347.6 237.52C346.76 237.107 346.093 236.493 345.6 235.68C345.106 234.853 344.86 233.847 344.86 232.66V224.04H347.66ZM363.665 238.14C362.692 238.14 361.812 237.973 361.025 237.64C360.252 237.307 359.638 236.827 359.185 236.2C358.732 235.573 358.498 234.833 358.485 233.98H361.485C361.525 234.553 361.725 235.007 362.085 235.34C362.458 235.673 362.965 235.84 363.605 235.84C364.258 235.84 364.772 235.687 365.145 235.38C365.518 235.06 365.705 234.647 365.705 234.14C365.705 233.727 365.578 233.387 365.325 233.12C365.072 232.853 364.752 232.647 364.365 232.5C363.992 232.34 363.472 232.167 362.805 231.98C361.898 231.713 361.158 231.453 360.585 231.2C360.025 230.933 359.538 230.54 359.125 230.02C358.725 229.487 358.525 228.78 358.525 227.9C358.525 227.073 358.732 226.353 359.145 225.74C359.558 225.127 360.138 224.66 360.885 224.34C361.632 224.007 362.485 223.84 363.445 223.84C364.885 223.84 366.052 224.193 366.945 224.9C367.852 225.593 368.352 226.567 368.445 227.82H365.365C365.338 227.34 365.132 226.947 364.745 226.64C364.372 226.32 363.872 226.16 363.245 226.16C362.698 226.16 362.258 226.3 361.925 226.58C361.605 226.86 361.445 227.267 361.445 227.8C361.445 228.173 361.565 228.487 361.805 228.74C362.058 228.98 362.365 229.18 362.725 229.34C363.098 229.487 363.618 229.66 364.285 229.86C365.192 230.127 365.932 230.393 366.505 230.66C367.078 230.927 367.572 231.327 367.985 231.86C368.398 232.393 368.605 233.093 368.605 233.96C368.605 234.707 368.412 235.4 368.025 236.04C367.638 236.68 367.072 237.193 366.325 237.58C365.578 237.953 364.692 238.14 363.665 238.14Z" fill="white"/>
<rect x="131" y="154" width="140" height="39" rx="8" fill="#B000DC" fill-opacity="0.11"/>
<path d="M155.976 169.312V179H154.702V171.776L151.482 179H150.586L147.352 171.762V179H146.078V169.312H147.45L151.034 177.32L154.618 169.312H155.976ZM163.905 176.83H159.649L158.865 179H157.521L161.049 169.298H162.519L166.033 179H164.689L163.905 176.83ZM163.541 175.794L161.777 170.866L160.013 175.794H163.541ZM172.862 179L168.844 174.548V179H167.57V169.242H168.844V173.764L172.876 169.242H174.486L170.062 174.128L174.528 179H172.862ZM177.225 170.278V173.54H180.781V174.59H177.225V177.95H181.201V179H175.951V169.228H181.201V170.278H177.225ZM196.759 169.312V179H195.485V171.776L192.265 179H191.369L188.135 171.762V179H186.861V169.312H188.233L191.817 177.32L195.401 169.312H196.759ZM200.194 169.242V179H198.92V169.242H200.194ZM203.639 177.964H207.055V179H202.365V169.242H203.639V177.964ZM209.682 177.964H213.098V179H208.408V169.242H209.682V177.964ZM215.725 169.242V179H214.451V169.242H215.725ZM222.32 179.098C221.415 179.098 220.589 178.888 219.842 178.468C219.096 178.039 218.503 177.446 218.064 176.69C217.635 175.925 217.42 175.066 217.42 174.114C217.42 173.162 217.635 172.308 218.064 171.552C218.503 170.787 219.096 170.194 219.842 169.774C220.589 169.345 221.415 169.13 222.32 169.13C223.235 169.13 224.066 169.345 224.812 169.774C225.559 170.194 226.147 170.782 226.576 171.538C227.006 172.294 227.22 173.153 227.22 174.114C227.22 175.075 227.006 175.934 226.576 176.69C226.147 177.446 225.559 178.039 224.812 178.468C224.066 178.888 223.235 179.098 222.32 179.098ZM222.32 177.992C223.002 177.992 223.613 177.833 224.154 177.516C224.705 177.199 225.134 176.746 225.442 176.158C225.76 175.57 225.918 174.889 225.918 174.114C225.918 173.33 225.76 172.649 225.442 172.07C225.134 171.482 224.71 171.029 224.168 170.712C223.627 170.395 223.011 170.236 222.32 170.236C221.63 170.236 221.014 170.395 220.472 170.712C219.931 171.029 219.502 171.482 219.184 172.07C218.876 172.649 218.722 173.33 218.722 174.114C218.722 174.889 218.876 175.57 219.184 176.158C219.502 176.746 219.931 177.199 220.472 177.516C221.023 177.833 221.639 177.992 222.32 177.992ZM236.574 179H235.3L230.176 171.23V179H228.902V169.228H230.176L235.3 176.984V169.228H236.574V179ZM241.84 179.098C241.196 179.098 240.617 178.986 240.104 178.762C239.6 178.529 239.203 178.211 238.914 177.81C238.625 177.399 238.475 176.928 238.466 176.396H239.824C239.871 176.853 240.057 177.241 240.384 177.558C240.72 177.866 241.205 178.02 241.84 178.02C242.447 178.02 242.923 177.871 243.268 177.572C243.623 177.264 243.8 176.872 243.8 176.396C243.8 176.023 243.697 175.719 243.492 175.486C243.287 175.253 243.03 175.075 242.722 174.954C242.414 174.833 241.999 174.702 241.476 174.562C240.832 174.394 240.314 174.226 239.922 174.058C239.539 173.89 239.208 173.629 238.928 173.274C238.657 172.91 238.522 172.425 238.522 171.818C238.522 171.286 238.657 170.815 238.928 170.404C239.199 169.993 239.577 169.676 240.062 169.452C240.557 169.228 241.121 169.116 241.756 169.116C242.671 169.116 243.417 169.345 243.996 169.802C244.584 170.259 244.915 170.866 244.99 171.622H243.59C243.543 171.249 243.347 170.922 243.002 170.642C242.657 170.353 242.199 170.208 241.63 170.208C241.098 170.208 240.664 170.348 240.328 170.628C239.992 170.899 239.824 171.281 239.824 171.776C239.824 172.131 239.922 172.42 240.118 172.644C240.323 172.868 240.571 173.041 240.86 173.162C241.159 173.274 241.574 173.405 242.106 173.554C242.75 173.731 243.268 173.909 243.66 174.086C244.052 174.254 244.388 174.52 244.668 174.884C244.948 175.239 245.088 175.724 245.088 176.34C245.088 176.816 244.962 177.264 244.71 177.684C244.458 178.104 244.085 178.445 243.59 178.706C243.095 178.967 242.512 179.098 241.84 179.098Z" fill="white"/>
<defs>
<filter id="filter0_d_1_512" x="0" y="0" width="566" height="536" filterUnits="userSpaceOnUse" color-interpolation-filters="sRGB">
<feFlood flood-opacity="0" result="BackgroundImageFix"/>
<feColorMatrix in="SourceAlpha" type="matrix" values="0 0 0 0 0 0 0 0 0 0 0 0 0 0 0 0 0 0 127 0" result="hardAlpha"/>
<feOffset dy="4"/>
<feGaussianBlur stdDeviation="47"/>
<feColorMatrix type="matrix" values="0 0 0 0 0 0 0 0 0 0 0 0 0 0 0 0 0 0 0.15 0"/>
<feBlend mode="normal" in2="BackgroundImageFix" result="effect1_dropShadow_1_512"/>
<feBlend mode="normal" in="SourceGraphic" in2="effect1_dropShadow_1_512" result="shape"/>
</filter>
</defs>
</svg>
