<svg width="378" height="348" viewBox="0 0 378 348" fill="none" xmlns="http://www.w3.org/2000/svg">
<rect width="378" height="348" rx="20" fill="#1C140F"/>
<path d="M39.352 184.242V194H38.078V184.242H39.352ZM49.1953 194H47.9213L42.7973 186.23V194H41.5233V184.228H42.7973L47.9213 191.984V184.228H49.1953V194ZM54.4051 184.242C55.4691 184.242 56.3884 184.443 57.1631 184.844C57.9471 185.236 58.5444 185.801 58.9551 186.538C59.3751 187.275 59.5851 188.143 59.5851 189.142C59.5851 190.141 59.3751 191.009 58.9551 191.746C58.5444 192.474 57.9471 193.034 57.1631 193.426C56.3884 193.809 55.4691 194 54.4051 194H51.3671V184.242H54.4051ZM54.4051 192.95C55.6651 192.95 56.6264 192.619 57.2891 191.956C57.9517 191.284 58.2831 190.346 58.2831 189.142C58.2831 187.929 57.9471 186.981 57.2751 186.3C56.6124 185.619 55.6557 185.278 54.4051 185.278H52.6411V192.95H54.4051ZM62.5115 184.242V190.416C62.5115 191.284 62.7215 191.928 63.1415 192.348C63.5708 192.768 64.1635 192.978 64.9195 192.978C65.6662 192.978 66.2495 192.768 66.6695 192.348C67.0988 191.928 67.3135 191.284 67.3135 190.416V184.242H68.5875V190.402C68.5875 191.214 68.4242 191.9 68.0975 192.46C67.7708 193.011 67.3275 193.421 66.7675 193.692C66.2168 193.963 65.5962 194.098 64.9055 194.098C64.2148 194.098 63.5895 193.963 63.0295 193.692C62.4788 193.421 62.0402 193.011 61.7135 192.46C61.3962 191.9 61.2375 191.214 61.2375 190.402V184.242H62.5115ZM71.9868 192.964H75.4028V194H70.7128V184.242H71.9868V192.964ZM84.1477 187.07C83.8771 186.501 83.4851 186.062 82.9717 185.754C82.4584 185.437 81.8611 185.278 81.1797 185.278C80.4984 185.278 79.8824 185.437 79.3317 185.754C78.7904 186.062 78.3611 186.51 78.0437 187.098C77.7357 187.677 77.5817 188.349 77.5817 189.114C77.5817 189.879 77.7357 190.551 78.0437 191.13C78.3611 191.709 78.7904 192.157 79.3317 192.474C79.8824 192.782 80.4984 192.936 81.1797 192.936C82.1317 192.936 82.9157 192.651 83.5317 192.082C84.1477 191.513 84.5071 190.743 84.6097 189.772H80.7177V188.736H85.9677V189.716C85.8931 190.519 85.6411 191.256 85.2117 191.928C84.7824 192.591 84.2177 193.118 83.5177 193.51C82.8177 193.893 82.0384 194.084 81.1797 194.084C80.2744 194.084 79.4484 193.874 78.7017 193.454C77.9551 193.025 77.3624 192.432 76.9237 191.676C76.4944 190.92 76.2797 190.066 76.2797 189.114C76.2797 188.162 76.4944 187.308 76.9237 186.552C77.3624 185.787 77.9551 185.194 78.7017 184.774C79.4484 184.345 80.2744 184.13 81.1797 184.13C82.2157 184.13 83.1304 184.387 83.9237 184.9C84.7264 185.413 85.3097 186.137 85.6737 187.07H84.1477ZM88.9262 185.278V188.54H92.4822V189.59H88.9262V192.95H92.9022V194H87.6522V184.228H92.9022V185.278H88.9262ZM99.8364 184.242V194H98.5624V184.242H99.8364ZM109.68 194H108.406L103.282 186.23V194H102.008V184.228H103.282L108.406 191.984V184.228H109.68V194ZM120.008 194.098C119.103 194.098 118.277 193.888 117.53 193.468C116.783 193.039 116.191 192.446 115.752 191.69C115.323 190.925 115.108 190.066 115.108 189.114C115.108 188.162 115.323 187.308 115.752 186.552C116.191 185.787 116.783 185.194 117.53 184.774C118.277 184.345 119.103 184.13 120.008 184.13C120.923 184.13 121.753 184.345 122.5 184.774C123.247 185.194 123.835 185.782 124.264 186.538C124.693 187.294 124.908 188.153 124.908 189.114C124.908 190.075 124.693 190.934 124.264 191.69C123.835 192.446 123.247 193.039 122.5 193.468C121.753 193.888 120.923 194.098 120.008 194.098ZM120.008 192.992C120.689 192.992 121.301 192.833 121.842 192.516C122.393 192.199 122.822 191.746 123.13 191.158C123.447 190.57 123.606 189.889 123.606 189.114C123.606 188.33 123.447 187.649 123.13 187.07C122.822 186.482 122.397 186.029 121.856 185.712C121.315 185.395 120.699 185.236 120.008 185.236C119.317 185.236 118.701 185.395 118.16 185.712C117.619 186.029 117.189 186.482 116.872 187.07C116.564 187.649 116.41 188.33 116.41 189.114C116.41 189.889 116.564 190.57 116.872 191.158C117.189 191.746 117.619 192.199 118.16 192.516C118.711 192.833 119.327 192.992 120.008 192.992ZM127.836 184.242V190.416C127.836 191.284 128.046 191.928 128.466 192.348C128.895 192.768 129.488 192.978 130.244 192.978C130.99 192.978 131.574 192.768 131.994 192.348C132.423 191.928 132.638 191.284 132.638 190.416V184.242H133.912V190.402C133.912 191.214 133.748 191.9 133.422 192.46C133.095 193.011 132.652 193.421 132.092 193.692C131.541 193.963 130.92 194.098 130.23 194.098C129.539 194.098 128.914 193.963 128.354 193.692C127.803 193.421 127.364 193.011 127.038 192.46C126.72 191.9 126.562 191.214 126.562 190.402V184.242H127.836ZM141.175 194L138.851 190.01H137.311V194H136.037V184.242H139.187C139.924 184.242 140.545 184.368 141.049 184.62C141.562 184.872 141.945 185.213 142.197 185.642C142.449 186.071 142.575 186.561 142.575 187.112C142.575 187.784 142.379 188.377 141.987 188.89C141.604 189.403 141.026 189.744 140.251 189.912L142.701 194H141.175ZM137.311 188.988H139.187C139.878 188.988 140.396 188.82 140.741 188.484C141.086 188.139 141.259 187.681 141.259 187.112C141.259 186.533 141.086 186.085 140.741 185.768C140.405 185.451 139.887 185.292 139.187 185.292H137.311V188.988ZM158.185 184.312V194H156.911V186.776L153.691 194H152.795L149.561 186.762V194H148.287V184.312H149.659L153.243 192.32L156.827 184.312H158.185ZM166.114 191.83H161.858L161.074 194H159.73L163.258 184.298H164.728L168.242 194H166.898L166.114 191.83ZM165.75 190.794L163.986 185.866L162.222 190.794H165.75ZM177.451 194H176.177L171.053 186.23V194H169.779V184.228H171.053L176.177 191.984V184.228H177.451V194ZM186.455 184.242L183.277 190.318V194H182.003V190.318L178.811 184.242H180.225L182.633 189.184L185.041 184.242H186.455ZM196.417 188.974C196.772 189.03 197.094 189.175 197.383 189.408C197.682 189.641 197.915 189.931 198.083 190.276C198.26 190.621 198.349 190.99 198.349 191.382C198.349 191.877 198.223 192.325 197.971 192.726C197.719 193.118 197.35 193.431 196.865 193.664C196.389 193.888 195.824 194 195.171 194H191.531V184.242H195.031C195.694 184.242 196.258 184.354 196.725 184.578C197.192 184.793 197.542 185.087 197.775 185.46C198.008 185.833 198.125 186.253 198.125 186.72C198.125 187.299 197.966 187.779 197.649 188.162C197.341 188.535 196.93 188.806 196.417 188.974ZM192.805 188.456H194.947C195.544 188.456 196.006 188.316 196.333 188.036C196.66 187.756 196.823 187.369 196.823 186.874C196.823 186.379 196.66 185.992 196.333 185.712C196.006 185.432 195.535 185.292 194.919 185.292H192.805V188.456ZM195.059 192.95C195.694 192.95 196.188 192.801 196.543 192.502C196.898 192.203 197.075 191.788 197.075 191.256C197.075 190.715 196.888 190.29 196.515 189.982C196.142 189.665 195.642 189.506 195.017 189.506H192.805V192.95H195.059ZM201.391 185.278V188.54H204.947V189.59H201.391V192.95H205.367V194H200.117V184.228H205.367V185.278H201.391ZM214.967 194H213.693L208.569 186.23V194H207.295V184.228H208.569L213.693 191.984V184.228H214.967V194ZM218.413 185.278V188.54H221.969V189.59H218.413V192.95H222.389V194H217.139V184.228H222.389V185.278H218.413ZM229.832 184.242V185.278H225.59V188.568H229.034V189.604H225.59V194H224.316V184.242H229.832ZM232.645 184.242V194H231.371V184.242H232.645ZM240.822 184.242V185.278H238.162V194H236.888V185.278H234.214V184.242H240.822ZM245.485 194.098C244.841 194.098 244.262 193.986 243.749 193.762C243.245 193.529 242.848 193.211 242.559 192.81C242.269 192.399 242.12 191.928 242.111 191.396H243.469C243.515 191.853 243.702 192.241 244.029 192.558C244.365 192.866 244.85 193.02 245.485 193.02C246.091 193.02 246.567 192.871 246.913 192.572C247.267 192.264 247.445 191.872 247.445 191.396C247.445 191.023 247.342 190.719 247.137 190.486C246.931 190.253 246.675 190.075 246.367 189.954C246.059 189.833 245.643 189.702 245.121 189.562C244.477 189.394 243.959 189.226 243.567 189.058C243.184 188.89 242.853 188.629 242.573 188.274C242.302 187.91 242.167 187.425 242.167 186.818C242.167 186.286 242.302 185.815 242.573 185.404C242.843 184.993 243.221 184.676 243.707 184.452C244.201 184.228 244.766 184.116 245.401 184.116C246.315 184.116 247.062 184.345 247.641 184.802C248.229 185.259 248.56 185.866 248.635 186.622H247.235C247.188 186.249 246.992 185.922 246.647 185.642C246.301 185.353 245.844 185.208 245.275 185.208C244.743 185.208 244.309 185.348 243.973 185.628C243.637 185.899 243.469 186.281 243.469 186.776C243.469 187.131 243.567 187.42 243.763 187.644C243.968 187.868 244.215 188.041 244.505 188.162C244.803 188.274 245.219 188.405 245.751 188.554C246.395 188.731 246.913 188.909 247.305 189.086C247.697 189.254 248.033 189.52 248.312 189.884C248.593 190.239 248.733 190.724 248.733 191.34C248.733 191.816 248.607 192.264 248.355 192.684C248.103 193.104 247.729 193.445 247.235 193.706C246.74 193.967 246.157 194.098 245.485 194.098ZM255.614 184.242V194H254.34V184.242H255.614ZM265.457 194H264.183L259.059 186.23V194H257.785V184.228H259.059L264.183 191.984V184.228H265.457V194ZM267.153 189.114C267.153 188.162 267.367 187.308 267.797 186.552C268.226 185.787 268.809 185.189 269.547 184.76C270.293 184.331 271.119 184.116 272.025 184.116C273.089 184.116 274.017 184.373 274.811 184.886C275.604 185.399 276.183 186.127 276.547 187.07H275.021C274.75 186.482 274.358 186.029 273.845 185.712C273.341 185.395 272.734 185.236 272.025 185.236C271.343 185.236 270.732 185.395 270.191 185.712C269.649 186.029 269.225 186.482 268.917 187.07C268.609 187.649 268.455 188.33 268.455 189.114C268.455 189.889 268.609 190.57 268.917 191.158C269.225 191.737 269.649 192.185 270.191 192.502C270.732 192.819 271.343 192.978 272.025 192.978C272.734 192.978 273.341 192.824 273.845 192.516C274.358 192.199 274.75 191.746 275.021 191.158H276.547C276.183 192.091 275.604 192.815 274.811 193.328C274.017 193.832 273.089 194.084 272.025 194.084C271.119 194.084 270.293 193.874 269.547 193.454C268.809 193.025 268.226 192.432 267.797 191.676C267.367 190.92 267.153 190.066 267.153 189.114ZM279.717 192.964H283.133V194H278.443V184.242H279.717V192.964ZM285.732 184.242V190.416C285.732 191.284 285.942 191.928 286.362 192.348C286.792 192.768 287.384 192.978 288.14 192.978C288.887 192.978 289.47 192.768 289.89 192.348C290.32 191.928 290.534 191.284 290.534 190.416V184.242H291.808V190.402C291.808 191.214 291.645 191.9 291.318 192.46C290.992 193.011 290.548 193.421 289.988 193.692C289.438 193.963 288.817 194.098 288.126 194.098C287.436 194.098 286.81 193.963 286.25 193.692C285.7 193.421 285.261 193.011 284.934 192.46C284.617 191.9 284.458 191.214 284.458 190.402V184.242H285.732ZM296.971 184.242C298.035 184.242 298.955 184.443 299.729 184.844C300.513 185.236 301.111 185.801 301.521 186.538C301.941 187.275 302.151 188.143 302.151 189.142C302.151 190.141 301.941 191.009 301.521 191.746C301.111 192.474 300.513 193.034 299.729 193.426C298.955 193.809 298.035 194 296.971 194H293.933V184.242H296.971ZM296.971 192.95C298.231 192.95 299.193 192.619 299.855 191.956C300.518 191.284 300.849 190.346 300.849 189.142C300.849 187.929 300.513 186.981 299.841 186.3C299.179 185.619 298.222 185.278 296.971 185.278H295.207V192.95H296.971ZM305.106 184.242V194H303.832V184.242H305.106ZM314.949 194H313.675L308.551 186.23V194H307.277V184.228H308.551L313.675 191.984V184.228H314.949V194ZM324.513 187.07C324.242 186.501 323.85 186.062 323.337 185.754C322.824 185.437 322.226 185.278 321.545 185.278C320.864 185.278 320.248 185.437 319.697 185.754C319.156 186.062 318.726 186.51 318.409 187.098C318.101 187.677 317.947 188.349 317.947 189.114C317.947 189.879 318.101 190.551 318.409 191.13C318.726 191.709 319.156 192.157 319.697 192.474C320.248 192.782 320.864 192.936 321.545 192.936C322.497 192.936 323.281 192.651 323.897 192.082C324.513 191.513 324.872 190.743 324.975 189.772H321.083V188.736H326.333V189.716C326.258 190.519 326.006 191.256 325.577 191.928C325.148 192.591 324.583 193.118 323.883 193.51C323.183 193.893 322.404 194.084 321.545 194.084C320.64 194.084 319.814 193.874 319.067 193.454C318.32 193.025 317.728 192.432 317.289 191.676C316.86 190.92 316.645 190.066 316.645 189.114C316.645 188.162 316.86 187.308 317.289 186.552C317.728 185.787 318.32 185.194 319.067 184.774C319.814 184.345 320.64 184.13 321.545 184.13C322.581 184.13 323.496 184.387 324.289 184.9C325.092 185.413 325.675 186.137 326.039 187.07H324.513ZM44.322 210.984H39.408V214.176C39.6227 213.877 39.94 213.635 40.36 213.448C40.78 213.252 41.2327 213.154 41.718 213.154C42.4927 213.154 43.1227 213.317 43.608 213.644C44.0933 213.961 44.4387 214.377 44.644 214.89C44.8587 215.394 44.966 215.931 44.966 216.5C44.966 217.172 44.84 217.774 44.588 218.306C44.336 218.838 43.9487 219.258 43.426 219.566C42.9127 219.874 42.2733 220.028 41.508 220.028C40.528 220.028 39.7347 219.776 39.128 219.272C38.5213 218.768 38.1527 218.096 38.022 217.256H39.268C39.3893 217.788 39.646 218.203 40.038 218.502C40.43 218.801 40.9247 218.95 41.522 218.95C42.2593 218.95 42.8147 218.731 43.188 218.292C43.5613 217.844 43.748 217.256 43.748 216.528C43.748 215.8 43.5613 215.24 43.188 214.848C42.8147 214.447 42.264 214.246 41.536 214.246C41.0413 214.246 40.6073 214.367 40.234 214.61C39.87 214.843 39.604 215.165 39.436 215.576H38.232V209.864H44.322V210.984ZM46.659 214.834C46.659 213.229 46.9203 211.978 47.443 211.082C47.9657 210.177 48.8803 209.724 50.187 209.724C51.4843 209.724 52.3943 210.177 52.917 211.082C53.4397 211.978 53.701 213.229 53.701 214.834C53.701 216.467 53.4397 217.737 52.917 218.642C52.3943 219.547 51.4843 220 50.187 220C48.8803 220 47.9657 219.547 47.443 218.642C46.9203 217.737 46.659 216.467 46.659 214.834ZM52.441 214.834C52.441 214.022 52.385 213.336 52.273 212.776C52.1703 212.207 51.951 211.749 51.615 211.404C51.2883 211.059 50.8123 210.886 50.187 210.886C49.5523 210.886 49.067 211.059 48.731 211.404C48.4043 211.749 48.185 212.207 48.073 212.776C47.9703 213.336 47.919 214.022 47.919 214.834C47.919 215.674 47.9703 216.379 48.073 216.948C48.185 217.517 48.4043 217.975 48.731 218.32C49.067 218.665 49.5523 218.838 50.187 218.838C50.8123 218.838 51.2883 218.665 51.615 218.32C51.951 217.975 52.1703 217.517 52.273 216.948C52.385 216.379 52.441 215.674 52.441 214.834ZM55.17 212.16C55.17 211.525 55.3614 211.021 55.744 210.648C56.1267 210.265 56.6167 210.074 57.214 210.074C57.8114 210.074 58.3014 210.265 58.684 210.648C59.0667 211.021 59.258 211.525 59.258 212.16C59.258 212.804 59.0667 213.317 58.684 213.7C58.3014 214.073 57.8114 214.26 57.214 214.26C56.6167 214.26 56.1267 214.073 55.744 213.7C55.3614 213.317 55.17 212.804 55.17 212.16ZM63.346 210.228L57.676 220H56.416L62.086 210.228H63.346ZM57.214 210.858C56.8967 210.858 56.6447 210.97 56.458 211.194C56.2807 211.409 56.192 211.731 56.192 212.16C56.192 212.589 56.2807 212.916 56.458 213.14C56.6447 213.364 56.8967 213.476 57.214 213.476C57.5314 213.476 57.7834 213.364 57.97 213.14C58.1567 212.907 58.25 212.58 58.25 212.16C58.25 211.731 58.1567 211.409 57.97 211.194C57.7834 210.97 57.5314 210.858 57.214 210.858ZM60.532 218.068C60.532 217.424 60.7234 216.915 61.106 216.542C61.4887 216.159 61.9787 215.968 62.576 215.968C63.1734 215.968 63.6587 216.159 64.032 216.542C64.4147 216.915 64.606 217.424 64.606 218.068C64.606 218.703 64.4147 219.211 64.032 219.594C63.6587 219.977 63.1734 220.168 62.576 220.168C61.9787 220.168 61.4887 219.981 61.106 219.608C60.7234 219.225 60.532 218.712 60.532 218.068ZM62.562 216.766C62.2447 216.766 61.9927 216.878 61.806 217.102C61.6194 217.317 61.526 217.639 61.526 218.068C61.526 218.488 61.6194 218.81 61.806 219.034C61.9927 219.249 62.2447 219.356 62.562 219.356C62.8794 219.356 63.1314 219.249 63.318 219.034C63.5047 218.81 63.598 218.488 63.598 218.068C63.598 217.639 63.5047 217.317 63.318 217.102C63.1314 216.878 62.8794 216.766 62.562 216.766ZM73.0535 210.242C74.1175 210.242 75.0368 210.443 75.8115 210.844C76.5955 211.236 77.1928 211.801 77.6035 212.538C78.0235 213.275 78.2335 214.143 78.2335 215.142C78.2335 216.141 78.0235 217.009 77.6035 217.746C77.1928 218.474 76.5955 219.034 75.8115 219.426C75.0368 219.809 74.1175 220 73.0535 220H70.0155V210.242H73.0535ZM73.0535 218.95C74.3135 218.95 75.2748 218.619 75.9375 217.956C76.6002 217.284 76.9315 216.346 76.9315 215.142C76.9315 213.929 76.5955 212.981 75.9235 212.3C75.2608 211.619 74.3042 211.278 73.0535 211.278H71.2895V218.95H73.0535ZM81.1879 210.242V220H79.9139V210.242H81.1879ZM86.4533 220.098C85.8093 220.098 85.2306 219.986 84.7173 219.762C84.2133 219.529 83.8166 219.211 83.5273 218.81C83.2379 218.399 83.0886 217.928 83.0793 217.396H84.4373C84.4839 217.853 84.6706 218.241 84.9973 218.558C85.3333 218.866 85.8186 219.02 86.4533 219.02C87.0599 219.02 87.5359 218.871 87.8813 218.572C88.2359 218.264 88.4133 217.872 88.4133 217.396C88.4133 217.023 88.3106 216.719 88.1053 216.486C87.8999 216.253 87.6433 216.075 87.3353 215.954C87.0273 215.833 86.6119 215.702 86.0893 215.562C85.4453 215.394 84.9273 215.226 84.5353 215.058C84.1526 214.89 83.8213 214.629 83.5413 214.274C83.2706 213.91 83.1353 213.425 83.1353 212.818C83.1353 212.286 83.2706 211.815 83.5413 211.404C83.8119 210.993 84.1899 210.676 84.6753 210.452C85.1699 210.228 85.7346 210.116 86.3693 210.116C87.2839 210.116 88.0306 210.345 88.6093 210.802C89.1973 211.259 89.5286 211.866 89.6033 212.622H88.2033C88.1566 212.249 87.9606 211.922 87.6153 211.642C87.2699 211.353 86.8126 211.208 86.2433 211.208C85.7113 211.208 85.2773 211.348 84.9413 211.628C84.6053 211.899 84.4373 212.281 84.4373 212.776C84.4373 213.131 84.5353 213.42 84.7313 213.644C84.9366 213.868 85.1839 214.041 85.4733 214.162C85.7719 214.274 86.1873 214.405 86.7193 214.554C87.3633 214.731 87.8813 214.909 88.2733 215.086C88.6653 215.254 89.0013 215.52 89.2812 215.884C89.5613 216.239 89.7013 216.724 89.7013 217.34C89.7013 217.816 89.5753 218.264 89.3233 218.684C89.0713 219.104 88.6979 219.445 88.2033 219.706C87.7086 219.967 87.1253 220.098 86.4533 220.098ZM91.1 215.114C91.1 214.162 91.3147 213.308 91.744 212.552C92.1734 211.787 92.7567 211.189 93.494 210.76C94.2407 210.331 95.0667 210.116 95.972 210.116C97.036 210.116 97.9647 210.373 98.758 210.886C99.5514 211.399 100.13 212.127 100.494 213.07H98.968C98.6974 212.482 98.3054 212.029 97.792 211.712C97.288 211.395 96.6814 211.236 95.972 211.236C95.2907 211.236 94.6794 211.395 94.138 211.712C93.5967 212.029 93.172 212.482 92.864 213.07C92.556 213.649 92.402 214.33 92.402 215.114C92.402 215.889 92.556 216.57 92.864 217.158C93.172 217.737 93.5967 218.185 94.138 218.502C94.6794 218.819 95.2907 218.978 95.972 218.978C96.6814 218.978 97.288 218.824 97.792 218.516C98.3054 218.199 98.6974 217.746 98.968 217.158H100.494C100.13 218.091 99.5514 218.815 98.758 219.328C97.9647 219.832 97.036 220.084 95.972 220.084C95.0667 220.084 94.2407 219.874 93.494 219.454C92.7567 219.025 92.1734 218.432 91.744 217.676C91.3147 216.92 91.1 216.066 91.1 215.114ZM106.815 220.098C105.909 220.098 105.083 219.888 104.337 219.468C103.59 219.039 102.997 218.446 102.559 217.69C102.129 216.925 101.915 216.066 101.915 215.114C101.915 214.162 102.129 213.308 102.559 212.552C102.997 211.787 103.59 211.194 104.337 210.774C105.083 210.345 105.909 210.13 106.815 210.13C107.729 210.13 108.56 210.345 109.307 210.774C110.053 211.194 110.641 211.782 111.071 212.538C111.5 213.294 111.715 214.153 111.715 215.114C111.715 216.075 111.5 216.934 111.071 217.69C110.641 218.446 110.053 219.039 109.307 219.468C108.56 219.888 107.729 220.098 106.815 220.098ZM106.815 218.992C107.496 218.992 108.107 218.833 108.649 218.516C109.199 218.199 109.629 217.746 109.937 217.158C110.254 216.57 110.413 215.889 110.413 215.114C110.413 214.33 110.254 213.649 109.937 213.07C109.629 212.482 109.204 212.029 108.663 211.712C108.121 211.395 107.505 211.236 106.815 211.236C106.124 211.236 105.508 211.395 104.967 211.712C104.425 212.029 103.996 212.482 103.679 213.07C103.371 213.649 103.217 214.33 103.217 215.114C103.217 215.889 103.371 216.57 103.679 217.158C103.996 217.746 104.425 218.199 104.967 218.516C105.517 218.833 106.133 218.992 106.815 218.992ZM114.642 210.242V216.416C114.642 217.284 114.852 217.928 115.272 218.348C115.702 218.768 116.294 218.978 117.05 218.978C117.797 218.978 118.38 218.768 118.8 218.348C119.23 217.928 119.444 217.284 119.444 216.416V210.242H120.718V216.402C120.718 217.214 120.555 217.9 120.228 218.46C119.902 219.011 119.458 219.421 118.898 219.692C118.348 219.963 117.727 220.098 117.036 220.098C116.346 220.098 115.72 219.963 115.16 219.692C114.61 219.421 114.171 219.011 113.844 218.46C113.527 217.9 113.368 217.214 113.368 216.402V210.242H114.642ZM130.516 220H129.242L124.118 212.23V220H122.844V210.228H124.118L129.242 217.984V210.228H130.516V220ZM138.693 210.242V211.278H136.033V220H134.759V211.278H132.085V210.242H138.693ZM143.356 220.098C142.712 220.098 142.133 219.986 141.62 219.762C141.116 219.529 140.719 219.211 140.43 218.81C140.14 218.399 139.991 217.928 139.982 217.396H141.34C141.386 217.853 141.573 218.241 141.9 218.558C142.236 218.866 142.721 219.02 143.356 219.02C143.962 219.02 144.438 218.871 144.784 218.572C145.138 218.264 145.316 217.872 145.316 217.396C145.316 217.023 145.213 216.719 145.008 216.486C144.802 216.253 144.546 216.075 144.238 215.954C143.93 215.833 143.514 215.702 142.992 215.562C142.348 215.394 141.83 215.226 141.438 215.058C141.055 214.89 140.724 214.629 140.444 214.274C140.173 213.91 140.038 213.425 140.038 212.818C140.038 212.286 140.173 211.815 140.444 211.404C140.714 210.993 141.092 210.676 141.578 210.452C142.072 210.228 142.637 210.116 143.272 210.116C144.186 210.116 144.933 210.345 145.512 210.802C146.1 211.259 146.431 211.866 146.506 212.622H145.106C145.059 212.249 144.863 211.922 144.518 211.642C144.172 211.353 143.715 211.208 143.146 211.208C142.614 211.208 142.18 211.348 141.844 211.628C141.508 211.899 141.34 212.281 141.34 212.776C141.34 213.131 141.438 213.42 141.634 213.644C141.839 213.868 142.086 214.041 142.376 214.162C142.674 214.274 143.09 214.405 143.622 214.554C144.266 214.731 144.784 214.909 145.176 215.086C145.568 215.254 145.904 215.52 146.184 215.884C146.464 216.239 146.604 216.724 146.604 217.34C146.604 217.816 146.478 218.264 146.226 218.684C145.974 219.104 145.6 219.445 145.106 219.706C144.611 219.967 144.028 220.098 143.356 220.098ZM157.979 217.83H153.723L152.939 220H151.595L155.123 210.298H156.593L160.107 220H158.763L157.979 217.83ZM157.615 216.794L155.851 211.866L154.087 216.794H157.615ZM167.65 210.242V211.278H164.99V220H163.716V211.278H161.042V210.242H167.65ZM180.343 213.07C180.072 212.501 179.68 212.062 179.167 211.754C178.654 211.437 178.056 211.278 177.375 211.278C176.694 211.278 176.078 211.437 175.527 211.754C174.986 212.062 174.556 212.51 174.239 213.098C173.931 213.677 173.777 214.349 173.777 215.114C173.777 215.879 173.931 216.551 174.239 217.13C174.556 217.709 174.986 218.157 175.527 218.474C176.078 218.782 176.694 218.936 177.375 218.936C178.327 218.936 179.111 218.651 179.727 218.082C180.343 217.513 180.702 216.743 180.805 215.772H176.913V214.736H182.163V215.716C182.088 216.519 181.836 217.256 181.407 217.928C180.978 218.591 180.413 219.118 179.713 219.51C179.013 219.893 178.234 220.084 177.375 220.084C176.47 220.084 175.644 219.874 174.897 219.454C174.15 219.025 173.558 218.432 173.119 217.676C172.69 216.92 172.475 216.066 172.475 215.114C172.475 214.162 172.69 213.308 173.119 212.552C173.558 211.787 174.15 211.194 174.897 210.774C175.644 210.345 176.47 210.13 177.375 210.13C178.411 210.13 179.326 210.387 180.119 210.9C180.922 211.413 181.505 212.137 181.869 213.07H180.343ZM185.094 210.242V216.416C185.094 217.284 185.304 217.928 185.724 218.348C186.153 218.768 186.746 218.978 187.502 218.978C188.248 218.978 188.832 218.768 189.252 218.348C189.681 217.928 189.896 217.284 189.896 216.416V210.242H191.17V216.402C191.17 217.214 191.006 217.9 190.68 218.46C190.353 219.011 189.91 219.421 189.35 219.692C188.799 219.963 188.178 220.098 187.488 220.098C186.797 220.098 186.172 219.963 185.612 219.692C185.061 219.421 184.622 219.011 184.296 218.46C183.978 217.9 183.82 217.214 183.82 216.402V210.242H185.094ZM192.819 215.114C192.819 214.162 193.033 213.308 193.463 212.552C193.892 211.787 194.475 211.189 195.213 210.76C195.959 210.331 196.785 210.116 197.691 210.116C198.755 210.116 199.683 210.373 200.477 210.886C201.27 211.399 201.849 212.127 202.213 213.07H200.687C200.416 212.482 200.024 212.029 199.511 211.712C199.007 211.395 198.4 211.236 197.691 211.236C197.009 211.236 196.398 211.395 195.857 211.712C195.315 212.029 194.891 212.482 194.583 213.07C194.275 213.649 194.121 214.33 194.121 215.114C194.121 215.889 194.275 216.57 194.583 217.158C194.891 217.737 195.315 218.185 195.857 218.502C196.398 218.819 197.009 218.978 197.691 218.978C198.4 218.978 199.007 218.824 199.511 218.516C200.024 218.199 200.416 217.746 200.687 217.158H202.213C201.849 218.091 201.27 218.815 200.477 219.328C199.683 219.832 198.755 220.084 197.691 220.084C196.785 220.084 195.959 219.874 195.213 219.454C194.475 219.025 193.892 218.432 193.463 217.676C193.033 216.92 192.819 216.066 192.819 215.114ZM203.633 215.114C203.633 214.162 203.848 213.308 204.277 212.552C204.707 211.787 205.29 211.189 206.027 210.76C206.774 210.331 207.6 210.116 208.505 210.116C209.569 210.116 210.498 210.373 211.291 210.886C212.085 211.399 212.663 212.127 213.027 213.07H211.501C211.231 212.482 210.839 212.029 210.325 211.712C209.821 211.395 209.215 211.236 208.505 211.236C207.824 211.236 207.213 211.395 206.671 211.712C206.13 212.029 205.705 212.482 205.397 213.07C205.089 213.649 204.935 214.33 204.935 215.114C204.935 215.889 205.089 216.57 205.397 217.158C205.705 217.737 206.13 218.185 206.671 218.502C207.213 218.819 207.824 218.978 208.505 218.978C209.215 218.978 209.821 218.824 210.325 218.516C210.839 218.199 211.231 217.746 211.501 217.158H213.027C212.663 218.091 212.085 218.815 211.291 219.328C210.498 219.832 209.569 220.084 208.505 220.084C207.6 220.084 206.774 219.874 206.027 219.454C205.29 219.025 204.707 218.432 204.277 217.676C203.848 216.92 203.633 216.066 203.633 215.114ZM216.198 210.242V220H214.924V210.242H216.198ZM227.869 217.83H223.613L222.829 220H221.485L225.013 210.298H226.483L229.997 220H228.653L227.869 217.83ZM227.505 216.794L225.741 211.866L223.977 216.794H227.505ZM239.207 220H237.933L232.809 212.23V220H231.535V210.228H232.809L237.933 217.984V210.228H239.207V220ZM244.417 210.242C245.481 210.242 246.4 210.443 247.175 210.844C247.959 211.236 248.556 211.801 248.967 212.538C249.387 213.275 249.597 214.143 249.597 215.142C249.597 216.141 249.387 217.009 248.967 217.746C248.556 218.474 247.959 219.034 247.175 219.426C246.4 219.809 245.481 220 244.417 220H241.379V210.242H244.417ZM244.417 218.95C245.677 218.95 246.638 218.619 247.301 217.956C247.963 217.284 248.295 216.346 248.295 215.142C248.295 213.929 247.959 212.981 247.287 212.3C246.624 211.619 245.667 211.278 244.417 211.278H242.653V218.95H244.417ZM256.284 218.964H259.7V220H255.01V210.242H256.284V218.964ZM265.477 220.098C264.571 220.098 263.745 219.888 262.999 219.468C262.252 219.039 261.659 218.446 261.221 217.69C260.791 216.925 260.577 216.066 260.577 215.114C260.577 214.162 260.791 213.308 261.221 212.552C261.659 211.787 262.252 211.194 262.999 210.774C263.745 210.345 264.571 210.13 265.477 210.13C266.391 210.13 267.222 210.345 267.969 210.774C268.715 211.194 269.303 211.782 269.733 212.538C270.162 213.294 270.377 214.153 270.377 215.114C270.377 216.075 270.162 216.934 269.733 217.69C269.303 218.446 268.715 219.039 267.969 219.468C267.222 219.888 266.391 220.098 265.477 220.098ZM265.477 218.992C266.158 218.992 266.769 218.833 267.311 218.516C267.861 218.199 268.291 217.746 268.599 217.158C268.916 216.57 269.075 215.889 269.075 215.114C269.075 214.33 268.916 213.649 268.599 213.07C268.291 212.482 267.866 212.029 267.325 211.712C266.783 211.395 266.167 211.236 265.477 211.236C264.786 211.236 264.17 211.395 263.629 211.712C263.087 212.029 262.658 212.482 262.341 213.07C262.033 213.649 261.879 214.33 261.879 215.114C261.879 215.889 262.033 216.57 262.341 217.158C262.658 217.746 263.087 218.199 263.629 218.516C264.179 218.833 264.795 218.992 265.477 218.992ZM273.304 210.242V216.416C273.304 217.284 273.514 217.928 273.934 218.348C274.364 218.768 274.956 218.978 275.712 218.978C276.459 218.978 277.042 218.768 277.462 218.348C277.892 217.928 278.106 217.284 278.106 216.416V210.242H279.38V216.402C279.38 217.214 279.217 217.9 278.89 218.46C278.564 219.011 278.12 219.421 277.56 219.692C277.01 219.963 276.389 220.098 275.698 220.098C275.008 220.098 274.382 219.963 273.822 219.692C273.272 219.421 272.833 219.011 272.506 218.46C272.189 217.9 272.03 217.214 272.03 216.402V210.242H273.304ZM282.78 210.242V220H281.506V210.242H282.78ZM288.045 220.098C287.401 220.098 286.822 219.986 286.309 219.762C285.805 219.529 285.408 219.211 285.119 218.81C284.83 218.399 284.68 217.928 284.671 217.396H286.029C286.076 217.853 286.262 218.241 286.589 218.558C286.925 218.866 287.41 219.02 288.045 219.02C288.652 219.02 289.128 218.871 289.473 218.572C289.828 218.264 290.005 217.872 290.005 217.396C290.005 217.023 289.902 216.719 289.697 216.486C289.492 216.253 289.235 216.075 288.927 215.954C288.619 215.833 288.204 215.702 287.681 215.562C287.037 215.394 286.519 215.226 286.127 215.058C285.744 214.89 285.413 214.629 285.133 214.274C284.862 213.91 284.727 213.425 284.727 212.818C284.727 212.286 284.862 211.815 285.133 211.404C285.404 210.993 285.782 210.676 286.267 210.452C286.762 210.228 287.326 210.116 287.961 210.116C288.876 210.116 289.622 210.345 290.201 210.802C290.789 211.259 291.12 211.866 291.195 212.622H289.795C289.748 212.249 289.552 211.922 289.207 211.642C288.862 211.353 288.404 211.208 287.835 211.208C287.303 211.208 286.869 211.348 286.533 211.628C286.197 211.899 286.029 212.281 286.029 212.776C286.029 213.131 286.127 213.42 286.323 213.644C286.528 213.868 286.776 214.041 287.065 214.162C287.364 214.274 287.779 214.405 288.311 214.554C288.955 214.731 289.473 214.909 289.865 215.086C290.257 215.254 290.593 215.52 290.873 215.884C291.153 216.239 291.293 216.724 291.293 217.34C291.293 217.816 291.167 218.264 290.915 218.684C290.663 219.104 290.29 219.445 289.795 219.706C289.3 219.967 288.717 220.098 288.045 220.098ZM46.142 236.242L42.46 246H40.99L37.308 236.242H38.666L41.732 244.656L44.798 236.242H46.142ZM48.7849 236.242V242.416C48.7849 243.284 48.9949 243.928 49.4149 244.348C49.8443 244.768 50.4369 244.978 51.1929 244.978C51.9396 244.978 52.5229 244.768 52.9429 244.348C53.3723 243.928 53.5869 243.284 53.5869 242.416V236.242H54.8609V242.402C54.8609 243.214 54.6976 243.9 54.3709 244.46C54.0443 245.011 53.6009 245.421 53.0409 245.692C52.4903 245.963 51.8696 246.098 51.1789 246.098C50.4883 246.098 49.8629 245.963 49.3029 245.692C48.7523 245.421 48.3136 245.011 47.9869 244.46C47.6696 243.9 47.5109 243.214 47.5109 242.402V236.242H48.7849ZM58.2602 236.242V246H56.9862V236.242H58.2602ZM66.4375 236.242V237.278H63.7775V246H62.5035V237.278H59.8295V236.242H66.4375ZM74.0117 236.242V237.278H71.3517V246H70.0777V237.278H67.4037V236.242H74.0117ZM80.004 246.098C79.0986 246.098 78.2726 245.888 77.526 245.468C76.7793 245.039 76.1866 244.446 75.748 243.69C75.3186 242.925 75.104 242.066 75.104 241.114C75.104 240.162 75.3186 239.308 75.748 238.552C76.1866 237.787 76.7793 237.194 77.526 236.774C78.2726 236.345 79.0986 236.13 80.004 236.13C80.9186 236.13 81.7493 236.345 82.496 236.774C83.2426 237.194 83.8306 237.782 84.26 238.538C84.6893 239.294 84.904 240.153 84.904 241.114C84.904 242.075 84.6893 242.934 84.26 243.69C83.8306 244.446 83.2426 245.039 82.496 245.468C81.7493 245.888 80.9186 246.098 80.004 246.098ZM80.004 244.992C80.6853 244.992 81.2966 244.833 81.838 244.516C82.3886 244.199 82.818 243.746 83.126 243.158C83.4433 242.57 83.602 241.889 83.602 241.114C83.602 240.33 83.4433 239.649 83.126 239.07C82.818 238.482 82.3933 238.029 81.852 237.712C81.3106 237.395 80.6946 237.236 80.004 237.236C79.3133 237.236 78.6973 237.395 78.156 237.712C77.6146 238.029 77.1853 238.482 76.868 239.07C76.56 239.649 76.406 240.33 76.406 241.114C76.406 241.889 76.56 242.57 76.868 243.158C77.1853 243.746 77.6146 244.199 78.156 244.516C78.7066 244.833 79.3226 244.992 80.004 244.992ZM94.2578 246H92.9838L87.8598 238.23V246H86.5858V236.228H87.8598L92.9838 243.984V236.228H94.2578V246ZM105.93 243.83H101.674L100.89 246H99.546L103.074 236.298H104.544L108.058 246H106.714L105.93 243.83ZM105.566 242.794L103.802 237.866L102.038 242.794H105.566ZM117.268 246H115.994L110.87 238.23V246H109.596V236.228H110.87L115.994 243.984V236.228H117.268V246ZM122.477 236.242C123.541 236.242 124.461 236.443 125.235 236.844C126.019 237.236 126.617 237.801 127.027 238.538C127.447 239.275 127.657 240.143 127.657 241.142C127.657 242.141 127.447 243.009 127.027 243.746C126.617 244.474 126.019 245.034 125.235 245.426C124.461 245.809 123.541 246 122.477 246H119.439V236.242H122.477ZM122.477 244.95C123.737 244.95 124.699 244.619 125.361 243.956C126.024 243.284 126.355 242.346 126.355 241.142C126.355 239.929 126.019 238.981 125.347 238.3C124.685 237.619 123.728 237.278 122.477 237.278H120.713V244.95H122.477ZM138.838 243.83H134.582L133.798 246H132.454L135.982 236.298H137.452L140.966 246H139.622L138.838 243.83ZM138.474 242.794L136.71 237.866L134.946 242.794H138.474ZM151.752 236.242V237.278H147.51V240.568H150.954V241.604H147.51V246H146.236V236.242H151.752ZM158.429 246L156.105 242.01H154.565V246H153.291V236.242H156.441C157.178 236.242 157.799 236.368 158.303 236.62C158.816 236.872 159.199 237.213 159.451 237.642C159.703 238.071 159.829 238.561 159.829 239.112C159.829 239.784 159.633 240.377 159.241 240.89C158.858 241.403 158.28 241.744 157.505 241.912L159.955 246H158.429ZM154.565 240.988H156.441C157.132 240.988 157.65 240.82 157.995 240.484C158.34 240.139 158.513 239.681 158.513 239.112C158.513 238.533 158.34 238.085 157.995 237.768C157.659 237.451 157.141 237.292 156.441 237.292H154.565V240.988ZM163.082 237.278V240.54H166.638V241.59H163.082V244.95H167.058V246H161.808V236.228H167.058V237.278H163.082ZM170.26 237.278V240.54H173.816V241.59H170.26V244.95H174.236V246H168.986V236.228H174.236V237.278H170.26ZM192.16 236.242L189.332 246H187.904L185.636 238.146L183.284 246L181.87 246.014L179.14 236.242H180.498L182.626 244.516L184.978 236.242H186.406L188.646 244.488L190.788 236.242H192.16ZM197.979 246.098C197.073 246.098 196.247 245.888 195.501 245.468C194.754 245.039 194.161 244.446 193.723 243.69C193.293 242.925 193.079 242.066 193.079 241.114C193.079 240.162 193.293 239.308 193.723 238.552C194.161 237.787 194.754 237.194 195.501 236.774C196.247 236.345 197.073 236.13 197.979 236.13C198.893 236.13 199.724 236.345 200.471 236.774C201.217 237.194 201.805 237.782 202.235 238.538C202.664 239.294 202.879 240.153 202.879 241.114C202.879 242.075 202.664 242.934 202.235 243.69C201.805 244.446 201.217 245.039 200.471 245.468C199.724 245.888 198.893 246.098 197.979 246.098ZM197.979 244.992C198.66 244.992 199.271 244.833 199.813 244.516C200.363 244.199 200.793 243.746 201.101 243.158C201.418 242.57 201.577 241.889 201.577 241.114C201.577 240.33 201.418 239.649 201.101 239.07C200.793 238.482 200.368 238.029 199.827 237.712C199.285 237.395 198.669 237.236 197.979 237.236C197.288 237.236 196.672 237.395 196.131 237.712C195.589 238.029 195.16 238.482 194.843 239.07C194.535 239.649 194.381 240.33 194.381 241.114C194.381 241.889 194.535 242.57 194.843 243.158C195.16 243.746 195.589 244.199 196.131 244.516C196.681 244.833 197.297 244.992 197.979 244.992ZM209.698 246L207.374 242.01H205.834V246H204.56V236.242H207.71C208.448 236.242 209.068 236.368 209.572 236.62C210.086 236.872 210.468 237.213 210.72 237.642C210.972 238.071 211.098 238.561 211.098 239.112C211.098 239.784 210.902 240.377 210.51 240.89C210.128 241.403 209.549 241.744 208.774 241.912L211.224 246H209.698ZM205.834 240.988H207.71C208.401 240.988 208.919 240.82 209.264 240.484C209.61 240.139 209.782 239.681 209.782 239.112C209.782 238.533 209.61 238.085 209.264 237.768C208.928 237.451 208.41 237.292 207.71 237.292H205.834V240.988ZM218.37 246L214.352 241.548V246H213.078V236.242H214.352V240.764L218.384 236.242H219.994L215.57 241.128L220.036 246H218.37ZM224.715 241.114C224.715 240.162 224.93 239.308 225.359 238.552C225.789 237.787 226.372 237.189 227.109 236.76C227.856 236.331 228.682 236.116 229.587 236.116C230.651 236.116 231.58 236.373 232.373 236.886C233.167 237.399 233.745 238.127 234.109 239.07H232.583C232.313 238.482 231.921 238.029 231.407 237.712C230.903 237.395 230.297 237.236 229.587 237.236C228.906 237.236 228.295 237.395 227.753 237.712C227.212 238.029 226.787 238.482 226.479 239.07C226.171 239.649 226.017 240.33 226.017 241.114C226.017 241.889 226.171 242.57 226.479 243.158C226.787 243.737 227.212 244.185 227.753 244.502C228.295 244.819 228.906 244.978 229.587 244.978C230.297 244.978 230.903 244.824 231.407 244.516C231.921 244.199 232.313 243.746 232.583 243.158H234.109C233.745 244.091 233.167 244.815 232.373 245.328C231.58 245.832 230.651 246.084 229.587 246.084C228.682 246.084 227.856 245.874 227.109 245.454C226.372 245.025 225.789 244.432 225.359 243.676C224.93 242.92 224.715 242.066 224.715 241.114ZM241.774 243.83H237.518L236.734 246H235.39L238.918 236.298H240.388L243.902 246H242.558L241.774 243.83ZM241.41 242.794L239.646 237.866L237.882 242.794H241.41ZM250.577 246L248.253 242.01H246.713V246H245.439V236.242H248.589C249.327 236.242 249.947 236.368 250.451 236.62C250.965 236.872 251.347 237.213 251.599 237.642C251.851 238.071 251.977 238.561 251.977 239.112C251.977 239.784 251.781 240.377 251.389 240.89C251.007 241.403 250.428 241.744 249.653 241.912L252.103 246H250.577ZM246.713 240.988H248.589C249.28 240.988 249.798 240.82 250.143 240.484C250.489 240.139 250.661 239.681 250.661 239.112C250.661 238.533 250.489 238.085 250.143 237.768C249.807 237.451 249.289 237.292 248.589 237.292H246.713V240.988ZM260.783 246.098C260.139 246.098 259.561 245.986 259.047 245.762C258.543 245.529 258.147 245.211 257.857 244.81C257.568 244.399 257.419 243.928 257.409 243.396H258.767C258.814 243.853 259.001 244.241 259.327 244.558C259.663 244.866 260.149 245.02 260.783 245.02C261.39 245.02 261.866 244.871 262.211 244.572C262.566 244.264 262.743 243.872 262.743 243.396C262.743 243.023 262.641 242.719 262.435 242.486C262.23 242.253 261.973 242.075 261.665 241.954C261.357 241.833 260.942 241.702 260.419 241.562C259.775 241.394 259.257 241.226 258.865 241.058C258.483 240.89 258.151 240.629 257.871 240.274C257.601 239.91 257.465 239.425 257.465 238.818C257.465 238.286 257.601 237.815 257.871 237.404C258.142 236.993 258.52 236.676 259.005 236.452C259.5 236.228 260.065 236.116 260.699 236.116C261.614 236.116 262.361 236.345 262.939 236.802C263.527 237.259 263.859 237.866 263.933 238.622H262.533C262.487 238.249 262.291 237.922 261.945 237.642C261.6 237.353 261.143 237.208 260.573 237.208C260.041 237.208 259.607 237.348 259.271 237.628C258.935 237.899 258.767 238.281 258.767 238.776C258.767 239.131 258.865 239.42 259.061 239.644C259.267 239.868 259.514 240.041 259.803 240.162C260.102 240.274 260.517 240.405 261.049 240.554C261.693 240.731 262.211 240.909 262.603 241.086C262.995 241.254 263.331 241.52 263.611 241.884C263.891 242.239 264.031 242.724 264.031 243.34C264.031 243.816 263.905 244.264 263.653 244.684C263.401 245.104 263.028 245.445 262.533 245.706C262.039 245.967 261.455 246.098 260.783 246.098ZM272.43 239.098C272.43 239.91 272.15 240.587 271.59 241.128C271.039 241.66 270.195 241.926 269.056 241.926H267.18V246H265.906V236.242H269.056C270.157 236.242 270.993 236.508 271.562 237.04C272.141 237.572 272.43 238.258 272.43 239.098ZM269.056 240.876C269.765 240.876 270.288 240.722 270.624 240.414C270.96 240.106 271.128 239.667 271.128 239.098C271.128 237.894 270.437 237.292 269.056 237.292H267.18V240.876H269.056ZM278.438 246.098C277.532 246.098 276.706 245.888 275.96 245.468C275.213 245.039 274.62 244.446 274.182 243.69C273.752 242.925 273.538 242.066 273.538 241.114C273.538 240.162 273.752 239.308 274.182 238.552C274.62 237.787 275.213 237.194 275.96 236.774C276.706 236.345 277.532 236.13 278.438 236.13C279.352 236.13 280.183 236.345 280.93 236.774C281.676 237.194 282.264 237.782 282.694 238.538C283.123 239.294 283.338 240.153 283.338 241.114C283.338 242.075 283.123 242.934 282.694 243.69C282.264 244.446 281.676 245.039 280.93 245.468C280.183 245.888 279.352 246.098 278.438 246.098ZM278.438 244.992C279.119 244.992 279.73 244.833 280.272 244.516C280.822 244.199 281.252 243.746 281.56 243.158C281.877 242.57 282.036 241.889 282.036 241.114C282.036 240.33 281.877 239.649 281.56 239.07C281.252 238.482 280.827 238.029 280.286 237.712C279.744 237.395 279.128 237.236 278.438 237.236C277.747 237.236 277.131 237.395 276.59 237.712C276.048 238.029 275.619 238.482 275.302 239.07C274.994 239.649 274.84 240.33 274.84 241.114C274.84 241.889 274.994 242.57 275.302 243.158C275.619 243.746 276.048 244.199 276.59 244.516C277.14 244.833 277.756 244.992 278.438 244.992ZM292.691 246H291.417L286.293 238.23V246H285.019V236.228H286.293L291.417 243.984V236.228H292.691V246ZM297.957 246.098C297.313 246.098 296.734 245.986 296.221 245.762C295.717 245.529 295.32 245.211 295.031 244.81C294.742 244.399 294.592 243.928 294.583 243.396H295.941C295.988 243.853 296.174 244.241 296.501 244.558C296.837 244.866 297.322 245.02 297.957 245.02C298.564 245.02 299.04 244.871 299.385 244.572C299.74 244.264 299.917 243.872 299.917 243.396C299.917 243.023 299.814 242.719 299.609 242.486C299.404 242.253 299.147 242.075 298.839 241.954C298.531 241.833 298.116 241.702 297.593 241.562C296.949 241.394 296.431 241.226 296.039 241.058C295.656 240.89 295.325 240.629 295.045 240.274C294.774 239.91 294.639 239.425 294.639 238.818C294.639 238.286 294.774 237.815 295.045 237.404C295.316 236.993 295.694 236.676 296.179 236.452C296.674 236.228 297.238 236.116 297.873 236.116C298.788 236.116 299.534 236.345 300.113 236.802C300.701 237.259 301.032 237.866 301.107 238.622H299.707C299.66 238.249 299.464 237.922 299.119 237.642C298.774 237.353 298.316 237.208 297.747 237.208C297.215 237.208 296.781 237.348 296.445 237.628C296.109 237.899 295.941 238.281 295.941 238.776C295.941 239.131 296.039 239.42 296.235 239.644C296.44 239.868 296.688 240.041 296.977 240.162C297.276 240.274 297.691 240.405 298.223 240.554C298.867 240.731 299.385 240.909 299.777 241.086C300.169 241.254 300.505 241.52 300.785 241.884C301.065 242.239 301.205 242.724 301.205 243.34C301.205 243.816 301.079 244.264 300.827 244.684C300.575 245.104 300.202 245.445 299.707 245.706C299.212 245.967 298.629 246.098 297.957 246.098ZM307.504 246.098C306.599 246.098 305.773 245.888 305.026 245.468C304.279 245.039 303.687 244.446 303.248 243.69C302.819 242.925 302.604 242.066 302.604 241.114C302.604 240.162 302.819 239.308 303.248 238.552C303.687 237.787 304.279 237.194 305.026 236.774C305.773 236.345 306.599 236.13 307.504 236.13C308.419 236.13 309.249 236.345 309.996 236.774C310.743 237.194 311.331 237.782 311.76 238.538C312.189 239.294 312.404 240.153 312.404 241.114C312.404 242.075 312.189 242.934 311.76 243.69C311.331 244.446 310.743 245.039 309.996 245.468C309.249 245.888 308.419 246.098 307.504 246.098ZM307.504 244.992C308.185 244.992 308.797 244.833 309.338 244.516C309.889 244.199 310.318 243.746 310.626 243.158C310.943 242.57 311.102 241.889 311.102 241.114C311.102 240.33 310.943 239.649 310.626 239.07C310.318 238.482 309.893 238.029 309.352 237.712C308.811 237.395 308.195 237.236 307.504 237.236C306.813 237.236 306.197 237.395 305.656 237.712C305.115 238.029 304.685 238.482 304.368 239.07C304.06 239.649 303.906 240.33 303.906 241.114C303.906 241.889 304.06 242.57 304.368 243.158C304.685 243.746 305.115 244.199 305.656 244.516C306.207 244.833 306.823 244.992 307.504 244.992ZM319.224 246L316.9 242.01H315.36V246H314.086V236.242H317.236C317.973 236.242 318.594 236.368 319.098 236.62C319.611 236.872 319.994 237.213 320.246 237.642C320.498 238.071 320.624 238.561 320.624 239.112C320.624 239.784 320.428 240.377 320.036 240.89C319.653 241.403 319.074 241.744 318.3 241.912L320.75 246H319.224ZM315.36 240.988H317.236C317.926 240.988 318.444 240.82 318.79 240.484C319.135 240.139 319.308 239.681 319.308 239.112C319.308 238.533 319.135 238.085 318.79 237.768C318.454 237.451 317.936 237.292 317.236 237.292H315.36V240.988ZM323.877 237.278V240.54H327.433V241.59H323.877V244.95H327.853V246H322.603V236.228H327.853V237.278H323.877ZM332.819 236.242C333.883 236.242 334.802 236.443 335.577 236.844C336.361 237.236 336.958 237.801 337.369 238.538C337.789 239.275 337.999 240.143 337.999 241.142C337.999 242.141 337.789 243.009 337.369 243.746C336.958 244.474 336.361 245.034 335.577 245.426C334.802 245.809 333.883 246 332.819 246H329.781V236.242H332.819ZM332.819 244.95C334.079 244.95 335.04 244.619 335.703 243.956C336.366 243.284 336.697 242.346 336.697 241.142C336.697 239.929 336.361 238.981 335.689 238.3C335.026 237.619 334.07 237.278 332.819 237.278H331.055V244.95H332.819ZM42.964 266.974C43.3187 267.03 43.6407 267.175 43.93 267.408C44.2287 267.641 44.462 267.931 44.63 268.276C44.8073 268.621 44.896 268.99 44.896 269.382C44.896 269.877 44.77 270.325 44.518 270.726C44.266 271.118 43.8973 271.431 43.412 271.664C42.936 271.888 42.3713 272 41.718 272H38.078V262.242H41.578C42.2407 262.242 42.8053 262.354 43.272 262.578C43.7387 262.793 44.0887 263.087 44.322 263.46C44.5553 263.833 44.672 264.253 44.672 264.72C44.672 265.299 44.5133 265.779 44.196 266.162C43.888 266.535 43.4773 266.806 42.964 266.974ZM39.352 266.456H41.494C42.0913 266.456 42.5533 266.316 42.88 266.036C43.2067 265.756 43.37 265.369 43.37 264.874C43.37 264.379 43.2067 263.992 42.88 263.712C42.5533 263.432 42.082 263.292 41.466 263.292H39.352V266.456ZM41.606 270.95C42.2407 270.95 42.7353 270.801 43.09 270.502C43.4447 270.203 43.622 269.788 43.622 269.256C43.622 268.715 43.4353 268.29 43.062 267.982C42.6887 267.665 42.1893 267.506 41.564 267.506H39.352V270.95H41.606ZM53.4959 262.242L50.3179 268.318V272H49.0439V268.318L45.8519 262.242H47.2659L49.6739 267.184L52.0819 262.242H53.4959ZM64.0881 262.242V263.278H59.8461V266.568H63.2901V267.604H59.8461V272H58.5721V262.242H64.0881ZM66.9008 263.278V266.54H70.4568V267.59H66.9008V270.95H70.8768V272H65.6268V262.228H70.8768V263.278H66.9008ZM77.9426 272L75.6186 268.01H74.0786V272H72.8046V262.242H75.9546C76.6919 262.242 77.3126 262.368 77.8166 262.62C78.3299 262.872 78.7126 263.213 78.9646 263.642C79.2166 264.071 79.3426 264.561 79.3426 265.112C79.3426 265.784 79.1466 266.377 78.7546 266.89C78.3719 267.403 77.7932 267.744 77.0186 267.912L79.4686 272H77.9426ZM74.0786 266.988H75.9546C76.6452 266.988 77.1632 266.82 77.5086 266.484C77.8539 266.139 78.0266 265.681 78.0266 265.112C78.0266 264.533 77.8539 264.085 77.5086 263.768C77.1726 263.451 76.6546 263.292 75.9546 263.292H74.0786V266.988ZM86.4601 272L84.1361 268.01H82.5961V272H81.3221V262.242H84.4721C85.2095 262.242 85.8301 262.368 86.3341 262.62C86.8475 262.872 87.2301 263.213 87.4821 263.642C87.7341 264.071 87.8601 264.561 87.8601 265.112C87.8601 265.784 87.6641 266.377 87.2721 266.89C86.8895 267.403 86.3108 267.744 85.5361 267.912L87.9861 272H86.4601ZM82.5961 266.988H84.4721C85.1628 266.988 85.6808 266.82 86.0261 266.484C86.3715 266.139 86.5441 265.681 86.5441 265.112C86.5441 264.533 86.3715 264.085 86.0261 263.768C85.6901 263.451 85.1721 263.292 84.4721 263.292H82.5961V266.988ZM95.6077 269.83H91.3517L90.5677 272H89.2237L92.7517 262.298H94.2217L97.7357 272H96.3917L95.6077 269.83ZM95.2437 268.794L93.4797 263.866L91.7157 268.794H95.2437ZM104.411 272L102.087 268.01H100.547V272H99.2733V262.242H102.423C103.161 262.242 103.781 262.368 104.285 262.62C104.799 262.872 105.181 263.213 105.433 263.642C105.685 264.071 105.811 264.561 105.811 265.112C105.811 265.784 105.615 266.377 105.223 266.89C104.841 267.403 104.262 267.744 103.487 267.912L105.937 272H104.411ZM100.547 266.988H102.423C103.114 266.988 103.632 266.82 103.977 266.484C104.323 266.139 104.495 265.681 104.495 265.112C104.495 264.533 104.323 264.085 103.977 263.768C103.641 263.451 103.123 263.292 102.423 263.292H100.547V266.988ZM109.065 262.242V272H107.791V262.242H109.065ZM111.642 272.084C111.4 272.084 111.194 272 111.026 271.832C110.858 271.664 110.774 271.459 110.774 271.216C110.774 270.973 110.858 270.768 111.026 270.6C111.194 270.432 111.4 270.348 111.642 270.348C111.876 270.348 112.072 270.432 112.23 270.6C112.398 270.768 112.482 270.973 112.482 271.216C112.482 271.459 112.398 271.664 112.23 271.832C112.072 272 111.876 272.084 111.642 272.084Z" fill="white"/>
<path d="M44.86 148.14C43.5533 148.14 42.3533 147.833 41.26 147.22C40.1667 146.607 39.3 145.76 38.66 144.68C38.02 143.587 37.7 142.353 37.7 140.98C37.7 139.62 38.02 138.4 38.66 137.32C39.3 136.227 40.1667 135.373 41.26 134.76C42.3533 134.147 43.5533 133.84 44.86 133.84C46.18 133.84 47.38 134.147 48.46 134.76C49.5533 135.373 50.4133 136.227 51.04 137.32C51.68 138.4 52 139.62 52 140.98C52 142.353 51.68 143.587 51.04 144.68C50.4133 145.76 49.5533 146.607 48.46 147.22C47.3667 147.833 46.1667 148.14 44.86 148.14ZM44.86 145.64C45.7 145.64 46.44 145.453 47.08 145.08C47.72 144.693 48.22 144.147 48.58 143.44C48.94 142.733 49.12 141.913 49.12 140.98C49.12 140.047 48.94 139.233 48.58 138.54C48.22 137.833 47.72 137.293 47.08 136.92C46.44 136.547 45.7 136.36 44.86 136.36C44.02 136.36 43.2733 136.547 42.62 136.92C41.98 137.293 41.48 137.833 41.12 138.54C40.76 139.233 40.58 140.047 40.58 140.98C40.58 141.913 40.76 142.733 41.12 143.44C41.48 144.147 41.98 144.693 42.62 145.08C43.2733 145.453 44.02 145.64 44.86 145.64ZM56.8431 134.04V142.68C56.8431 143.627 57.0898 144.353 57.5831 144.86C58.0765 145.353 58.7698 145.6 59.6631 145.6C60.5698 145.6 61.2698 145.353 61.7631 144.86C62.2565 144.353 62.5031 143.627 62.5031 142.68V134.04H65.3231V142.66C65.3231 143.847 65.0631 144.853 64.5431 145.68C64.0365 146.493 63.3498 147.107 62.4831 147.52C61.6298 147.933 60.6765 148.14 59.6231 148.14C58.5831 148.14 57.6365 147.933 56.7831 147.52C55.9431 147.107 55.2765 146.493 54.7831 145.68C54.2898 144.853 54.0431 143.847 54.0431 142.66V134.04H56.8431ZM75.2284 148L72.1484 142.56H70.8284V148H68.0284V134.04H73.2684C74.3484 134.04 75.2684 134.233 76.0284 134.62C76.7884 134.993 77.3551 135.507 77.7284 136.16C78.1151 136.8 78.3084 137.52 78.3084 138.32C78.3084 139.24 78.0418 140.073 77.5084 140.82C76.9751 141.553 76.1818 142.06 75.1284 142.34L78.4684 148H75.2284ZM70.8284 140.46H73.1684C73.9284 140.46 74.4951 140.28 74.8684 139.92C75.2418 139.547 75.4284 139.033 75.4284 138.38C75.4284 137.74 75.2418 137.247 74.8684 136.9C74.4951 136.54 73.9284 136.36 73.1684 136.36H70.8284V140.46ZM93.5266 140.84C94.3132 140.987 94.9599 141.38 95.4666 142.02C95.9732 142.66 96.2266 143.393 96.2266 144.22C96.2266 144.967 96.0399 145.627 95.6666 146.2C95.3066 146.76 94.7799 147.2 94.0866 147.52C93.3932 147.84 92.5732 148 91.6266 148H85.6066V134.04H91.3666C92.3132 134.04 93.1266 134.193 93.8066 134.5C94.4999 134.807 95.0199 135.233 95.3666 135.78C95.7266 136.327 95.9066 136.947 95.9066 137.64C95.9066 138.453 95.6866 139.133 95.2466 139.68C94.8199 140.227 94.2466 140.613 93.5266 140.84ZM88.4066 139.8H90.9666C91.6332 139.8 92.1466 139.653 92.5066 139.36C92.8666 139.053 93.0466 138.62 93.0466 138.06C93.0466 137.5 92.8666 137.067 92.5066 136.76C92.1466 136.453 91.6332 136.3 90.9666 136.3H88.4066V139.8ZM91.2266 145.72C91.9066 145.72 92.4332 145.56 92.8066 145.24C93.1932 144.92 93.3866 144.467 93.3866 143.88C93.3866 143.28 93.1866 142.813 92.7866 142.48C92.3866 142.133 91.8466 141.96 91.1666 141.96H88.4066V145.72H91.2266ZM101.258 136.3V139.8H105.958V142.02H101.258V145.72H106.558V148H98.4581V134.02H106.558V136.3H101.258ZM121.043 148H118.243L111.903 138.42V148H109.103V134.02H111.903L118.243 143.62V134.02H121.043V148ZM126.61 136.3V139.8H131.31V142.02H126.61V145.72H131.91V148H123.81V134.02H131.91V136.3H126.61ZM143.074 134.04V136.3H137.254V139.88H141.714V142.1H137.254V148H134.454V134.04H143.074ZM147.86 134.04V148H145.06V134.04H147.86ZM160.126 134.04V136.3H156.406V148H153.606V136.3H149.886V134.04H160.126ZM166.989 148.14C166.016 148.14 165.136 147.973 164.349 147.64C163.576 147.307 162.962 146.827 162.509 146.2C162.056 145.573 161.822 144.833 161.809 143.98H164.809C164.849 144.553 165.049 145.007 165.409 145.34C165.782 145.673 166.289 145.84 166.929 145.84C167.582 145.84 168.096 145.687 168.469 145.38C168.842 145.06 169.029 144.647 169.029 144.14C169.029 143.727 168.902 143.387 168.649 143.12C168.396 142.853 168.076 142.647 167.689 142.5C167.316 142.34 166.796 142.167 166.129 141.98C165.222 141.713 164.482 141.453 163.909 141.2C163.349 140.933 162.862 140.54 162.449 140.02C162.049 139.487 161.849 138.78 161.849 137.9C161.849 137.073 162.056 136.353 162.469 135.74C162.882 135.127 163.462 134.66 164.209 134.34C164.956 134.007 165.809 133.84 166.769 133.84C168.209 133.84 169.376 134.193 170.269 134.9C171.176 135.593 171.676 136.567 171.769 137.82H168.689C168.662 137.34 168.456 136.947 168.069 136.64C167.696 136.32 167.196 136.16 166.569 136.16C166.022 136.16 165.582 136.3 165.249 136.58C164.929 136.86 164.769 137.267 164.769 137.8C164.769 138.173 164.889 138.487 165.129 138.74C165.382 138.98 165.689 139.18 166.049 139.34C166.422 139.487 166.942 139.66 167.609 139.86C168.516 140.127 169.256 140.393 169.829 140.66C170.402 140.927 170.896 141.327 171.309 141.86C171.722 142.393 171.929 143.093 171.929 143.96C171.929 144.707 171.736 145.4 171.349 146.04C170.962 146.68 170.396 147.193 169.649 147.58C168.902 147.953 168.016 148.14 166.989 148.14Z" fill="white"/>
<rect x="37" y="64" width="140" height="39" rx="8" fill="#DC4200" fill-opacity="0.11"/>
<path d="M66.964 83.974C67.3187 84.03 67.6407 84.1747 67.93 84.408C68.2287 84.6413 68.462 84.9307 68.63 85.276C68.8073 85.6213 68.896 85.99 68.896 86.382C68.896 86.8767 68.77 87.3247 68.518 87.726C68.266 88.118 67.8973 88.4307 67.412 88.664C66.936 88.888 66.3713 89 65.718 89H62.078V79.242H65.578C66.2407 79.242 66.8053 79.354 67.272 79.578C67.7387 79.7927 68.0887 80.0867 68.322 80.46C68.5553 80.8333 68.672 81.2533 68.672 81.72C68.672 82.2987 68.5133 82.7793 68.196 83.162C67.888 83.5353 67.4773 83.806 66.964 83.974ZM63.352 83.456H65.494C66.0913 83.456 66.5533 83.316 66.88 83.036C67.2067 82.756 67.37 82.3687 67.37 81.874C67.37 81.3793 67.2067 80.992 66.88 80.712C66.5533 80.432 66.082 80.292 65.466 80.292H63.352V83.456ZM65.606 87.95C66.2407 87.95 66.7353 87.8007 67.09 87.502C67.4447 87.2033 67.622 86.788 67.622 86.256C67.622 85.7147 67.4353 85.29 67.062 84.982C66.6887 84.6647 66.1893 84.506 65.564 84.506H63.352V87.95H65.606ZM71.9379 80.278V83.54H75.4939V84.59H71.9379V87.95H75.9139V89H70.6639V79.228H75.9139V80.278H71.9379ZM85.5137 89H84.2397L79.1157 81.23V89H77.8417V79.228H79.1157L84.2397 86.984V79.228H85.5137V89ZM88.9594 80.278V83.54H92.5154V84.59H88.9594V87.95H92.9354V89H87.6854V79.228H92.9354V80.278H88.9594ZM100.379 79.242V80.278H96.1372V83.568H99.5812V84.604H96.1372V89H94.8632V79.242H100.379ZM103.192 79.242V89H101.918V79.242H103.192ZM111.369 79.242V80.278H108.709V89H107.435V80.278H104.761V79.242H111.369ZM116.031 89.098C115.387 89.098 114.809 88.986 114.295 88.762C113.791 88.5287 113.395 88.2113 113.105 87.81C112.816 87.3993 112.667 86.928 112.657 86.396H114.015C114.062 86.8533 114.249 87.2407 114.575 87.558C114.911 87.866 115.397 88.02 116.031 88.02C116.638 88.02 117.114 87.8707 117.459 87.572C117.814 87.264 117.991 86.872 117.991 86.396C117.991 86.0227 117.889 85.7193 117.683 85.486C117.478 85.2527 117.221 85.0753 116.913 84.954C116.605 84.8327 116.19 84.702 115.667 84.562C115.023 84.394 114.505 84.226 114.113 84.058C113.731 83.89 113.399 83.6287 113.119 83.274C112.849 82.91 112.713 82.4247 112.713 81.818C112.713 81.286 112.849 80.8147 113.119 80.404C113.39 79.9933 113.768 79.676 114.253 79.452C114.748 79.228 115.313 79.116 115.947 79.116C116.862 79.116 117.609 79.3447 118.187 79.802C118.775 80.2593 119.107 80.866 119.181 81.622H117.781C117.735 81.2487 117.539 80.922 117.193 80.642C116.848 80.3527 116.391 80.208 115.821 80.208C115.289 80.208 114.855 80.348 114.519 80.628C114.183 80.8987 114.015 81.2813 114.015 81.776C114.015 82.1307 114.113 82.42 114.309 82.644C114.515 82.868 114.762 83.0407 115.051 83.162C115.35 83.274 115.765 83.4047 116.297 83.554C116.941 83.7313 117.459 83.9087 117.851 84.086C118.243 84.254 118.579 84.52 118.859 84.884C119.139 85.2387 119.279 85.724 119.279 86.34C119.279 86.816 119.153 87.264 118.901 87.684C118.649 88.104 118.276 88.4447 117.781 88.706C117.287 88.9673 116.703 89.098 116.031 89.098Z" fill="white"/>
</svg>
